<?xml version="1.0" encoding="UTF-8" standalone="no"?>
<svg
   xmlns:dc="http://purl.org/dc/elements/1.1/"
   xmlns:cc="http://creativecommons.org/ns#"
   xmlns:rdf="http://www.w3.org/1999/02/22-rdf-syntax-ns#"
   xmlns:svg="http://www.w3.org/2000/svg"
   xmlns="http://www.w3.org/2000/svg"
   xmlns:sodipodi="http://sodipodi.sourceforge.net/DTD/sodipodi-0.dtd"
   xmlns:inkscape="http://www.inkscape.org/namespaces/inkscape"
   version="1.1"
   id="svg1413"
   width="128"
   height="128"
   viewBox="0 0 128 128"
   sodipodi:docname="sabotage_reactor.svg"
   inkscape:version="1.0.1 (3bc2e81, 2020-09-07)">
  <metadata
     id="metadata1419">
    <rdf:RDF>
      <cc:Work
         rdf:about="">
        <dc:format>image/svg+xml</dc:format>
        <dc:type
           rdf:resource="http://purl.org/dc/dcmitype/StillImage" />
        <dc:title></dc:title>
      </cc:Work>
    </rdf:RDF>
  </metadata>
  <defs
     id="defs1417">
    <clipPath
       clipPathUnits="userSpaceOnUse"
       id="clipPath3064">
      <circle
         style="display:inline;fill:#efefef;fill-opacity:1;stroke:none;stroke-width:2;stroke-linecap:round;stroke-linejoin:round;stroke-miterlimit:4;stroke-dasharray:none;stroke-opacity:1"
         id="circle3066"
         cx="64"
         cy="64"
         inkscape:label="little-circle-clip"
         r="51" />
    </clipPath>
  </defs>
  <sodipodi:namedview
     pagecolor="#ffffff"
     bordercolor="#666666"
     borderopacity="1"
     objecttolerance="10"
     gridtolerance="10"
     guidetolerance="10"
     inkscape:pageopacity="0"
     inkscape:pageshadow="2"
     inkscape:window-width="640"
     inkscape:window-height="480"
     id="namedview1415"
     showgrid="false"
     showguides="true"
     inkscape:guide-bbox="true"
     inkscape:zoom="2.8284271"
     inkscape:cx="38.762416"
     inkscape:cy="68.820611"
     inkscape:current-layer="g1421" />
  <g
     inkscape:label="Image"
     id="g1421">
    <circle
       style="display:inline;fill:#abbbbb;fill-opacity:1;stroke:#333333;stroke-width:4;stroke-linecap:round;stroke-linejoin:round;stroke-miterlimit:4;stroke-dasharray:none;stroke-opacity:1"
       id="path1738"
       cx="64"
       cy="64"
       inkscape:label="big-circle"
       r="61" />
    <path
       id="circle1756"
       style="display:inline;fill:#556666;fill-opacity:1;stroke:none;stroke-width:3.875;stroke-linecap:round;stroke-linejoin:round;stroke-miterlimit:4;stroke-dasharray:none;stroke-opacity:1"
       inkscape:label="shadow"
       d="m 8.5211048,64.000002 a 55.500001,55.510907 0 0 0 -0.0211,1.489092 A 55.500001,55.510907 0 0 0 64.000007,121 55.500001,55.510907 0 0 0 119.5,65.489094 55.500001,55.510907 0 0 0 119.4789,64.030706 55.500001,55.510907 0 0 1 64.000007,118.05251 55.500001,55.510907 0 0 1 8.5211088,64.000002 Z" />
    <path
       id="circle1772"
       style="display:inline;fill:#efefef;fill-opacity:1;stroke:none;stroke-width:3.875;stroke-linecap:round;stroke-linejoin:round;stroke-miterlimit:4;stroke-dasharray:none;stroke-opacity:1"
       inkscape:label="highlight"
       d="M 63.744815,7.0001485 A 55.499981,55.510764 0 0 0 8.5000008,62.510914 a 55.499981,55.510764 0 0 0 0.0211,1.458385 55.499981,55.510764 0 0 1 55.4788782,-54.0216765 55.499981,55.510764 0 0 1 55.478881,54.0523795 55.499981,55.510764 0 0 0 0.0211,-1.489088 55.499981,55.510764 0 0 0 -55.499981,-55.5107655 55.499981,55.510764 0 0 0 -0.255168,0 z" />
    <circle
       style="display:inline;fill:none;fill-opacity:1;stroke:#cc3300;stroke-width:2;stroke-linecap:round;stroke-linejoin:round;stroke-miterlimit:4;stroke-dasharray:none;stroke-opacity:1"
       id="path1742"
       cx="64"
       cy="64"
       inkscape:label="little-circle"
       r="51" />
    <circle
       style="display:inline;fill:#eeeeee;fill-opacity:1;stroke:none;stroke-width:2;stroke-linecap:round;stroke-linejoin:round;stroke-miterlimit:4;stroke-dasharray:none;stroke-opacity:1"
       id="circle3817"
       cx="64"
       cy="64"
       inkscape:label="littlest-circle"
       r="47" />
    <path
       id="path4026"
       style="fill:#cc3300;fill-opacity:1;stroke:none;stroke-width:6;stroke-linecap:butt;stroke-linejoin:bevel;stroke-miterlimit:4;stroke-dasharray:none;stroke-opacity:0.5;stop-color:#000000"
       inkscape:label="radiation"
       d="M 76,64 A 12,12 0 0 1 64,76 12,12 0 0 1 52,64 12,12 0 0 1 64,52 12,12 0 0 1 76,64 Z M 41.5,25.029297 A 45,45 0 0 0 19,64 h 27 a 18,18 0 0 1 9,-15.587891 z m 45,0 L 73,48.412109 A 18,18 0 0 1 82,64 h 27 A 45,45 0 0 0 86.5,25.029297 Z M 55,79.587891 41.5,102.9707 A 45,45 0 0 0 64,109 45,45 0 0 0 86.5,102.9707 L 73,79.587891 A 18,18 0 0 1 64,82 18,18 0 0 1 55,79.587891 Z" />
  </g>
</svg>
