<?xml version="1.0" encoding="UTF-8" standalone="no"?>
<svg
   xmlns:dc="http://purl.org/dc/elements/1.1/"
   xmlns:cc="http://creativecommons.org/ns#"
   xmlns:rdf="http://www.w3.org/1999/02/22-rdf-syntax-ns#"
   xmlns:svg="http://www.w3.org/2000/svg"
   xmlns="http://www.w3.org/2000/svg"
   xmlns:sodipodi="http://sodipodi.sourceforge.net/DTD/sodipodi-0.dtd"
   xmlns:inkscape="http://www.inkscape.org/namespaces/inkscape"
   version="1.1"
   id="svg1413"
   width="128"
   height="128"
   viewBox="0 0 128 128"
   sodipodi:docname="sabotage_o2.svg"
   inkscape:version="1.0.1 (3bc2e81, 2020-09-07)">
  <metadata
     id="metadata1419">
    <rdf:RDF>
      <cc:Work
         rdf:about="">
        <dc:format>image/svg+xml</dc:format>
        <dc:type
           rdf:resource="http://purl.org/dc/dcmitype/StillImage" />
        <dc:title></dc:title>
      </cc:Work>
    </rdf:RDF>
  </metadata>
  <defs
     id="defs1417">
    <clipPath
       clipPathUnits="userSpaceOnUse"
       id="clipPath3064">
      <circle
         style="display:inline;fill:#efefef;fill-opacity:1;stroke:none;stroke-width:2;stroke-linecap:round;stroke-linejoin:round;stroke-miterlimit:4;stroke-dasharray:none;stroke-opacity:1"
         id="circle3066"
         cx="64"
         cy="64"
         inkscape:label="little-circle-clip"
         r="51" />
    </clipPath>
  </defs>
  <sodipodi:namedview
     pagecolor="#ffffff"
     bordercolor="#666666"
     borderopacity="1"
     objecttolerance="10"
     gridtolerance="10"
     guidetolerance="10"
     inkscape:pageopacity="0"
     inkscape:pageshadow="2"
     inkscape:window-width="640"
     inkscape:window-height="480"
     id="namedview1415"
     showgrid="false"
     showguides="true"
     inkscape:guide-bbox="true"
     inkscape:zoom="2"
     inkscape:cx="-0.56821847"
     inkscape:cy="26.64749"
     inkscape:current-layer="g1421" />
  <g
     inkscape:label="Image"
     id="g1421">
    <circle
       style="display:inline;fill:#abbbbb;fill-opacity:1;stroke:#333333;stroke-width:4;stroke-linecap:round;stroke-linejoin:round;stroke-miterlimit:4;stroke-dasharray:none;stroke-opacity:1"
       id="path1738"
       cx="64"
       cy="64"
       inkscape:label="big-circle"
       r="61" />
    <path
       id="circle1756"
       style="display:inline;fill:#556666;fill-opacity:1;stroke:none;stroke-width:3.875;stroke-linecap:round;stroke-linejoin:round;stroke-miterlimit:4;stroke-dasharray:none;stroke-opacity:1"
       inkscape:label="shadow"
       d="m 8.5211048,64.000002 a 55.500001,55.510907 0 0 0 -0.0211,1.489092 A 55.500001,55.510907 0 0 0 64.000007,121 55.500001,55.510907 0 0 0 119.5,65.489094 55.500001,55.510907 0 0 0 119.4789,64.030706 55.500001,55.510907 0 0 1 64.000007,118.05251 55.500001,55.510907 0 0 1 8.5211088,64.000002 Z" />
    <path
       id="circle1772"
       style="display:inline;fill:#efefef;fill-opacity:1;stroke:none;stroke-width:3.875;stroke-linecap:round;stroke-linejoin:round;stroke-miterlimit:4;stroke-dasharray:none;stroke-opacity:1"
       inkscape:label="highlight"
       d="M 63.744815,7.0001485 A 55.499981,55.510764 0 0 0 8.5000008,62.510914 a 55.499981,55.510764 0 0 0 0.0211,1.458385 55.499981,55.510764 0 0 1 55.4788782,-54.0216765 55.499981,55.510764 0 0 1 55.478881,54.0523795 55.499981,55.510764 0 0 0 0.0211,-1.489088 55.499981,55.510764 0 0 0 -55.499981,-55.5107655 55.499981,55.510764 0 0 0 -0.255168,0 z" />
    <circle
       style="display:inline;fill:none;fill-opacity:1;stroke:#cc3300;stroke-width:2;stroke-linecap:round;stroke-linejoin:round;stroke-miterlimit:4;stroke-dasharray:none;stroke-opacity:1"
       id="path1742"
       cx="64"
       cy="64"
       inkscape:label="little-circle"
       r="51" />
    <circle
       style="display:inline;fill:#eeeeee;fill-opacity:1;stroke:none;stroke-width:2;stroke-linecap:round;stroke-linejoin:round;stroke-miterlimit:4;stroke-dasharray:none;stroke-opacity:1"
       id="circle3817"
       cx="64"
       cy="64"
       inkscape:label="littlest-circle"
       r="47" />
    <path
       style="color:#000000;font-style:normal;font-variant:normal;font-weight:normal;font-stretch:normal;font-size:medium;line-height:normal;font-family:sans-serif;font-variant-ligatures:normal;font-variant-position:normal;font-variant-caps:normal;font-variant-numeric:normal;font-variant-alternates:normal;font-variant-east-asian:normal;font-feature-settings:normal;font-variation-settings:normal;text-indent:0;text-align:start;text-decoration:none;text-decoration-line:none;text-decoration-style:solid;text-decoration-color:#000000;letter-spacing:normal;word-spacing:normal;text-transform:none;writing-mode:lr-tb;direction:ltr;text-orientation:mixed;dominant-baseline:auto;baseline-shift:baseline;text-anchor:start;white-space:normal;shape-padding:0;shape-margin:0;inline-size:0;clip-rule:nonzero;display:inline;overflow:visible;visibility:visible;opacity:1;isolation:auto;mix-blend-mode:normal;color-interpolation:sRGB;color-interpolation-filters:linearRGB;solid-color:#000000;solid-opacity:1;vector-effect:none;fill:#ce3100;fill-opacity:1;fill-rule:nonzero;stroke:none;stroke-width:6;stroke-linecap:butt;stroke-linejoin:bevel;stroke-miterlimit:4;stroke-dasharray:none;stroke-dashoffset:0;stroke-opacity:1;color-rendering:auto;image-rendering:auto;shape-rendering:auto;text-rendering:auto;enable-background:accumulate;stop-color:#000000;stop-opacity:1"
       d="m 80.288811,70.21411 c -2.432808,0 -4.733614,0.816531 -6.65625,2.536043 C 71.709926,74.469666 70.403221,76.991185 70,80 l 6,2 c 0.407327,-1.721862 0.901389,-3.386923 1.969298,-4.454832 0.554582,-0.554582 1.287119,-0.834739 2.125397,-0.857122 0.69864,-0.01865 1.627423,0.1092 2.31053,0.720144 0.642116,0.574282 1.13815,1.624024 1.13815,2.557471 0,0.925276 0.04717,1.986267 -1.900362,3.862405 C 79.674563,85.724356 76.131968,88.851915 71,93 v 5 h 20 v -5.5 h -9.609375 c 1.39006,-1.127992 3.489766,-3.216539 4.507813,-4.197266 C 88.385278,85.907056 90,83.132202 90,80 90,76.936436 88.733182,74.256622 86.810547,72.537109 84.887911,70.817597 82.721619,70.21411 80.288811,70.21411 Z"
       id="path3937"
       sodipodi:nodetypes="ssccssssscccccssss"
       inkscape:label="2" />
    <ellipse
       style="display:inline;fill:none;fill-opacity:1;stroke:#cd3300;stroke-width:7;stroke-linecap:square;stroke-miterlimit:4;stroke-dasharray:none;stroke-opacity:1;stop-color:#000000"
       id="path3929"
       cx="51"
       cy="56"
       rx="18.5"
       ry="25"
       inkscape:label="O" />
  </g>
</svg>
