<?xml version="1.0" encoding="UTF-8" standalone="no"?>
<svg
   xmlns:dc="http://purl.org/dc/elements/1.1/"
   xmlns:cc="http://creativecommons.org/ns#"
   xmlns:rdf="http://www.w3.org/1999/02/22-rdf-syntax-ns#"
   xmlns:svg="http://www.w3.org/2000/svg"
   xmlns="http://www.w3.org/2000/svg"
   xmlns:sodipodi="http://sodipodi.sourceforge.net/DTD/sodipodi-0.dtd"
   xmlns:inkscape="http://www.inkscape.org/namespaces/inkscape"
   width="1536"
   height="1536"
   viewBox="0 0 1536 1536"
   version="1.1"
   id="svg8"
   inkscape:version="1.0.1 (1.0.1+r74)"
   sodipodi:docname="background.svg">
  <defs
     id="defs2" />
  <sodipodi:namedview
     id="base"
     pagecolor="#ffffff"
     bordercolor="#666666"
     borderopacity="1.0"
     inkscape:pageopacity="0.0"
     inkscape:pageshadow="2"
     inkscape:zoom="0.5"
     inkscape:cx="620.09778"
     inkscape:cy="731.76819"
     inkscape:document-units="px"
     inkscape:current-layer="layer1"
     inkscape:document-rotation="0"
     showgrid="false"
     units="px"
     showguides="true"
     inkscape:guide-bbox="true"
     inkscape:snap-global="true"
     inkscape:snap-smooth-nodes="true" />
  <metadata
     id="metadata5">
    <rdf:RDF>
      <cc:Work
         rdf:about="">
        <dc:format>image/svg+xml</dc:format>
        <dc:type
           rdf:resource="http://purl.org/dc/dcmitype/StillImage" />
        <dc:title></dc:title>
      </cc:Work>
    </rdf:RDF>
  </metadata>
  <g
     inkscape:label="Layer 1"
     inkscape:groupmode="layer"
     id="layer1"
     style="display:inline">
    <g
       id="g979"
       inkscape:label="Table"
       style="display:inline"
       transform="matrix(1.5,0,0,1.5,-7.3909766e-6,-7.3909766e-6)">
      <rect
         style="fill:#427da2;fill-opacity:1;stroke:none;stroke-width:9.99997;stroke-linecap:round;stroke-linejoin:round;stroke-miterlimit:4;stroke-dasharray:none;stroke-opacity:1;paint-order:fill markers stroke;stop-color:#000000"
         id="rect858"
         width="1014"
         height="1014"
         x="5"
         y="5"
         inkscape:label="Tabletop" />
      <path
         style="fill:#264773;fill-opacity:1;stroke:none;stroke-width:1px;stroke-linecap:butt;stroke-linejoin:miter;stroke-opacity:1"
         d="M 5,368.55961 V 5 H 1019 V 390.96491 C 960.11607,299.34802 880.40046,231.56302 826.57524,196.35573 767.49541,157.71137 714.72308,115.8802 617.27212,102.15889 582.32657,97.238477 545.53905,92.292078 507.88426,92.641144 387.04333,93.761358 342.81541,102.37237 201.47217,183.97692 93.669686,246.21671 31.652658,300.21225 5,368.55961 Z"
         id="path981"
         sodipodi:nodetypes="ccccssssc"
         inkscape:label="Shadow" />
      <path
         id="path1007"
         style="display:inline;fill:#e1ebf1;fill-opacity:1;stroke:none;stroke-width:1px;stroke-linecap:butt;stroke-linejoin:miter;stroke-opacity:1"
         d="m 1000.1021,1019.9213 c -29.96455,-29.96455 -89.03594,-98.86011 -89.03594,-179.55012 0,-28.25906 13.29471,-30.48795 46.71518,-30.48795 14.34243,0 35.13027,-0.91696 61.25616,7.77801 v 35.73982 c 0,0 -13.373,-10.03326 -36.70533,-14.14737 -5.82429,-1.02698 -11.81863,-0.66312 -15.26047,3.06025 -5.16067,5.58279 -7.19572,18.33324 -7.63775,29.44643 -1.92248,48.33401 41.08535,89.11563 60.09165,104.96201 L 1019,1019 Z m -180.27298,0.9506 -67.2389,-211.558 h 36.32159 c 31.05522,44.94562 68.70442,83.08728 103.17194,124.51194 L 845.10876,808.8649 h 35.19701 l 85.88825,210.5082 H 911.1703 c -25.44188,-33.17131 -56.01423,-66.08225 -84.46081,-98.49969 l 34.63459,99.32759 z m -167.71696,-1.3551 -42.40673,-209.64135 131.63174,-0.18593 6.72345,25.09228 -96.46094,-0.16085 14.28814,64.65479 62.3604,0.11277 8.49807,29.22597 h -64.9224 l 21.44447,91.26922 z m -146.32433,0.3947 c -15.5318,-15.5318 -22.71875,-74.65599 -22.70938,-110.20575 0.0114,-43.12174 9.96014,-96.58111 59.27951,-98.46712 10.26346,-0.39248 21.65966,0.10891 32.18503,0.10891 21.33172,0 36.51453,7.56022 36.51453,44.10576 h -35.63341 c -8.75659,-25.71363 -24.79075,-10.00134 -30.46358,-1.89971 -13.22932,18.89344 -19.88825,41.6413 -19.88825,65.04438 0,28.63635 6.91854,52.9811 16.8947,70.26033 8.04181,13.9288 26.43652,24.6636 32.1913,24.5033 15.54763,-0.4329 24.44107,-12.3462 24.44107,-32.72596 0,-20.13501 -9.10505,-33.09262 -9.10505,-33.09262 h -45.00771 l -2.62311,-29.98227 h 81.21222 c 14.94405,42.85958 20.50989,72.60653 20.73335,101.08225 z M 383.4249,838.40046 l 1.28884,62.12444 c 0,0 22.39683,-5.85296 38.92299,-19.72005 18.16718,-15.24407 15.34636,-22.42408 -1.0181,-33.8826 -15.86163,-11.10644 -39.19373,-8.52179 -39.19373,-8.52179 z m -39.07409,180.98144 2.27383,-208.65097 82.52832,0.29957 c 8.39444,0 22.65648,3.41272 33.02641,13.27061 10.18289,9.68008 13.85455,25.02577 14.31909,45.76634 0.51247,22.88024 4.61631,39.64367 -59.88035,63.11853 21.5734,12.85403 64.70101,47.62748 71.34778,86.52502 h -55.0281 c -10.47223,-20.03934 -28.07101,-35.53878 -47.2319,-50.04309 v 48.60609 z m -168.46933,-0.2385 26.81306,-208.81144 132.62277,-0.3244 v 25.61415 l -100.1689,0.65936 -5.42474,63.91073 62.93609,0.29775 v 29.97146 h -66.51087 l -7.70792,88.10189 z M 5.3748205,879.15391 38.804585,810.67798 74.448923,810.336 l 6.308775,91.21502 c 5.525087,-13.64009 24.011242,-60.18495 30.838782,-92.01721 4.35319,-0.13959 22.83084,0.41525 34.68028,0.20421 20.72689,13.18892 10.6804,122.77815 18.06182,210.16618 l -49.74644,-0.2681 c -0.53743,-35.49829 2.26908,-70.25009 4.44388,-105.12047 -11.07342,33.88168 -22.609926,69.19598 -29.261672,105.51847 H 38.310516 L 33.340014,913.54279 6.3010048,986.10265 Z"
         inkscape:label="Bottom Text"
         sodipodi:nodetypes="cssccsssccccccccccccccccccccccccccsssccsssssccccccccssccccssccccccccccccccccccccccccccccccc" />
      <path
         id="path1031"
         style="fill:#d0dfe7;fill-opacity:1;stroke:none;stroke-width:1px;stroke-linecap:butt;stroke-linejoin:miter;stroke-opacity:1"
         d="m 587.95773,263.30712 -2.32853,-31.7473 c -12.28431,1.07474 -25.28989,13.01804 -25.28989,17.53145 0,10.06582 16.55911,16.03855 27.61842,14.21585 z m 74.99317,-89.30888 16.26169,-0.27471 c 9.37886,15.90992 16.83393,33.55337 23.75,50.39591 -1.9381,-17.53088 -5.66813,-33.71629 -10.56447,-50.28894 l 16.99451,0.0505 31.93801,50.81017 -10.79726,-50.20099 16.59242,-0.21912 c 12.91435,35.85102 18.74537,70.59609 25.63657,106.22884 l -18.58533,-0.0101 -29.11472,-47.41499 c 0.3724,14.87358 3.72164,31.35327 8.77514,46.97464 l -20.14317,-0.36884 c -11.89397,-14.99366 -24.05764,-38.52728 -33.09409,-64.68048 -5.95085,-17.2229 -14.82474,-30.10489 -17.6493,-41.00189 z m 134.55028,106.78551 -7.10383,-15.93302 50.15367,0.0314 -16.44347,-33.59767 -29.98516,-1.23008 -4.81515,-12.70566 27.24347,-0.18265 -16.3923,-33.05215 -46.8021,0.16409 -3.45,-10.89859 59.98994,-0.59617 c 20.48689,36.15684 38.39235,71.18524 58.7127,107.66411 z m -182.28513,-0.16865 -2.23871,-15.25586 51.50125,-0.0942 -8.54348,-33.7966 -29.98015,-0.12958 -0.19736,-13.40935 27.22635,-0.0721 -7.81796,-33.29397 -45.11369,-0.0203 -0.59614,-10.59223 59.73978,-0.11116 26.61006,106.71677 z m -6.70208,0.079 c -4.04826,0.20514 -41.27162,1.37806 -48.49807,-0.55826 -9.46274,-2.53554 -16.14485,-8.74575 -18.38613,-21.45667 -1.37028,-7.77127 -0.42646,-14.47385 1.1904,-23.6435 1.78957,-10.14915 14.99032,-15.59845 27.25911,-18.67528 -11.31515,-7.97173 -20.81685,-11.65638 -28.8647,-30.43592 l -0.006,-11.83238 16.37107,0.0478 c 2.01424,10.44399 17.30211,22.95736 24.62911,28.41533 l -2.70691,-28.70575 16.48188,-0.0694 z M 474.45992,254.40356 c 0,0 -1.02232,11.52667 -0.0828,16.85505 0.87863,4.98294 4.11537,8.57258 12.27879,8.57258 7.43298,0 13.7258,0.19399 20.50946,0.19399 14.664,0 30.70095,-20.36118 33.21079,-49.04874 0.88151,-10.07574 0.65861,-19.01126 -0.41167,-31.24454 -1.34422,-15.36443 -5.88285,-24.48253 -20.95271,-25.80097 -9.0143,-0.78865 -16.28554,-0.7183 -24.02374,0.64615 -11.7843,2.07789 -15.36474,7.27265 -16.54361,20.74719 -0.79738,9.11408 -0.73485,18.47085 -0.18333,27.4389 l 36.85852,0.002 -0.009,-12.55018 -19.4366,-0.0917 c -3.70534,-12.73873 0.39881,-23.61388 11.58399,-23.97876 11.50876,-0.37544 16.17347,16.96431 15.26302,27.37083 -1.74361,19.92953 -7.17754,30.98521 -17.03358,42.73117 -2.95739,3.52448 -10.29078,11.77382 -13.09734,-1.77241 z m -5.56932,25.62367 -69.98273,0.15701 1.42673,-14.41103 51.41497,-0.14196 3.70545,-34.35984 -28.31741,0.18095 1.98113,-13.17551 28.83977,-0.0583 3.47516,-33.22047 -44.26169,-0.3766 2.20947,-10.82393 60.5379,-0.23038 z m -144.83067,1.64747 35.28176,-107.49967 16.41867,0.3554 12.32846,47.35519 11.4831,-47.57191 16.10174,0.28349 -23.35045,107.0516 -19.05417,0.0887 c -2.41575,-21.46571 -5.85815,-42.81104 -10.43256,-64.02362 l -19.71183,64.62841 z m -66.30641,-24.38122 18.01422,-0.19025 c 1.25849,4.5266 6.03735,6.22852 9.95034,6.22852 9.74733,0 16.62408,-8.81006 22.72617,-16.08225 8.41754,-10.03164 17.27459,-23.63188 16.83589,-36.7199 -0.31693,-9.45524 -1.91827,-21.89335 -13.31651,-22.49909 -4.23222,-0.22492 -10.758,2.42051 -11.2276,5.97889 l -17.47408,0.0282 c 0.0987,-7.22628 8.34773,-16.70935 19.07815,-18.85588 6.37253,-1.27478 17.69588,-1.35403 24.95306,-0.46505 11.20308,1.37233 18.31872,4.48594 18.31872,21.64607 0,20.34285 -7.32929,41.03156 -18.81129,57.42957 -8.60061,12.28294 -14.64533,25.47633 -35.55957,27.30609 -6.69383,0.58563 -13.46251,0.31199 -20.15634,-0.27364 -12.85321,-1.12451 -18.32606,-4.84854 -21.01263,-7.54688 z m -90.59928,21.21443 16.53846,-0.0636 34.524,-26.47757 11.00775,27.90607 15.97221,0.16615 5.34628,-15.1641 -12.35972,-33.90734 28.99695,-57.73218 -16.20116,0.0247 -31.09581,58.05805 -45.14555,33.55506 z"
         sodipodi:nodetypes="ccsccccccccccccccsccccccccccccccccccccccccccccssscccccccccssssssssccccsssccccccccccccccccccccccccccccssssccsssssscccccccccccccc"
         inkscape:label="Top Text" />
      <rect
         style="fill:none;fill-opacity:1;stroke:#000000;stroke-width:9.99997;stroke-linecap:round;stroke-linejoin:round;stroke-miterlimit:4;stroke-dasharray:none;stroke-opacity:1;paint-order:fill markers stroke;stop-color:#000000"
         id="rect860"
         width="1014"
         height="1014"
         x="5"
         y="5"
         inkscape:label="Table Border" />
    </g>
    <g
       id="g975"
       inkscape:label="Button Plate"
       style="display:inline"
       transform="matrix(1.5,0,0,1.5,-7.3909766e-6,-7.3909766e-6)">
      <path
         style="display:inline;fill:#b7c4d0;fill-opacity:1;stroke:none;stroke-width:1px;stroke-linecap:butt;stroke-linejoin:miter;stroke-opacity:1"
         d="M 292,604 H 731 L 660,350 H 361 Z"
         id="path910"
         inkscape:label="Center Plate" />
      <path
         style="fill:#6a7279;fill-opacity:1;stroke:none;stroke-width:1px;stroke-linecap:butt;stroke-linejoin:miter;stroke-opacity:1"
         d="m 338,604.03177 32,-169.34802 h 282 l 34,168.47197 z"
         id="path1138"
         inkscape:label="Shadow"
         sodipodi:nodetypes="ccccc" />
      <path
         id="path892"
         style="font-variation-settings:normal;display:inline;opacity:1;vector-effect:none;fill:#372810;fill-opacity:1;fill-rule:evenodd;stroke:none;stroke-width:6;stroke-linecap:butt;stroke-linejoin:miter;stroke-miterlimit:4;stroke-dasharray:none;stroke-dashoffset:0;stroke-opacity:1;stop-color:#000000;stop-opacity:1"
         d="m 361,350 h 299 l 71,254 H 292 Z M 326,308 H 696 L 844,711 H 179 Z"
         inkscape:label="Warning Brown"
         sodipodi:nodetypes="cccccccccc" />
      <path
         id="path968"
         style="fill:#ff9800;fill-opacity:1;stroke:none;stroke-width:1px;stroke-linecap:butt;stroke-linejoin:miter;stroke-opacity:1"
         d="m 223.6041,589.75695 h 72.25538 L 291.98973,604 l -40.68054,40.36222 -47.64398,0.17639 z m 39.78357,-109.30446 h 62.16917 l -11.01367,40.53706 H 248.63339 Z M 292.9153,399.326 h 54.68312 l -8.19722,30.17078 h -57.46717 z m 24.17285,-66.41436 H 346.5368 L 361,350 l -2.32086,8.54219 H 307.75939 Z M 349.42451,308 342.2647,327.60542 326.15524,308 Z m 40.82326,0 h 29.21683 l -7.98893,42 h -30.69742 z m 70.10793,0 h 29.16341 l -1.59971,42 h -31.38881 z m 98.10127,0 4.52326,42 h -29.25264 l -2.1198,-42 z m 41.56661,0 h 31.28337 l 10.17142,42 h -33.72261 z m 72.23986,0 7.99375,18.42322 L 696,308 Z m 42.149,50.04354 H 662.20801 L 660,350 676.20582,331.91839 h 28.59443 z m -41.16882,40.20153 56.00106,0.11132 10.53969,28.64604 -58.63277,0.0506 z M 773.87016,519.6449 h -67.30141 l -11.30307,-41.17588 h 63.45471 z M 819.80712,644.49789 771.73985,644.26948 729.72484,604 l -4.18787,-15.25596 73.76993,0.0359 z M 844,711 H 801.09353 L 785.66202,657.28485 Z M 652.68337,604 h 48.10259 l 25.58293,107 h -54.08687 z m -109.64255,0 h 43.79577 l 10.14596,107 h -48.18019 z m -111.13465,0 -8.74682,107 h 50.63386 l 3.65098,-107 z M 295.70522,711 321.04627,604 H 365.3666 L 346.39339,711 Z M 179,711 h 41.47045 l 16.89522,-52.8574 z"
         inkscape:label="Warning Yellow"
         sodipodi:nodetypes="cccccccccccccccccccccccccccccccccccccccccccccccccccccccccccccccccccccccccccccccccccccccccccccccccccc" />
      <path
         id="path912"
         style="font-variation-settings:normal;display:inline;opacity:1;vector-effect:none;fill:none;fill-opacity:1;fill-rule:evenodd;stroke:#261802;stroke-width:6;stroke-linecap:butt;stroke-linejoin:miter;stroke-miterlimit:4;stroke-dasharray:none;stroke-dashoffset:0;stroke-opacity:1;stop-color:#000000;stop-opacity:1"
         d="M 731,604 844,711 M 660,350 696,308 m -370,0 35,42 M 179,711 292,604 m 69,-254 h 299 l 71,254 H 292 Z M 326,308 H 696 L 844,711 H 179 Z"
         inkscape:label="Warning Border" />
    </g>
  </g>
</svg>
