<?xml version="1.0" encoding="UTF-8" standalone="no"?>
<svg
   xmlns:dc="http://purl.org/dc/elements/1.1/"
   xmlns:cc="http://creativecommons.org/ns#"
   xmlns:rdf="http://www.w3.org/1999/02/22-rdf-syntax-ns#"
   xmlns:svg="http://www.w3.org/2000/svg"
   xmlns="http://www.w3.org/2000/svg"
   xmlns:sodipodi="http://sodipodi.sourceforge.net/DTD/sodipodi-0.dtd"
   xmlns:inkscape="http://www.inkscape.org/namespaces/inkscape"
   width="128"
   height="128"
   viewBox="0 0 128 128"
   version="1.1"
   id="svg8"
   inkscape:version="1.0.1 (1.0.1+r74)"
   sodipodi:docname="chat_button.svg">
  <defs
     id="defs2" />
  <sodipodi:namedview
     id="base"
     pagecolor="#ffffff"
     bordercolor="#666666"
     borderopacity="1.0"
     inkscape:pageopacity="0.0"
     inkscape:pageshadow="2"
     inkscape:zoom="5.6568542"
     inkscape:cx="63.204463"
     inkscape:cy="65.520694"
     inkscape:document-units="px"
     inkscape:current-layer="layer1"
     inkscape:document-rotation="0"
     showgrid="false"
     units="px"
     inkscape:snap-global="false" />
  <metadata
     id="metadata5">
    <rdf:RDF>
      <cc:Work
         rdf:about="">
        <dc:format>image/svg+xml</dc:format>
        <dc:type
           rdf:resource="http://purl.org/dc/dcmitype/StillImage" />
        <dc:title></dc:title>
      </cc:Work>
    </rdf:RDF>
  </metadata>
  <g
     inkscape:label="Layer 1"
     inkscape:groupmode="layer"
     id="layer1"
     style="display:inline">
    <path
       id="path1466"
       style="display:inline;opacity:0.5;fill:#000000;fill-opacity:1;stroke:#000000;stroke-width:6;stroke-linecap:round;stroke-linejoin:miter;stroke-miterlimit:4;stroke-dasharray:none;stroke-opacity:1;stop-color:#000000"
       d="m 26,9 h 80 c 7.756,0 14,6.244 14,14 v 47 c 0,7.756 -6.244,14 -14,14 H 74 L 38,120 V 84 H 26 C 18.244,84 12,77.756 12,70 V 23 C 12,15.244 18.244,9 26,9 Z"
       sodipodi:nodetypes="ssssscccssss"
       inkscape:label="shadow" />
    <path
       id="rect1463"
       style="display:inline;fill:#ffffff;fill-opacity:1;stroke:none;stroke-width:6;stroke-linecap:round;stroke-linejoin:round;stroke-miterlimit:4;stroke-dasharray:none;stroke-opacity:1;stop-color:#000000"
       d="m 22,4 h 80 c 7.756,0 14,6.244 14,14 v 47 c 0,7.756 -6.244,14 -14,14 H 70 L 34,115 V 79 H 22 C 14.244,79 8,72.756 8,65 V 18 C 8,10.244 14.244,4 22,4 Z"
       sodipodi:nodetypes="ssssscccssss"
       inkscape:label="bg" />
    <path
       id="path1480"
       style="display:inline;fill:none;fill-opacity:1;stroke:#c2a582;stroke-width:6;stroke-linecap:round;stroke-linejoin:round;stroke-miterlimit:4;stroke-dasharray:none;stroke-opacity:1;stop-color:#000000"
       inkscape:label="inset"
       sodipodi:type="inkscape:offset"
       inkscape:radius="-3.9178417"
       inkscape:original="M 22 4 C 14.244 4 8 10.244 8 18 L 8 65 C 8 72.756 14.244 79 22 79 L 34 79 L 34 115 L 70 79 L 102 79 C 109.756 79 116 72.756 116 65 L 116 18 C 116 10.244 109.756 4 102 4 L 22 4 z "
       d="M 22,7.9179688 C 16.346716,7.9179688 11.917969,12.346716 11.917969,18 v 47 c 0,5.653284 4.428747,10.082031 10.082031,10.082031 H 34 A 3.9182335,3.9182335 0 0 1 37.917969,79 v 26.54297 l 29.3125,-29.312501 A 3.9182335,3.9182335 0 0 1 70,75.082031 h 32 c 5.65328,0 10.08203,-4.428747 10.08203,-10.082031 V 18 C 112.08203,12.346716 107.65328,7.9179688 102,7.9179688 Z" />
    <path
       id="path1476"
       style="display:inline;fill:none;fill-opacity:1;stroke:#000000;stroke-width:6;stroke-linecap:round;stroke-linejoin:round;stroke-miterlimit:4;stroke-dasharray:none;stroke-opacity:1;stop-color:#000000"
       d="m 22,4 h 80 c 7.756,0 14,6.244 14,14 v 47 c 0,7.756 -6.244,14 -14,14 H 70 L 34,115 V 79 H 22 C 14.244,79 8,72.756 8,65 V 18 C 8,10.244 14.244,4 22,4 Z"
       sodipodi:nodetypes="ssssscccssss"
       inkscape:label="outline" />
    <path
       id="path1501"
       style="fill:none;stroke:#000000;stroke-width:6;stroke-linecap:round;stroke-linejoin:miter;stroke-miterlimit:4;stroke-dasharray:none;stroke-opacity:1"
       d="m 27.207103,36.648547 c 6.973004,8.511148 14.561797,10.491749 22.928118,10.491749 17.84489,0 17.571285,-9.9286 33.099932,-9.9286 6.652004,0 10.714327,1.685139 13.861619,5.431259 m -69.182565,12.09398 c 6.973004,8.511148 14.561797,10.491749 22.928118,10.491749 17.84489,0 17.571285,-9.9286 33.099932,-9.9286 6.652004,0 10.714327,1.685139 13.861619,5.431259 M 27.825819,18.294995 c 6.973004,8.511148 14.561797,10.491749 22.928118,10.491749 17.84489,0 17.571285,-9.9286 33.099932,-9.9286 6.652004,0 10.714327,1.685139 13.861619,5.431259"
       inkscape:label="lines" />
  </g>
</svg>
