<?xml version="1.0" encoding="UTF-8" standalone="no"?>
<svg
   xmlns:dc="http://purl.org/dc/elements/1.1/"
   xmlns:cc="http://creativecommons.org/ns#"
   xmlns:rdf="http://www.w3.org/1999/02/22-rdf-syntax-ns#"
   xmlns:svg="http://www.w3.org/2000/svg"
   xmlns="http://www.w3.org/2000/svg"
   xmlns:sodipodi="http://sodipodi.sourceforge.net/DTD/sodipodi-0.dtd"
   xmlns:inkscape="http://www.inkscape.org/namespaces/inkscape"
   version="1.1"
   id="svg885"
   width="2048"
   height="1390"
   viewBox="0 0 2048 1390"
   sodipodi:docname="shatter.svg"
   inkscape:version="1.0.1 (3bc2e81, 2020-09-07)">
  <metadata
     id="metadata891">
    <rdf:RDF>
      <cc:Work
         rdf:about="">
        <dc:format>image/svg+xml</dc:format>
        <dc:type
           rdf:resource="http://purl.org/dc/dcmitype/StillImage" />
        <dc:title></dc:title>
      </cc:Work>
    </rdf:RDF>
  </metadata>
  <defs
     id="defs889" />
  <sodipodi:namedview
     pagecolor="#ffffff"
     bordercolor="#666666"
     borderopacity="1"
     objecttolerance="10"
     gridtolerance="10"
     guidetolerance="10"
     inkscape:pageopacity="0"
     inkscape:pageshadow="2"
     inkscape:window-width="2560"
     inkscape:window-height="1403"
     id="namedview887"
     showgrid="false"
     showguides="true"
     inkscape:guide-bbox="true"
     inkscape:zoom="0.78310421"
     inkscape:cx="-16.262652"
     inkscape:cy="847.52451"
     inkscape:window-x="0"
     inkscape:window-y="0"
     inkscape:window-maximized="1"
     inkscape:current-layer="layer2"
     inkscape:document-rotation="0" />
  <g
     inkscape:groupmode="layer"
     id="layer2"
     inkscape:label="Layer 2">
    <path
       style="fill:#292f32;stroke:none;stroke-width:0.299766;fill-opacity:1"
       d="m 281.02821,82.499842 c 6.95412,13.686681 14.93937,27.334968 22.9666,40.130508 13.62815,21.72484 28.01588,43.0784 40.23468,65.66161 18.30225,33.82618 30.36876,70.76348 46.35158,105.65456 9.76621,21.32011 24.07391,40.03351 34.45162,60.88566 -15.4525,-5.03442 -28.76354,-13.56915 -42.50096,-21.90333 -18.56738,-11.26505 -37.22134,-23.24101 -54.18591,-36.88 -10.25529,-8.24463 -18.91134,-18.13377 -29.9143,-25.5696 -12.03428,-8.13301 -24.66392,-15.31811 -38.81638,-19.0596 -16.17033,-4.27453 -33.27344,-4.28886 -47.77405,-13.72792 -11.47293,-7.46804 -18.00782,-19.38553 -24.65378,-30.89529 -6.7881,-11.75632 -13.91061,-23.35743 -20.5082,-35.2182 -13.13248,-23.60931 -28.78624,-45.79471 -43.27312,-68.67825 -2.73235,-4.316035 -9.90733,-14.468471 -13.49965,-19.507398 l -5.51466,1.924471 c 3.4265,4.04394 15.73463,21.734317 22.94014,32.538527 14.1453,21.2109 28.04455,42.78652 41.1836,64.63791 11.82109,19.65891 22.25255,45.44039 40.93698,59.5808 17.45901,13.21338 41.29168,8.59384 60.91188,16.0959 24.8437,9.49938 45.8577,32.17152 64.89863,50.0934 23.08682,21.73139 40.9722,47.66154 62.92078,70.4477 15.5003,16.09173 32.6016,30.79681 48.94451,46.01345 35.05359,32.63889 70.66017,63.73475 109.88027,91.29687 16.37574,11.50799 33.42211,22.09671 50.76588,32.07541 8.86207,5.09649 17.80777,11.60052 27.46409,15.05965 v 0.59693 c -14.43971,0.002 -26.49668,10.9385 -38.81641,17.24556 -17.83941,9.13106 -38.10933,12.95731 -55.5373,23.05239 -4.42327,2.56674 -8.86566,5.62297 -12.43917,9.29999 -4.16052,4.2799 -8.28102,11.04895 -15.03091,10.63707 -9.01614,-0.55513 -18.3882,-9.50891 -26.2757,-13.56794 -13.08412,-6.72727 -26.6627,-12.50426 -39.36044,-19.98841 -11.42337,-6.73265 -21.68223,-14.48901 -34.68931,-17.97382 -36.4056,-9.75543 -75.78693,-18.43642 -113.46334,-18.25495 -14.88877,0.0717 -28.39628,14.51108 -43.59379,11.02509 -10.27261,-2.35664 -16.93172,-12.83196 -22.90108,-20.57637 -2.43288,-3.15591 -5.08673,-7.60536 -8.74982,-9.44387 -2.56904,-1.28933 -6.16284,-0.70376 -8.95701,-0.70376 v 0.59693 c 17.27089,5.88801 23.33104,29.51702 41.20509,33.61785 16.21869,3.72178 33.25432,-6.75652 49.56555,-6.75652 26.39277,0 51.4401,7.44476 77.03563,13.37394 10.09704,2.33872 20.54521,2.71599 30.45593,6.1429 12.84108,4.44048 22.78644,13.11906 34.63618,19.253 11.43054,5.91547 24.31757,8.45834 35.83052,14.1589 10.31025,5.10365 18.87792,15.41244 31.05312,15.10802 10.30904,-0.25669 19.20577,-15.11398 27.47008,-20.53401 20.96264,-13.7506 47.03352,-22.05911 69.86952,-32.30224 7.27956,-3.26393 19.87996,-11.30682 28.06723,-10.13805 5.51193,0.78613 11.76437,5.44031 16.72091,7.92229 11.41801,5.72087 22.93752,11.62738 34.63618,16.74535 39.13289,17.12202 79.04212,31.50774 119.43507,45.29656 19.95164,6.80486 43.52213,17.7404 65.03838,15.03041 12.70788,-1.59976 23.64814,-19.14317 31.20839,-27.97758 22.81208,-26.64463 40.85276,-57.00569 62.21372,-84.76239 10.89249,-14.15593 23.71981,-28.50644 43.38484,-26.15457 17.8615,2.13696 32.2235,15.54135 44.7881,27.29528 28.1867,26.37483 48.1383,62.75343 83.0074,81.6459 28.2583,15.31094 60.5535,10.79824 91.3678,12.14727 16.6254,0.72825 32.8328,4.84101 48.3713,10.48787 8.8441,3.21142 17.9033,7.41373 25.0754,13.62764 13.09,11.33547 11.5015,31.97095 14.0037,47.49083 1.0689,6.63774 3.8816,12.41589 6.5569,18.50446 1.9588,4.45301 4.6521,12.75615 8.7069,15.51988 v 0.59692 c -15.6222,0 -31.4831,-1.62958 -44.7881,-10.68484 -10.2775,-6.99589 -17.4197,-18.5761 -29.2616,-23.35145 -4.873,-1.96386 -10.3969,-1.8206 -15.5266,-2.54883 -8.3843,-1.18787 -16.7567,-2.87117 -25.0814,-4.36946 -12.2899,-2.22051 -24.8903,-4.4351 -37.0249,-7.24657 -8.3784,-1.93999 -16.6193,-5.25886 -25.0813,-6.71534 v 0.59693 c 19.4977,8.11212 41.2409,12.61885 62.1062,16.02725 14.4815,2.36976 29.5124,2.64434 42.9966,8.97765 9.3458,4.38735 13.4425,11.50263 19.665,19.16705 6.4316,7.9211 14.1472,15.94965 22.7345,21.54874 9.8594,6.42284 24.0483,-0.84761 33.2985,7.51522 3.1651,2.85327 3.7682,9.51486 6.1151,13.31723 -2.2693,1.18191 -4.4012,2.76374 -5.1178,5.37226 -0.6091,2.23249 0.3762,5.10367 -1.6422,6.80488 -3.1889,2.68016 -8.1873,-0.42381 -11.7525,0.6984 -3.8816,1.21771 -6.0733,5.31854 -10.152,6.74517 -8.4799,2.97267 -24.6633,0.8894 -32.7849,-2.66225 -2.2155,-0.96701 -3.0635,-3.64717 -4.1563,-5.61701 -2.968,-5.34839 -6.7481,-11.28772 -8.1276,-17.31063 -0.5732,-2.5011 0.2747,-5.48567 -1.272,-7.70025 -1.69,-2.3996 -4.8251,-3.02638 -7.4049,-4.0053 -6.7183,-2.54885 -13.8963,-4.38736 -20.9012,-5.99306 -4.5743,-1.05059 -12.9407,-5.25886 -16.7209,-1.40277 10.6298,0.46558 21.4684,4.78729 31.6503,7.59878 3.2725,0.90133 9.501,1.82656 11.3284,5.01411 1.3974,2.44138 1.0272,6.69742 1.5766,9.47308 1.3436,6.73325 5.9777,18.88053 12.1883,22.43817 2.9262,1.67136 5.7628,1.65944 8.9457,2.26231 7.9664,1.49231 20.1188,5.07979 28.0673,2.23249 3.8697,-1.38486 4.8311,-6.01694 8.3843,-7.27645 4.0727,-1.43858 8.9636,2.58468 12.9826,-0.39992 3.5054,-2.60855 1.3436,-7.13317 3.4756,-10.27895 2.1677,-3.18753 4.7535,-2.29216 6.5688,0.57901 2.1798,3.44422 1.4333,8.02855 1.4333,11.93241 v 24.47365 c 0,3.11592 1.0271,8.57175 -1.0391,11.16237 -1.9468,2.42946 -6.342,2.09519 -9.1129,2.7697 -3.5711,0.8715 -6.8616,3.06219 -9.2921,5.79011 -5.4163,6.07663 -7.9901,13.99774 -13.0841,20.27135 -7.6557,9.43131 -18.584,15.88997 -28.9808,21.88899 -73.3511,42.31555 -145.0062,87.68731 -220.3577,126.43924 -19.1694,9.8611 -38.2014,20.0743 -57.3289,30.0429 -15.96254,8.3151 -31.49505,16.9226 -48.96841,21.7457 -16.98367,4.6918 -35.13781,2.6921 -52.55144,3.4562 -27.25508,1.1939 -53.94882,4.9126 -80.61866,10.4162 -18.35717,3.7845 -36.75018,9.0374 -52.55143,19.6207 -27.2969,18.2836 -50.36578,42.7931 -74.64694,64.7478 -35.79468,32.3589 -72.74789,63.7449 -110.47743,93.8176 -13.0029,10.3685 -25.79978,20.9817 -38.69936,31.4636 -6.07984,4.9425 -19.08321,16.551 -22.83841,17.8964 h 4.54261 c 5.42456,-4.2128 11.6606,-9.7843 16.97545,-14.0702 13.94165,-11.2459 27.83552,-22.6172 41.81122,-33.7915 36.06343,-28.8312 71.41024,-58.9995 105.70005,-89.9436 19.9815,-18.0329 39.18068,-37.0926 59.96835,-54.1943 36.1112,-29.7086 86.68599,-39.8263 132.32212,-42.9482 21.99994,-1.5043 43.83864,0.173 65.68929,-3.0384 -2.44842,5.2469 -7.50052,10.1476 -10.92234,14.923 -11.30452,15.7885 -24.75889,31.0159 -33.65083,48.3504 -7.99021,15.5736 -13.98583,32.9439 -19.47986,49.5442 -3.29043,9.9507 -5.38055,20.9459 -12.15849,29.249 -13.81863,16.9406 -35.66332,26.2943 -50.98683,41.7842 -8.80235,8.9001 -13.98584,20.2833 -20.05314,31.0399 -3.81597,6.7749 -5.64929,12.5173 -12.79152,16.1167 l -0.46714,6.9788 h 38.65937 c 1.92887,-11.3952 5.0194,-24.8386 7.00201,-36.2278 1.59448,-9.1746 3.71443,-17.0897 7.33333,-25.6675 0.94949,-2.2503 0.89574,-5.0857 2.25731,-7.1093 2.57383,-3.8143 8.42018,-6.5063 12.09879,-9.2343 9.35176,-6.9242 18.61991,-14.1231 23.73174,-24.8437 8.98748,-18.8507 13.12591,-39.9875 21.98202,-59.0949 8.9636,-19.3283 21.46846,-34.9615 34.08677,-51.932 5.32681,-7.1689 10.4028,-18.3909 17.13893,-24.0856 4.35938,-3.689 14.03364,-5.4081 19.50973,-7.3541 10.96414,-3.9038 22.04174,-9.4849 32.24744,-15.0602 50.5689,-27.6134 102.0692,-53.57937 151.6826,-82.97761 34.5943,-20.50413 69.4694,-40.5009 103.9085,-61.26769 15.3594,-9.26418 34.1584,-17.69266 47.1768,-30.13842 7.3094,-6.98394 9.7161,-16.22422 15.8372,-23.84687 2.0662,-2.57272 4.7893,-4.73953 8.0498,-5.48568 4.2818,-0.97298 9.74,-0.0358 12.1108,-4.67984 2.305,-4.51867 1.6243,-10.01033 1.6243,-14.91102 0,-9.96256 -0.5673,-19.9311 -0.5971,-29.84592 8.0498,7.80171 11.9613,20.90407 16.1236,31.03976 l 1.7915,-0.59693 c 7.5723,39.01459 7.3334,79.5931 17.0734,118.18983 7.4885,29.66088 25.5591,55.05379 31.6263,85.35929 4.8312,24.1454 5.3507,49.0309 8.8861,73.421 4.5206,31.2129 11.7702,61.7751 18.6378,92.5224 6.4494,28.8549 14.6486,57.3996 21.7908,85.9562 1.499,5.999 3.3025,11.9145 4.8313,17.9075 0.5374,2.0952 2.5841,9.9634 2.5841,9.9634 h 4.3023 c -1.6243,-6.7512 -3.0288,-15.1984 -4.9636,-21.9017 -3.0575,-10.5954 -6.975,-19.955 -4.0011,-31.0398 2.2992,-8.5896 6.563,-16.1884 9.5071,-24.4737 2.1438,-6.0467 2.7171,-12.3621 4.7176,-18.5044 1.8931,-5.8438 7.0228,-10.1058 5.2074,-16.7137 -2.8903,-10.4819 -6.9332,-20.725 -10.355,-31.0398 -2.6813,-8.0703 -4.7058,-16.8987 -8.6172,-24.4736 -11.7763,-22.8261 -29.1242,-42.1663 -38.7328,-66.258 -6.6944,-16.7793 -6.8795,-33.9049 -10.1699,-51.335 -1.4451,-7.6763 -3.4039,-15.38846 -6.2286,-22.68284 -1.8392,-4.7455 -4.7475,-9.32983 -5.8165,-14.32604 -5.1417,-24.10953 -6.2882,-49.15026 -10.6953,-73.42097 -3.9235,-21.57858 -15.8192,-41.27093 -19.4142,-62.67642 -1.5347,-9.16269 -0.018,-19.92512 -0.018,-29.24898 h 0.5971 c 5.088,22.17551 17.8198,44.45846 27.2849,65.06408 6.557,14.27233 13.2454,30.9144 25.2905,41.52164 14.2307,12.53529 36.7621,11.96821 49.9477,26.03162 8.5694,9.15076 11.4478,22.13969 16.2371,33.32594 3.6608,8.54191 9.8476,17.00621 16.7986,23.17237 24.3588,21.6025 57.3229,33.2245 85.9933,48.0162 18.387,9.4849 36.0036,20.707 54.9401,29.0877 38.7209,17.1376 79.6573,29.9176 120.0322,42.5006 20.3757,6.3512 41.9531,14.614 62.9438,18.5716 v -4.1366 c -18.9424,-3.9039 -38.3998,-11.0147 -56.972,-16.4167 -40.4168,-11.7474 -80.8337,-24.3722 -119.435,-41.3725 -19.5038,-8.5896 -37.8371,-19.0774 -56.7317,-28.8609 -25.5352,-13.2218 -54.8207,-22.4621 -78.2299,-39.3728 -9.6683,-6.97792 -18.632,-15.78847 -24.2454,-26.41362 -6.5151,-12.3383 -9.8056,-27.7567 -19.4023,-38.20276 -14.0096,-15.25127 -36.2604,-16.1168 -51.9004,-28.92666 -8.7069,-7.13915 -12.9349,-17.82997 -17.5032,-27.78061 -7.6259,-16.60028 -14.8698,-33.38563 -22.1612,-50.14112 -3.8637,-8.86425 -11.1971,-19.69235 -12.6004,-29.249 -1.1168,-7.58085 2.7171,-16.81519 3.2427,-24.47366 0.2209,-3.16962 0.5255,-7.1093 -0.7047,-10.09389 -0.8779,-2.13099 -3.0874,-3.64717 -3.3263,-6.02886 -0.424,-4.31573 2.4783,-10.18344 3.6607,-14.32007 0.7644,-2.68614 1.0092,-7.91515 3.5771,-9.53279 8.1455,-5.12753 20.722,5.16334 28.4972,6.00499 41.235,4.48286 77.7522,26.60465 112.2689,47.75348 25.6427,15.71088 53.8772,27.86413 82.4103,37.17009 13.2333,4.31573 26.628,9.68799 40.6079,11.0251 11.1552,1.06847 22.4717,1.23561 33.4417,-1.36697 11.233,-2.65626 23.1347,-8.12404 34.6362,-9.21641 39.8376,-3.76654 80.9784,2.9633 120.8698,2.9633 v -8.30866 l -102.9545,-2.47426 c 5.2253,-5.82594 15.6042,-8.07035 22.0955,-12.81584 17.6584,-12.92925 32.767,-27.3508 51.9543,-38.2565 6.3001,-3.58151 13.1557,-6.20198 19.7068,-9.29999 2.2036,-1.04461 9.1979,-4.02768 9.1979,-4.02768 v -6.39583 l -40.8482,20.65469 c 8.9875,-14.55883 16.5417,-29.78026 25.8099,-44.17195 6.2285,-9.67606 15.0383,-24.37751 15.0383,-24.37751 v -8.27243 c -9.0413,15.4781 -21.7685,31.28896 -31.1262,46.48053 -4.1803,6.79294 -4.5445,15.15577 -8.9457,21.98451 -15.7057,24.37218 -41.7127,46.53575 -68.2572,58.47413 -4.0787,1.83253 -8.7904,1.11622 -13.1378,1.91608 -8.4023,1.54603 -16.7329,4.11278 -25.0814,5.99904 -13.9381,3.14577 -27.2013,7.19288 -41.8023,5.73639 -17.0732,-1.70719 -33.5015,-7.72412 -49.5655,-13.49631 -29.0526,-10.44012 -55.8538,-22.3188 -81.2159,-40.14873 -23.6302,-16.61226 -44.1789,-36.64483 -70.4666,-49.36517 -6.7541,-3.2711 -14.1591,-6.45864 -21.4983,-8.10614 -2.2693,-0.50738 -6.6645,-1.20577 -8.5396,0.54917 -3.9951,3.74268 -0.096,11.47875 -6.3898,13.58586 -9.1786,3.06815 -18.0347,-6.96605 -27.3446,-4.20231 -2.6157,0.77599 -3.201,4.73356 -3.9175,6.972 -2.0365,6.34524 -3.8936,12.54724 -5.1656,19.1014 -6.2703,-4.61418 -7.3572,-11.17432 -11.3284,-17.31064 -3.4696,-5.3663 -7.5483,-10.02226 -9.8893,-16.1168 -9.3039,-24.2289 -6.9571,-52.82129 -8.0678,-78.1963 -0.7106,-16.29588 -0.4777,-32.64545 -1.1944,-48.94731 -1.3197,-30.12407 -2.3588,-64.39375 8.6053,-93.11925 6.8318,-17.89979 18.0586,-35.23968 28.3002,-51.33497 15.4549,-24.28086 32.2057,-47.48963 49.5596,-70.43638 13.6395,-18.0329 28.0433,-35.14535 38.1595,-55.5134 4.4728,-8.99735 8.6411,-19.2906 10.2713,-29.249 2.6455,-16.10904 1.3377,-33.07046 5.2253,-48.9473 5.5,-22.46442 21.0087,-42.41583 34.2242,-60.88568 4.8132,-6.72727 9.1905,-14.29798 14.6965,-20.46594 18.793,-21.06226 41.7426,-37.97654 60.7028,-58.92419 8.4262,-9.31133 19.9291,-21.083851 27.9001,-31.177328 h -3.2358 c -1.8317,2.486832 -3.6325,4.354889 -5.7577,6.703673 -4.5744,5.065449 -9.4473,9.924961 -14.1291,14.899675 -17.145,18.21616 -34.672,40.47943 -55.6389,54.34285 l 35.3767,-45.36579 23.2753,-30.580408 -4.1482,-0.02675 c -2.7541,3.729104 -7.3818,9.173907 -10.3129,13.296497 -8.7008,12.229061 -18.0824,24.004471 -27.3446,35.815101 -26.8967,34.29773 -59.2696,70.24296 -74.623,111.62372 -7.5842,20.43849 -6.6107,41.73176 -11.4299,62.67643 -7.6917,33.4531 -31.2621,61.07131 -51.6318,87.747 -21.9462,28.75058 -43.2296,58.41861 -61.6584,89.53775 -8.5217,14.38754 -18.4168,30.30375 -24.1975,45.96271 -13.4604,36.42098 -22.9852,75.72507 -18.2676,114.60831 1.3556,11.1803 2.9262,23.89466 6.1389,34.62128 4.9328,16.45704 12.0391,32.88422 13.8904,50.14114 0.6927,6.51239 -1.4154,12.66063 -1.69,19.10139 -6.766,-14.27829 -15.443,-28.70581 -19.1694,-44.17195 -4.1086,-17.04801 -0.2687,-33.86319 -14.8696,-47.05508 -50.4613,-45.58069 -128.3748,-6.33928 -180.9441,-47.06105 -30.5217,-23.63558 -49.1715,-59.2519 -80.0215,-82.19565 -13.2693,-9.86705 -31.095,-19.66847 -48.3713,-15.29603 -16.33273,4.13187 -26.53249,20.3973 -35.62746,33.41548 -16.50593,23.6344 -34.02707,46.7817 -51.33918,69.84841 -10.61181,14.14697 -22.45976,31.97691 -42.02323,32.80661 -12.9169,0.54919 -26.83708,-6.10645 -38.81641,-10.24311 -20.57269,-7.11527 -41.13344,-14.10516 -61.50906,-21.83527 -94.89117,-35.99235 -187.76748,-83.50347 -264.5487,-150.64963 -6.35217,-5.55491 -13.97332,-10.90748 -19.51212,-17.23958 -5.17572,-5.91726 -8.84117,-13.61571 -12.98855,-20.27135 -7.89468,-12.67079 -15.62451,-25.40723 -23.30477,-38.20278 C 425.35757,351.64045 403.0686,312.81093 385.12348,272.45745 370.8038,240.25668 360.74975,206.63586 344.5681,175.15975 332.2872,151.27168 317.99977,128.47179 304.3967,105.32031 301.05371,99.63108 294.79026,89.26514 290.96486,82.499842 m 615.40169,0 c 0.38815,18.670998 8.05136,38.538528 11.56277,56.844808 3.7622,19.59385 8.70681,38.96265 12.73775,58.49801 4.1444,20.07435 7.64981,40.79579 14.11724,60.28875 10.58194,31.86469 27.03411,62.0019 36.04549,94.3131 2.09609,7.50505 4.17425,16.07202 2.79477,23.87673 -2.41258,13.61392 -10.45654,25.05385 -9.089,39.39661 1.43918,15.13009 7.49455,34.93943 17.19865,46.95359 3.85177,4.77535 11.97338,7.43105 16.68508,11.79809 8.9457,8.29001 16.2133,18.21915 23.6899,27.80148 6.1629,7.90617 12.3496,15.83028 18.3273,23.87673 3.0815,4.15037 6.4495,10.2288 11.1852,12.53528 -13.0901,-21.01033 -29.1601,-42.16988 -46.0363,-60.28875 -4.4011,-4.72878 -8.7666,-9.18298 -14.2784,-12.60393 -2.6037,-1.61526 -7.11839,-2.50288 -8.56952,-5.36809 -2.35288,-4.65297 -3.15308,-10.55768 -5.25515,-15.4554 -5.16556,-12.01896 -13.08412,-23.96807 -11.22092,-37.60586 2.15581,-15.7485 15.9207,-27.17769 10.88053,-44.17196 -8.49184,-28.64073 -20.96682,-56.01421 -30.89786,-84.16549 -14.27846,-40.46747 -23.93478,-82.27742 -32.87451,-124.15901 -3.35013,-15.68462 -6.46141,-31.38775 -9.4055,-47.15655 -1.49293,-7.995118 -4.27145,-17.059011 -4.01466,-25.208138 M 92.604874,96.167759 92.804336,96.565312 92.604874,96.167759 M 1338.711,552.41214 c 0,24.61454 5.2194,48.42203 7.6617,72.82404 1.6304,16.26007 0.233,32.63353 1.3497,48.94731 1.0212,14.92297 4.6819,29.90561 5.3208,44.76888 h -0.5971 c -2.7351,-9.98643 -8.0679,-19.5073 -11.6211,-29.249 -4.3474,-11.92046 -7.3691,-24.28861 -11.0835,-36.41202 -3.3024,-10.77438 -7.6857,-21.96659 -7.5484,-33.42743 0.1852,-15.30498 4.8611,-31.92378 9.0891,-46.55962 1.9766,-6.84668 5.1954,-13.84971 6.2345,-20.89216 h 1.1943 m 145.1136,16.1168 c -11.406,10.90988 -26.0248,18.0544 -35.2094,31.03975 -4.5923,6.50044 -6.7183,14.24844 -9.7758,21.48906 -4.4848,10.59532 -10.0684,20.91603 -17.3957,29.84591 -3.5473,4.32171 -8.2709,8.28524 -13.4604,10.46997 -2.538,1.06849 -7.6617,1.1401 -9.5248,3.02039 -2.3828,2.4056 -3.4279,6.44077 -5.4821,9.19257 -10.17,13.57987 -19.4381,39.25334 -17.2405,56.70723 h 0.5972 c 1.7975,-4.92458 1.266,-10.37444 2.3947,-15.51987 4.6161,-20.95781 12.5645,-47.22818 36.4216,-51.33499 v 0.59691 l -2.9858,3.58153 c 6.9511,-0.51933 12.0689,-7.99871 16.697,-12.48158 3.0397,-2.9428 8.1037,-4.60223 10.3849,-8.07631 3.4397,-5.23496 2.9143,-12.42783 4.7834,-18.24181 3.9354,-12.24878 8.9756,-22.89779 17.2941,-32.83051 5.6015,-6.67773 11.7346,-12.92627 17.2465,-19.6983 1.7259,-2.12146 5.3148,-4.95802 5.2551,-7.75995 M 115.09869,749.39519 h 0.59717 c -0.0424,-15.38855 -4.93924,-31.44565 -7.57159,-46.55962 -4.77919,-27.4463 -7.25568,-55.90738 -13.926723,-82.97165 -3.518556,1.16995 -2.059064,4.82908 -1.844673,7.75994 0.575676,7.84948 1.909164,15.53181 3.268935,23.2798 4.445381,25.32129 9.587651,50.7321 15.364121,75.80864 1.70315,7.39582 1.97844,15.48407 4.11276,22.68289 m 1023.55861,-97.8946 11.1791,20.29524 6.139,7.16302 c -2.2992,-7.27048 -7.0467,-14.17085 -10.6178,-20.89217 -1.6721,-3.14574 -2.8366,-6.26763 -6.7003,-6.56609 m -1048.639982,14.92298 0.05374,71.63018 11.121802,88.94084 2.13251,32.23358 9.88027,39.39662 -0.34159,8.89408 -3.53826,4.85891 -0.51715,9.50294 -6.65074,7.78382 1.49293,22.08599 2.49022,34.62125 C 99.388196,981.57852 92.157203,969.22298 88.69,961.80923 v 302.56317 c 0,8.2262 3.865163,22.4548 11.38062,27.1465 9.50141,5.9343 19.07171,5.6631 29.32831,5.6631 H 293.8944 c -7.2012,-13.5403 -22.90905,-20.7914 -35.47363,-24.8863 l 0.59718,-2.3877 c -5.08256,2.2921 -12.20387,-3.289 -12.2815,-8.9538 -0.10878,-7.8913 4.52419,-16.6719 2.79298,-24.4736 -2.38272,-10.7385 -8.56767,-23.8231 -14.86071,-32.8305 -2.39168,-3.4204 -6.37126,-5.9214 -8.32879,-9.5507 -4.14382,-7.6943 -2.64372,-16.9226 -6.47101,-24.4736 -3.02708,-5.9753 -8.76116,-9.4195 -11.0137,-16.1169 7.34465,2.4415 14.92879,3.0622 22.69265,2.2862 3.38718,-0.3402 8.0368,-2.8114 11.34634,-1.7907 4.02974,1.2476 6.22615,6.4109 8.36225,9.6521 3.79446,5.7544 8.0332,11.0371 13.73325,14.9886 9.20366,6.3871 17.8615,4.7157 28.06723,7.4437 10.0427,2.692 16.89471,10.9355 24.48659,17.4598 2.70221,2.3221 6.339,3.671 8.37597,6.6915 3.96704,5.8856 3.31791,15.8004 4.64185,22.659 2.50336,12.971 7.41215,24.9571 10.8668,37.6058 h -0.59716 c -2.57921,-7.7778 -9.98897,-12.7263 -14.41284,-19.2088 -6.94396,-10.1834 -4.64185,-23.1068 -12.14655,-32.7291 -2.01009,-2.5786 -2.94825,-5.5811 -6.28527,-6.5601 1.49174,4.8948 7.3996,7.6585 9.18874,12.5412 3.60276,9.8433 1.30542,19.8655 7.97944,28.6462 6.11151,8.0405 12.19015,16.5286 18.46228,24.4199 3.59679,4.5247 9.45163,13.6166 9.88936,19.5678 h 6.63301 l -7.1473,-20.7079 -6.54685,-31.0397 -7.17982,-11.9384 -3.21161,-10.7445 h -0.59719 c 0.83248,10.1893 7.55966,15.9914 10.53418,25.0705 2.20239,6.7213 2.30689,13.5322 3.49646,20.2952 1.28872,7.3242 4.02018,14.2664 5.67617,21.4892 h -0.59719 c -7.36555,-17.9434 -14.82907,-35.4929 -19.77607,-54.3197 -1.28511,-4.8947 -2.49261,-9.867 -2.86344,-14.9229 -0.28127,-3.8323 0.11654,-9.1269 -1.89784,-12.5114 -2.15161,-3.6174 -6.52413,-4.8112 -9.17081,-7.8972 -9.00839,-10.488 -17.71938,-20.6713 -27.80091,-30.3056 -6.61788,-6.3273 -14.68513,-11.4309 -19.85667,-19.1253 -5.85054,-8.703 -3.00857,-18.3493 -4.20112,-28.0551 -0.78887,-6.4169 -4.55946,-11.9623 -8.00573,-17.3107 -5.82068,-9.0314 -11.85336,-18.0925 -18.86659,-26.2644 -5.42414,-6.3154 -12.30179,-12.195 -16.89228,-19.1014 -7.55547,-11.3653 -9.03527,-24.605 -17.43037,-35.8151 -8.69426,-11.61 -22.57322,-19.4296 -29.76441,-32.23354 -25.22768,-44.93006 -29.98297,-94.40862 -40.55299,-143.85734 -3.81236,-17.83591 -12.4738,-34.33474 -16.34289,-51.93188 -1.51085,-6.87649 -0.67063,-14.48722 -0.67063,-21.48907 h -0.59717 c -1.7772,7.46148 -2.79359,16.30781 -1.1209,23.87674 1.02535,4.63805 4.12767,8.74485 5.8977,13.1322 3.33165,8.24941 5.89114,17.03606 8.07739,25.66749 7.33213,28.93263 10.79454,58.65917 17.31152,87.74699 4.00212,19.84715 12.10623,40.18204 16.50151,50.19924 -6.93253,-8.78759 -16.92367,-26.11377 -22.62196,-40.05163 -5.07395,-12.41072 -6.88603,-26.41362 -10.06598,-39.39661 -8.83462,-36.07177 -16.51847,-72.251 -23.75564,-108.63913 -4.77024,-23.98418 -8.38136,-48.11758 -12.366907,-72.22711 -2.585765,-15.63928 -6.389781,-32.49029 -6.52116,-48.35038 H 90.017318 M 1284.9653,726.7123 c 6.2762,6.25571 13.9679,11.36532 22.6926,13.45454 6.8974,1.65943 13.962,1.68928 20.9012,2.98459 2.0124,0.37608 5.0699,0.16109 6.7481,1.47441 2.6812,2.10711 5.267,9.29401 6.3897,12.5293 -4.5505,0.20295 -9.1906,-3.93966 -13.7351,-4.96635 -5.4462,-1.22967 -11.3403,0.66257 -16.7209,-0.74019 -6.8735,-1.79076 -13.6633,-9.14478 -18.5124,-13.99176 -2.6813,-2.68017 -7.6259,-6.69742 -7.7632,-10.74454 m 214.9831,46.55964 -17.9153,-8.715 -62.7034,-21.13091 c 0.4897,-2.85327 1.702,-10.71469 4.019,-12.51738 4.9566,-3.8561 17.8794,1.76091 22.8539,3.46212 15.3892,5.27078 26.7654,14.9946 38.8164,25.59586 4.7595,4.19036 11.0895,8.32701 14.9294,13.30531 m -164.2232,-32.83051 -0.5973,0.59691 0.5973,-0.59691 m 43.5938,100.8792 c 6.7063,17.40614 14.5173,36.61498 18.2078,54.91649 1.7856,8.86424 1.5706,17.9732 2.8187,26.86133 0.5076,3.63522 1.9527,7.02572 2.2095,10.74452 0.2628,3.8143 -0.8002,7.55102 -0.4419,11.34145 0.5375,5.74833 2.6396,11.09074 3.4816,16.7137 h -0.5972 c -14.4278,-27.37467 -18.5542,-58.50395 -21.5998,-88.94082 -0.7107,-7.13317 -1.4332,-14.40961 -2.55,-21.48906 -0.4896,-3.10397 -2.1737,-7.10332 -1.5287,-10.14761 M 181.4389,1001.8916 c 7.8857,8.4763 17.36346,15.8602 24.40714,25.0706 9.17739,12.0041 10.75393,27.0166 20.03942,38.7997 9.96328,12.6428 23.05842,21.8939 29.15617,37.2764 -16.81681,-21.7672 -37.76308,-39.247 -52.65143,-57.5716 -2.71177,-3.3905 -3.79027,-7.7361 -6.27512,-11.3175 -7.27181,-10.476 -15.21304,-20.4982 -22.42215,-31.0636 -6.75047,-9.89103 -12.48826,-20.50229 -17.08353,-31.54529 -1.45293,-3.49197 -3.65626,-8.1804 -4.0957,-12.32088 7.84761,13.88951 18.01062,30.9428 28.9252,42.67217 z m 20.25021,48.9474 c 12.98498,17.5076 29.40432,33.0215 44.24472,48.9472 5.67198,6.0886 13.24058,11.8906 17.75761,18.8508 3.85954,5.9393 2.07936,13.2933 2.54636,19.949 0.4025,5.7424 2.97094,10.9714 6.37187,15.5199 9.8922,13.2277 27.90361,20.4026 35.37666,35.8151 -5.05449,-2.8175 -9.71425,-6.787 -15.52655,-8.0465 -8.68712,-1.8863 -17.24105,-0.6746 -25.08138,-5.8976 -5.53103,-3.6889 -10.08867,-9.2104 -13.73263,-14.708 -2.63834,-3.9814 -4.44538,-8.8583 -8.96242,-11.1087 -5.13333,-2.5548 -10.73602,2.0295 -15.52417,-0.4238 -6.14434,-3.1457 -11.77809,-10.8102 -16.29393,-15.9257 -7.19597,-8.154 -14.72037,-15.7886 -21.32811,-24.4738 -2.97693,-3.9157 -9.48136,-10.5475 -9.96388,-15.5198 -0.4001,-4.1188 2.02263,-8.8285 3.50124,-12.5353 4.22621,-10.5953 11.03281,-20.5161 16.61461,-30.4428 m -19.10961,49.5442 c 7.38049,11.9504 16.32319,24.3483 26.02251,34.5197 4.25069,4.4591 14.03004,11.1266 15.77976,16.8153 -14.37102,0 -25.75736,-6.2438 -32.39496,-19.6983 -2.01548,-4.0829 -2.69505,-8.8643 -4.28594,-13.1323 -1.71807,-4.6081 -6.78928,-13.6992 -5.12137,-18.5044 m 12.54068,38.2028 c 1.95814,5.5991 6.75107,9.0015 10.66972,13.1859 2.25435,2.4056 2.87782,5.6468 4.73742,8.3032 2.42035,3.4561 5.99741,5.9095 8.19383,9.5507 2.35287,3.8978 1.67329,7.6703 2.33974,11.9383 0.90531,5.7901 3.04021,11.616 4.51523,17.3106 6.07925,0.5551 9.6856,8.9717 12.26598,13.7291 3.97601,7.3302 9.18875,16.5705 9.77159,25.0706 0.4873,7.1093 -1.77301,14.4335 -2.33077,21.4891 -4.00944,-2.3101 -3.58306,-7.2824 -3.58306,-11.3415 0,-7.0854 0.49208,-12.0457 -5.37457,-16.7137 l 4.18023,18.5045 c -5.6248,-2.7518 -7.25747,-12.3025 -10.77423,-17.3107 -8.02068,-11.425 -22.2233,-17.9075 -28.04218,-31.0397 10.72229,1.0983 21.62132,15.6572 29.85876,22.086 -2.21252,-6.3274 -8.83818,-9.4074 -13.68127,-13.6098 -2.69388,-2.3399 -4.7828,-5.3543 -7.81704,-7.3002 -3.72458,-2.3877 -8.01647,-2.9847 -10.96593,-6.6498 -3.89716,-4.8469 -10.92113,-16.833 -10.84768,-23.1783 0.0406,-3.492 1.89663,-7.3122 2.58458,-10.7445 1.55265,-7.748 2.50812,-15.3826 2.50812,-23.2798 h 1.79153 m -8.36046,40.5904 c 0,0 0.73848,11.5387 0.59778,17.3106 -0.0584,2.3953 -0.59778,7.1631 -0.59778,7.1631 l -2.72502,-8.7266 c 0,0 -0.19089,0.753 -0.26085,0.9667 -2.21302,6.7583 4.48897,14.0215 8.57723,18.7312 4.27068,7.1178 6.08179,11.2336 15.90697,15.2931 5.08986,2.103 5.43159,4.0026 8.95754,9.5507 -1.9014,-4.0173 -2.9764,-8.284 -8.31709,-10.1752 -17.54483,-6.2129 -20.34733,-27.6456 -20.34733,-42.3536 2.52605,1.528 3.04381,4.5903 4.2519,7.163 2.26807,4.829 4.68364,9.7656 7.4617,14.326 4.01183,6.584 9.57333,11.5205 15.00703,16.869 2.31165,2.2742 5.4946,4.4231 6.63519,7.6047 1.84947,5.1633 -6.127,7.7838 -6.43753,12.5353 -0.41266,6.3034 9.2383,10.9952 12.4953,15.5198 -18.06457,-4.9365 -43.25641,-12.0279 -47.17686,-32.8305 2.75119,2.3339 4.36893,5.3902 7.76327,7.0496 4.60243,2.2504 10.16095,1.928 14.92939,3.9218 3.11906,1.3072 7.63846,4.5903 10.74914,2.1609 l -13.13784,-4.3277 -13.73444,-4.274 -7.1667,-5.7244 c -1.17704,-9.109 -1.59267,-17.7166 0.0113,-26.8613 0.37263,-2.131 1.80825,-3.88 2.11639,-5.9692 0.78408,-5.3186 0.58045,-9.867 3.24684,-14.923 h 1.19434 m 80.61867,19.1014 v 0.5969 c 10.98624,5.2291 19.88235,8.9538 32.24746,8.9538 v -1.1938 l -17.31807,-2.1191 -14.92939,-6.2378 m -39.41356,26.8613 c 1.01579,3.0622 2.65803,5.4499 5.97176,5.9692 l -5.97176,-5.9692 m 32.84464,13.7291 c -3.27014,8.6494 -8.14369,20.0028 -8.36045,29.249 h 0.59717 c 3.11187,-5.9035 3.2325,-12.0338 5.58477,-17.9075 1.34664,-3.3607 4.20471,-7.7898 2.17851,-11.3415 m -2.98588,22.086 2.3887,7.76 h 0.59718 c 0.76857,-3.1518 -0.58284,-5.7006 -2.98588,-7.76 m 84.20173,9.5507 0.59717,1.7908 -0.59717,-1.7908"
       id="path1189"
       sodipodi:nodetypes="cccsccccccccscccccscscsccccccccccsccscccsccccccccccccccccscccccccccccccccccccccccccccccccccccccccccssccccccccccccccccccccccccccccccccscccccccccccsccscccccccccccccccccccccccccccccccccccccssccccccccccccccsccccccccccccccccccscccscccccccccccccccccscccccccccccscccccccccccccccccccscccscccccccccccccccccccccccccccccccccccccccccccscccccccccccccccccccccccccccccccccccccccscsccccscccccccccsccccccccscccccccccccccscccccccccccccccccccscsccccccccccsccccsccccccccccccccsccccccccsccccccccccccccccscccccccccccccsscsccccccccsccccsccscscsccccccccccccccccccccccccccccccccccccccc"
       inkscape:label="cracks" />
    <rect
       style="display:inline;fill:none;fill-opacity:1;stroke:#41454d;stroke-width:3;stroke-linecap:round;stroke-linejoin:round;stroke-miterlimit:4;stroke-dasharray:none;stroke-opacity:1"
       id="rect1172"
       width="1753.083"
       height="1214.6821"
       x="88.690002"
       y="82.499847"
       rx="28"
       ry="28"
       inkscape:label="screen-border" />
  </g>
</svg>
