<?xml version="1.0" encoding="UTF-8" standalone="no"?>
<svg
   xmlns:dc="http://purl.org/dc/elements/1.1/"
   xmlns:cc="http://creativecommons.org/ns#"
   xmlns:rdf="http://www.w3.org/1999/02/22-rdf-syntax-ns#"
   xmlns:svg="http://www.w3.org/2000/svg"
   xmlns="http://www.w3.org/2000/svg"
   xmlns:sodipodi="http://sodipodi.sourceforge.net/DTD/sodipodi-0.dtd"
   xmlns:inkscape="http://www.inkscape.org/namespaces/inkscape"
   version="1.1"
   id="svg3933"
   width="1024"
   height="640"
   viewBox="0 0 1024 640"
   sodipodi:docname="layer4.svg"
   inkscape:version="1.0.1 (3bc2e81, 2020-09-07)">
  <metadata
     id="metadata3939">
    <rdf:RDF>
      <cc:Work
         rdf:about="">
        <dc:format>image/svg+xml</dc:format>
        <dc:type
           rdf:resource="http://purl.org/dc/dcmitype/StillImage" />
        <dc:title></dc:title>
      </cc:Work>
    </rdf:RDF>
  </metadata>
  <defs
     id="defs3937" />
  <sodipodi:namedview
     pagecolor="#ffffff"
     bordercolor="#666666"
     borderopacity="1"
     objecttolerance="10"
     gridtolerance="10"
     guidetolerance="10"
     inkscape:pageopacity="0"
     inkscape:pageshadow="2"
     inkscape:window-width="640"
     inkscape:window-height="480"
     id="namedview3935"
     showgrid="false"
     inkscape:pagecheckerboard="false"
     inkscape:zoom="1.5417118"
     inkscape:cx="251.89329"
     inkscape:cy="201.83597"
     inkscape:current-layer="g3941"
     inkscape:document-rotation="0" />
  <g
     inkscape:groupmode="layer"
     inkscape:label="Image"
     id="g3941"
     style="display:inline">
    <path
       style="display:inline;fill:#ffffff;fill-opacity:1;fill-rule:nonzero;stroke:none;stroke-width:10;stroke-linecap:round;stroke-linejoin:round;stroke-miterlimit:4;stroke-dasharray:none;stroke-opacity:1"
       d="M 312.8912,81.074072 C 297.10642,68.392857 279.1696,61.414393 259.47725,55.814907 178.61247,135.32832 135.14277,228.83953 60.748013,372.56675 c 17.694514,28.06447 41.089807,50.07886 66.492187,73.85501"
       id="path4506"
       inkscape:label="backpack" />
    <path
       style="display:inline;fill:#ffffff;fill-opacity:1;fill-rule:nonzero;stroke:none;stroke-width:12;stroke-linecap:round;stroke-linejoin:round;stroke-miterlimit:4;stroke-dasharray:none;stroke-opacity:1"
       d="M 576.88116,331.78976 C 586.7833,223.81891 591.10157,131.31022 537.5814,61.782827 497.66015,9.9216418 437.69384,-8.8926186 345.83466,57.326283 310.2605,82.970776 276.4251,116.71264 246.22466,169.7185 199.5319,251.67061 159.36848,354.68817 127.2402,446.42176"
       id="path4510"
       inkscape:label="bean"
       sodipodi:nodetypes="csssc" />
    <path
       style="display:inline;fill:#777777;fill-opacity:1;stroke:none;stroke-width:1px;stroke-linecap:butt;stroke-linejoin:miter;stroke-opacity:1"
       d="M 223.0796,99.608491 C 129.31599,298.24353 114.79773,311.6659 147.70114,324.62588 181.65358,236.98222 247.57193,101.6461 303.29053,71.413211 l 9.60067,9.660861 c -29.67302,35.578898 -55.20274,70.326878 -72.68195,103.460368 -45.46108,130.04411 68.09155,147.91575 135.63162,148.67508 48.21191,0.54203 102.47042,-6.08485 137.33433,-20.39726 38.86585,-15.9553 41.31758,-28.81933 20.49765,-24.16294 -7.92281,1.77194 -21.84046,5.19955 -49.77822,5.52412 -26.763,0.31091 -118.47908,-9.42667 -107.9732,-36.32706 11.75942,-30.1101 199.0701,-104.8718 199.0701,-104.8718 13.49441,61.73487 4.65181,119.7717 1.88963,178.81518 L 127.2402,446.42176 C 103.23883,424.7045 78.541366,401.14722 60.748013,372.56675 93.895589,305.72884 180.49984,124.00808 223.0796,99.608491 Z"
       id="path4512"
       sodipodi:nodetypes="cccccsssssccccc"
       inkscape:label="shadow" />
    <path
       style="display:inline;fill:none;fill-opacity:1;fill-rule:nonzero;stroke:#060606;stroke-width:20;stroke-linecap:round;stroke-linejoin:round;stroke-miterlimit:4;stroke-dasharray:none;stroke-opacity:1"
       d="m 312.8912,81.074072 c -8.22666,-6.609158 -17.03788,-11.669303 -26.37751,-15.792531 -8.58063,-3.788149 -23.84323,-9.770839 -28.80679,-7.026869 -4.74264,2.738163 -16.63404,16.59514 -16.63404,16.59514 C 176.53465,145.07011 136.08153,227.53448 75.776224,345.398 c -4.503715,8.80227 -9.630983,18.24218 -9.552256,26.19897 0.06962,7.0366 4.605154,14.20074 9.125374,20.25522 14.543265,19.47958 32.511738,36.43108 51.890858,54.56957"
       id="path4514"
       inkscape:label="backpack-outline"
       sodipodi:nodetypes="cscssssc" />
    <path
       style="display:inline;fill:none;fill-opacity:1;fill-rule:nonzero;stroke:#060606;stroke-width:24;stroke-linecap:round;stroke-linejoin:round;stroke-miterlimit:4;stroke-dasharray:none;stroke-opacity:1"
       d="M 576.88116,331.78976 C 586.7833,223.81891 591.10157,131.31022 537.5814,61.782827 497.66015,9.9216418 437.69384,-8.8926186 345.83466,57.326283 310.2605,82.970776 276.4251,116.71264 246.22466,169.7185 199.5319,251.67061 159.36848,354.68817 127.2402,446.42176"
       id="path4516"
       inkscape:label="bean-outline"
       sodipodi:nodetypes="csssc" />
  </g>
</svg>
