<?xml version="1.0" encoding="UTF-8" standalone="no"?>
<svg
   xmlns:dc="http://purl.org/dc/elements/1.1/"
   xmlns:cc="http://creativecommons.org/ns#"
   xmlns:rdf="http://www.w3.org/1999/02/22-rdf-syntax-ns#"
   xmlns:svg="http://www.w3.org/2000/svg"
   xmlns="http://www.w3.org/2000/svg"
   xmlns:sodipodi="http://sodipodi.sourceforge.net/DTD/sodipodi-0.dtd"
   xmlns:inkscape="http://www.inkscape.org/namespaces/inkscape"
   inkscape:version="1.0 (4035a4f, 2020-05-01)"
   sodipodi:docname="text.svg"
   viewBox="0 0 1024 490"
   height="490"
   width="1024"
   id="svg2160"
   version="1.1">
  <metadata
     id="metadata2166">
    <rdf:RDF>
      <cc:Work
         rdf:about="">
        <dc:format>image/svg+xml</dc:format>
        <dc:type
           rdf:resource="http://purl.org/dc/dcmitype/StillImage" />
        <dc:title></dc:title>
      </cc:Work>
    </rdf:RDF>
  </metadata>
  <defs
     id="defs2164">
    <inkscape:path-effect
       miter_limit="100"
       jointype="extrapolated"
       smoothing="1"
       end_offset="0.22958154"
       attach_start="0.10016393"
       stroke_width="5.63"
       lpeversion="1"
       is_visible="true"
       id="path-effect2941"
       effect="taper_stroke" />
    <inkscape:path-effect
       end_linecap_type="zerowidth"
       scale_width="1"
       miter_limit="4"
       linejoin_type="round"
       start_linecap_type="zerowidth"
       interpolator_beta="0.2"
       interpolator_type="CentripetalCatmullRom"
       sort_points="true"
       offset_points="0.044076869,2.0922731 | 0.49096542,2.8165455 | 0.98707302,1.0230118"
       lpeversion="1"
       is_visible="true"
       id="path-effect2939"
       effect="powerstroke" />
    <inkscape:path-effect
       miter_limit="100"
       jointype="round"
       smoothing="0.5"
       end_offset="0.29196099"
       attach_start="0.2"
       stroke_width="6"
       lpeversion="1"
       is_visible="true"
       id="path-effect2937"
       effect="taper_stroke" />
    <inkscape:path-effect
       end_linecap_type="round"
       scale_width="1"
       miter_limit="4"
       linejoin_type="round"
       start_linecap_type="round"
       interpolator_beta="0.10596026"
       interpolator_type="CentripetalCatmullRom"
       sort_points="true"
       offset_points="0,1.4982462 | 0.46532504,3.4918144 | 0.84047677,2.594672"
       lpeversion="1"
       is_visible="true"
       id="path-effect2826"
       effect="powerstroke" />
    <inkscape:path-effect
       end_linecap_type="zerowidth"
       scale_width="1"
       miter_limit="4"
       linejoin_type="round"
       start_linecap_type="zerowidth"
       interpolator_beta="0.2"
       interpolator_type="CentripetalCatmullRom"
       sort_points="true"
       offset_points="0.2,2 | 0.5,2 | 0.8,2"
       lpeversion="1"
       is_visible="true"
       id="path-effect2824"
       effect="powerstroke" />
  </defs>
  <sodipodi:namedview
     inkscape:current-layer="g2168"
     inkscape:cy="132.51384"
     inkscape:cx="388.77341"
     inkscape:zoom="1.2727273"
     inkscape:document-rotation="0"
     showgrid="false"
     id="namedview2162"
     inkscape:window-height="480"
     inkscape:window-width="640"
     inkscape:pageshadow="2"
     inkscape:pageopacity="0"
     guidetolerance="10"
     gridtolerance="10"
     objecttolerance="10"
     borderopacity="1"
     bordercolor="#666666"
     pagecolor="#ffffff" />
  <g
     style="display:inline"
     id="g2168"
     inkscape:label="Image"
     inkscape:groupmode="layer">
    <path
       inkscape:label="outline"
       sodipodi:nodetypes="cccccsscccccccccccccccccccccccccccccccccccccccccccccssccccccccccccccccccccsscccczcccccccccsccccccccccccccccc"
       d="m 941.62857,370.22898 7.7896,101.58289 m -38.3108,-101.7936 c 12.91276,-1.23682 36.2806,-2.90213 53.03924,-0.58161 m -29.40195,-81.66879 c -33.97321,-10.49889 -55.47872,54.08504 -54.70404,99.15076 0.58595,34.08642 10.55445,75.25909 37.19723,75.99926 12.36378,0.34348 20.85048,-9.01995 28.49869,-20.61963 M 751.911,304.39318 c 23.91386,42.83552 54.40816,122.15327 84.93357,158.85806 -8.29088,-37.45224 -12.31888,-126.66541 -17.1097,-172.54067 m -69.904,176.59116 C 743.19136,454.8108 751.8603,351.81018 748.95271,311.6153 M 604.25052,459.75495 c 37.06503,1.34328 72.37063,-1.57603 108.44212,-3.37564 M 654.56601,308.42283 c 5.74065,49.6477 2.13816,97.45554 5.05634,146.66326 M 603.57423,306.8743 c 15.18271,-2.21851 62.22656,-2.32619 100.99745,0.89705 m -184.01169,-5.24861 c 5.18163,26.06382 4.0884,133.70609 8.64216,161.84741 M 473.17846,304.31722 c 31.32299,1.83426 71.65963,-8.11694 98.94172,-5.80878 m -208.0668,7.27468 c 20.17685,1.88395 49.8698,1.51485 78.1365,6.6527 m -71.83652,51.74992 c 11.08542,3.68224 60.06517,2.61961 82.87567,2.79343 m -79.28824,78.68628 c 15.43429,1.50142 49.66856,2.54788 76.89344,-2.44225 M 370.37776,300.04222 c 6.78347,8.66864 9.31373,126.55067 13.65604,164.49515 M 239.17938,312.29453 c 28.35865,12.93423 56.72762,-6.29526 84.41161,0.0247 m -64.95922,67.36479 c 14.07187,-5.31699 44.49633,-8.03824 69.52624,-2.70317 m -79.94557,91.28642 c 21.24631,-12.08116 52.20829,-21.82056 94.1598,-18.91966 M 244.28922,301.56107 c 5.27775,25.19725 15.50491,142.74005 24.75741,168.00084 M 160.20594,304.72546 c 0,0 32.48877,108.85061 50.71995,147.55601 m -82.19114,-3.46387 c 2.4766,-54.4304 23.76044,-118.63104 24.0798,-155.30718 m -67.808346,4.33064 C 103.091,349.31215 106.67793,397.3982 129.15831,428.49836 M 64.125569,459.0693 C 59.479195,424.92757 79.350007,343.9323 75.628912,297.75303 M 1006.9023,17.435659 C 1000.7246,43.84124 989.23114,168.26628 997.04341,220.06427 M 949.62729,34.293729 c 3.49906,24.453169 30.60446,61.632084 46.52857,73.767641 M 908.76481,32.017621 c -15.69899,-4.5855 -32.22874,52.204648 -33.61419,85.836419 -0.87995,21.36112 -3.52314,45.87444 16.60746,59.62102 17.77062,12.13502 35.62235,4.09867 44.64615,-4.49932 M 769.0381,26.947538 c 6.46041,16.223912 26.24953,93.624192 55.99424,177.229722 m 4.74457,3.64949 c 4.65766,-52.33505 5.78383,-105.62196 7.43925,-158.766229 M 758.41341,194.39742 c 2.65507,-44.65235 5.51103,-117.675132 3.08703,-161.187286 M 652.34626,210.83977 c 19.02713,-10.88638 41.87658,-16.30189 68.37831,-17.87033 M 639.93969,37.399372 c 7.82866,6.171631 52.41073,4.678655 81.67669,7.782418 m -72.05061,86.22499 c 25.00415,-5.18756 53.6466,-8.09809 74.99454,-5.98071 M 650.74761,22.834347 c 0.87262,10.380645 6.50092,155.989883 14.87148,189.987883 m -73.44621,-99.15032 c 2.25071,12.87965 12.75764,62.29808 12.47968,88.16171 m -42.88194,-80.95206 c 20.74958,-6.6874 41.82269,-10.86745 63.23343,-13.36616 M 579.40454,20.565691 c -51.45566,-4.749968 -56.37641,67.059066 -59.7134,109.469319 -3.23491,41.11275 21.02051,72.47903 50.64332,72.04403 17.21818,-0.25284 29.66873,-42.59699 29.66873,-42.59699 M 414.3167,33.993516 C 431.09859,110.2376 425.49837,176.44799 432.98064,196.5796 M 405.44095,56.44746 c -11.06758,-20.981531 34.4088,-47.3360746 56.3758,-28.074903 21.96702,19.261168 -9.31966,83.552953 -39.18387,101.158683 33.64146,-19.87038 61.88272,24.27568 92.90796,68.80698 M 287.79472,44.276237 c 24.81617,-1.639088 54.71036,-12.463758 80.05204,-7.759008 m -63.05915,69.739251 c 14.52415,-11.267804 48.61658,-15.767906 66.19853,-14.345725 m -63.72413,93.819315 c 23.0189,-3.30122 70.96209,-15.98285 85.71598,-18.45921 M 298.56586,23.50206 c 2.05109,9.675089 4.24426,43.46514 7.43322,76.58051 4.02451,41.79245 9.10469,84.60129 11.5697,99.83598 M 164.19025,218.18026 C 169.52058,150.82627 177.44532,84.1252 181.00762,17.09767 m 1.31207,13.365769 49.27642,186.086601 m -4.26063,-19.38812 -0.74982,-163.116564 m 5.91028,-11.310632 c 13.2662,29.972889 37.72955,141.878546 59.11396,196.003766 M 17.09767,29.13292 c 21.05832,3.829299 60.796853,-0.98823 95.12247,-2.564465 M 27.683332,100.90943 c 20.696229,2.31708 65.625506,-9.650505 106.078048,-8.429136 M 39.879332,18.155784 C 40.857496,53.21641 50.971609,162.86972 56.599866,211.95423 M 40.970605,196.65497 c 27.882253,-10.96859 63.110115,-16.42561 89.679475,-19.83284"
       style="display:inline;fill:none;fill-rule:nonzero;stroke:#420000;stroke-width:30.1953;stroke-linecap:round;stroke-linejoin:round;stroke-miterlimit:4;stroke-dasharray:none;stroke-opacity:1"
       id="path2821" />
    <path
       inkscape:label="text"
       sodipodi:nodetypes="cccccsscccccccccccccccccccccccccccccccccccccccccccccssccccccccccccccccccccsscccczcccccccccsccccccccccccccccc"
       d="m 941.62857,370.22898 7.7896,101.58289 m -38.3108,-101.7936 c 12.91276,-1.23682 36.2806,-2.90213 53.03924,-0.58161 m -29.40195,-81.66879 c -33.97321,-10.49889 -55.47872,54.08504 -54.70404,99.15076 0.58595,34.08642 10.55445,75.25909 37.19723,75.99926 12.36378,0.34348 20.85048,-9.01995 28.49869,-20.61963 M 751.911,304.39318 c 23.91386,42.83552 54.40816,122.15327 84.93357,158.85806 -8.29088,-37.45224 -12.31888,-126.66541 -17.1097,-172.54067 m -69.904,176.59116 C 743.19136,454.8108 751.8603,351.81018 748.95271,311.6153 M 604.25052,459.75495 c 37.06503,1.34328 72.37063,-1.57603 108.44212,-3.37564 M 654.56601,308.42283 c 5.74065,49.6477 2.13816,97.45554 5.05634,146.66326 M 603.57423,306.8743 c 15.18271,-2.21851 62.22656,-2.32619 100.99745,0.89705 m -184.01169,-5.24861 c 5.18163,26.06382 4.0884,133.70609 8.64216,161.84741 M 473.17846,304.31722 c 31.32299,1.83426 71.65963,-8.11694 98.94172,-5.80878 m -208.0668,7.27468 c 20.17685,1.88395 49.8698,1.51485 78.1365,6.6527 m -71.83652,51.74992 c 11.08542,3.68224 60.06517,2.61961 82.87567,2.79343 m -79.28824,78.68628 c 15.43429,1.50142 49.66856,2.54788 76.89344,-2.44225 M 370.37776,300.04222 c 6.78347,8.66864 9.31373,126.55067 13.65604,164.49515 M 239.17938,312.29453 c 28.35865,12.93423 56.72762,-6.29526 84.41161,0.0247 m -64.95922,67.36479 c 14.07187,-5.31699 44.49633,-8.03824 69.52624,-2.70317 m -79.94557,91.28642 c 21.24631,-12.08116 52.20829,-21.82056 94.1598,-18.91966 M 244.28922,301.56107 c 5.27775,25.19725 15.50491,142.74005 24.75741,168.00084 M 160.20594,304.72546 c 0,0 32.48877,108.85061 50.71995,147.55601 m -82.19114,-3.46387 c 2.4766,-54.4304 23.76044,-118.63104 24.0798,-155.30718 m -67.808346,4.33064 c 18.084796,51.47109 20.757636,98.8293 44.152106,130.6573 M 64.125569,459.0693 C 59.479195,424.92757 79.350007,343.9323 75.628912,297.75303 M 1006.9023,17.435659 C 1000.7246,43.84124 989.23114,168.26628 997.04341,220.06427 M 949.62729,34.293729 c 3.49906,24.453169 30.60446,61.632084 46.52857,73.767641 M 908.76481,32.017621 c -15.69899,-4.5855 -32.22874,52.204648 -33.61419,85.836419 -0.87995,21.36112 -3.52314,45.87444 16.60746,59.62102 17.77062,12.13502 35.62235,4.09867 44.64615,-4.49932 M 769.0381,26.947538 c 6.46041,16.223912 26.24953,93.624192 55.99424,177.229722 m 4.74457,3.64949 c 4.65766,-52.33505 5.78383,-105.62196 7.43925,-158.766229 M 758.41341,194.39742 c 2.65507,-44.65235 5.51103,-117.675132 3.08703,-161.187286 M 652.34626,210.83977 c 19.02713,-10.88638 41.87658,-16.30189 68.37831,-17.87033 M 639.93969,37.399372 c 7.82866,6.171631 52.41073,4.678655 81.67669,7.782418 m -72.05061,86.22499 c 25.00415,-5.18756 53.6466,-8.09809 74.99454,-5.98071 M 650.74761,22.834347 c 0.87262,10.380645 6.50092,155.989883 14.87148,189.987883 m -73.44621,-99.15032 c 2.25071,12.87965 12.75764,62.29808 12.47968,88.16171 m -42.88194,-80.95206 c 20.74958,-6.6874 41.82269,-10.86745 63.23343,-13.36616 M 579.40454,20.565691 c -51.45566,-4.749968 -56.37641,67.059066 -59.7134,109.469319 -3.23491,41.11275 21.02051,72.47903 50.64332,72.04403 17.21818,-0.25284 29.66873,-42.59699 29.66873,-42.59699 M 414.3167,33.993516 C 431.09859,110.2376 425.49837,176.44799 432.98064,196.5796 M 405.44095,56.44746 c -11.06758,-20.981531 34.4088,-47.3360746 56.3758,-28.074903 21.96702,19.261168 -9.31966,83.552953 -39.18387,101.158683 33.64146,-19.87038 61.88272,24.27568 92.90796,68.80698 M 287.79472,44.276237 c 24.81617,-1.639088 54.71036,-12.463758 80.05204,-7.759008 m -63.05915,69.739251 c 14.52415,-11.267804 48.61658,-15.767906 66.19853,-14.345725 m -63.72413,93.819315 c 23.0189,-3.30122 70.96209,-15.98285 85.71598,-18.45921 M 298.56586,23.50206 c 2.05109,9.675089 4.24426,43.46514 7.43322,76.58051 4.02451,41.79245 9.10469,84.60129 11.5697,99.83598 M 164.19025,218.18026 C 169.52058,150.82627 177.44532,84.1252 181.00762,17.09767 m 1.31207,13.365769 49.27642,186.086601 m -4.26063,-19.38812 -0.74982,-163.116564 m 5.91028,-11.310632 c 13.2662,29.972889 37.72955,141.878546 59.11396,196.003766 M 17.09767,29.13292 c 21.05832,3.829299 60.796853,-0.98823 95.12247,-2.564465 M 27.683332,100.90943 c 20.696229,2.31708 65.625506,-9.650505 106.078048,-8.429136 M 39.879332,18.155784 C 40.857496,53.21641 50.971609,162.86972 56.599866,211.95423 M 40.970605,196.65497 c 27.882253,-10.96859 63.110115,-16.42561 89.679475,-19.83284"
       style="display:inline;fill:none;fill-rule:nonzero;stroke:#ffffff;stroke-width:16.4702;stroke-linecap:round;stroke-linejoin:round;stroke-miterlimit:4;stroke-dasharray:none;stroke-opacity:1"
       id="path1083" />
  </g>
</svg>
