<?xml version="1.0" encoding="UTF-8" standalone="no"?>
<svg
   xmlns:dc="http://purl.org/dc/elements/1.1/"
   xmlns:cc="http://creativecommons.org/ns#"
   xmlns:rdf="http://www.w3.org/1999/02/22-rdf-syntax-ns#"
   xmlns:svg="http://www.w3.org/2000/svg"
   xmlns="http://www.w3.org/2000/svg"
   xmlns:xlink="http://www.w3.org/1999/xlink"
   xmlns:sodipodi="http://sodipodi.sourceforge.net/DTD/sodipodi-0.dtd"
   xmlns:inkscape="http://www.inkscape.org/namespaces/inkscape"
   version="1.1"
   id="svg1790"
   width="512"
   height="512"
   viewBox="0 0 512 512"
   sodipodi:docname="no_crew.svg"
   inkscape:version="1.0.1 (3bc2e81, 2020-09-07)">
  <metadata
     id="metadata1796">
    <rdf:RDF>
      <cc:Work
         rdf:about="">
        <dc:format>image/svg+xml</dc:format>
        <dc:type
           rdf:resource="http://purl.org/dc/dcmitype/StillImage" />
        <dc:title />
      </cc:Work>
    </rdf:RDF>
  </metadata>
  <defs
     id="defs1794">
    <linearGradient
       inkscape:collect="always"
       id="linearGradient863">
      <stop
         style="stop-color:#7bacbb;stop-opacity:1"
         offset="0"
         id="stop859" />
      <stop
         style="stop-color:#45667e;stop-opacity:1"
         offset="1"
         id="stop861" />
    </linearGradient>
    <linearGradient
       inkscape:collect="always"
       xlink:href="#linearGradient863"
       id="linearGradient865"
       x1="258.11819"
       y1="102.76769"
       x2="258.12637"
       y2="168.61749"
       gradientUnits="userSpaceOnUse" />
  </defs>
  <sodipodi:namedview
     pagecolor="#ffffff"
     bordercolor="#666666"
     borderopacity="1"
     objecttolerance="10"
     gridtolerance="10"
     guidetolerance="10"
     inkscape:pageopacity="0"
     inkscape:pageshadow="2"
     inkscape:window-width="2488"
     inkscape:window-height="1370"
     id="namedview1792"
     showgrid="false"
     inkscape:zoom="1"
     inkscape:cx="18.169557"
     inkscape:cy="290.95323"
     inkscape:window-x="2632"
     inkscape:window-y="33"
     inkscape:window-maximized="1"
     inkscape:current-layer="g1798"
     inkscape:document-rotation="0" />
  <g
     inkscape:groupmode="layer"
     inkscape:label="Image"
     id="g1798">
    <path
       style="fill:#c60000;fill-opacity:1;stroke:none;stroke-width:10;stroke-linecap:butt;stroke-linejoin:round;stroke-miterlimit:4;stroke-dasharray:none;stroke-opacity:0.531418"
       d="M 26.741366,460.68318 C 17.065749,260.01492 89.907992,7.159173 263.79389,8.8596103 347.42449,9.6774374 398.08191,76.639711 435.88362,174.9104 c 34.25737,89.05671 54.96795,185.86663 45.57103,296.31178 -182.94151,56.86402 -363.97159,27.04753 -454.713284,-10.539 z"
       id="path840"
       sodipodi:nodetypes="csscc"
       inkscape:label="suit-fill" />
    <path
       id="path844"
       style="display:inline;fill:#700012;fill-opacity:1;stroke:none;stroke-width:1px;stroke-linecap:butt;stroke-linejoin:miter;stroke-opacity:1"
       d="m 69.030735,176.27821 c -39.954325,95.27902 -42.61403,189.86954 -42.289369,284.40497 133.697854,48.02179 287.580524,58.76762 454.713284,10.539 4.81403,-73.11057 -0.39805,-144.1182 -17.16278,-211.64356 -0.58215,50.48467 -10.65594,85.26297 -24.55727,109.34077 -15.86831,27.48472 -31.50788,52.43319 -58.75928,70.43746 -10.403,6.87299 -21.60473,16.90218 -47.05786,21.90552 -38.14906,7.49899 -84.119,2.06593 -107.87493,-1.5142 C 198.13721,455.5427 174.76423,454.7843 121.31564,423.92574 55.307389,385.81586 50.207451,291.14918 69.030735,176.27821 Z M 141.1608,120.56569 c -48.724181,46.53262 -85.75789,119.89353 -21.27525,134.08545 52.10289,11.46727 123.64181,18.02356 186.7795,14.59564 52.07631,-2.82736 82.80465,-7.99474 104.09135,-23.10792 15.83683,-11.24386 20.04541,-21.35784 11.50672,-44.68486 -8.78551,-24.00129 -30.18363,-64.71678 -48.83841,-77.97912 z"
       sodipodi:nodetypes="ccccsssssccsssscc"
       inkscape:label="shadow" />
    <path
       style="fill:#51000d;fill-opacity:1;stroke:none;stroke-width:1px;stroke-linecap:butt;stroke-linejoin:miter;stroke-opacity:1"
       d="m 481.45465,471.22218 c 6.59463,-48.18939 2.25231,-103.63892 -5.02004,-149.56035 -0.62024,51.69598 -7.28015,131.97304 -85.62267,172.062 24.34536,-4.0878 62.34813,-13.96404 90.64271,-22.50165 z M 44.68785,256.3118 C 31.484161,318.18151 18.080564,393.25293 26.741366,460.68318 63.491678,473.46086 102.2068,488.43156 149.99097,492.86615 94.646502,480.59035 64.562377,432.14002 50.74024,399.65248 33.546587,359.24053 42.811416,319.22107 44.68785,256.3118 Z"
       id="path842"
       sodipodi:nodetypes="cccccccsc"
       inkscape:label="dark-shadow" />
    <path
       style="fill:none;stroke:#250006;stroke-width:10;stroke-linecap:butt;stroke-linejoin:round;stroke-miterlimit:4;stroke-dasharray:none;stroke-opacity:1"
       d="M 26.741366,460.68318 C 17.065749,260.01492 89.907992,7.3836936 263.79389,9.0841309 347.42449,9.901958 398.08191,76.639711 435.88362,174.9104 c 34.25737,89.05671 54.96795,185.86663 45.57103,296.31178 -182.94151,56.86402 -363.97159,27.04753 -454.713284,-10.539 z"
       id="path2363"
       sodipodi:nodetypes="csscc"
       inkscape:label="suit-border" />
    <path
       style="display:inline;fill:url(#linearGradient865);fill-opacity:1;stroke:#0d1a23;stroke-width:10;stroke-linecap:butt;stroke-linejoin:miter;stroke-miterlimit:4;stroke-dasharray:none;stroke-opacity:1"
       d="m 174.9166,97.669456 c 38.08773,-2.155914 123.4039,-1.223466 160.45283,-0.09422 9.88328,0.301241 20.05721,0.148411 28.42652,11.480834 16.99322,23.00957 38.37329,60.94671 46.23577,88.79818 4.35935,15.44226 4.3654,21.24618 -15.72218,30.78747 -59.12435,28.08315 -242.78596,22.8806 -287.30696,-4.56186 -11.777286,-7.25945 -8.170525,-19.18708 -5.97946,-27.52519 7.38687,-28.11085 28.4717,-61.77146 41.48417,-81.94749 9.73802,-15.098947 16.5394,-16.039425 32.40931,-16.937724 z"
       id="path849"
       sodipodi:nodetypes="sssssssss"
       inkscape:label="mask" />
    <path
       id="path869"
       style="display:inline;fill:#8ec3d0;fill-opacity:1;stroke:none;stroke-width:1px;stroke-linecap:butt;stroke-linejoin:miter;stroke-opacity:1"
       d="m 135.00585,149.64939 c 0,0 15.22975,-19.55714 23.51069,-27.83807 12.44405,-12.44405 22.27151,-11.16759 34.28416,-11.29017 51.9009,-0.52962 84.21507,-0.48388 131.57302,-0.28932 13.01384,0.0535 22.52281,2.75212 29.29188,12.2351 7.81802,10.95247 13.23842,19.60005 19.74825,30.12497 -65.63475,-27.83056 -88.69665,-23.45503 -136.40024,-22.50328 -48.13555,0.96036 -56.36991,4.69192 -102.00776,19.56077 z m -6.55774,27.77274 c 2.0676,6.15523 3.04491,14.99217 19.40596,18.36147 20.77493,4.27827 53.99992,9.74837 115.81312,9.74837 102.10946,0 113.70237,-16.20947 118.6634,-27.67515 3.93093,4.18055 12.58586,17.57083 11.16399,28.15287 -0.98618,7.33946 -4.52605,9.57965 -15.17119,14.6256 -13.92508,6.60068 -39.35353,8.6706 -51.31702,9.69595 -61.82351,5.29869 -144.04633,4.28016 -186.10917,-7.05914 -13.85002,-3.73369 -23.38293,-8.65709 -23.81982,-17.40015 -0.72916,-14.59221 6.4017,-26.53609 11.37073,-28.44982 z"
       sodipodi:nodetypes="csssscsccsscsssssc"
       inkscape:label="mask-highlight" />
    <path
       id="path882"
       style="display:inline;fill:none;stroke:#ffffff;stroke-width:4;stroke-linecap:round;stroke-linejoin:miter;stroke-miterlimit:4;stroke-dasharray:none;stroke-opacity:1"
       d="m 327.74986,115.84978 c 6.92692,-0.3238 14.13783,1.50563 17.83279,6.00551 m 4.48441,6.12901 c 2.43961,2.38739 4.83664,5.11238 6.64141,8.31115 m 21.92514,77.26633 c 9.08212,-6.4163 7.10975,-13.98155 5.47412,-22.98491 m -20.39501,28.17645 5.2682,-1.79079 m -225.34298,-0.61027 1.73755,0.49904 m -20.33174,-23.09936 c -4.85,13.46199 4.45387,17.0888 11.20439,21.20965"
       inkscape:label="glare-large"
       sodipodi:nodetypes="cccccccccccc" />
    <path
       id="path905"
       style="fill:none;stroke:#ffffff;stroke-width:2;stroke-linecap:round;stroke-linejoin:miter;stroke-miterlimit:4;stroke-dasharray:none;stroke-opacity:1"
       d="m 204.56809,114.89005 c 8.05253,-0.3761 16.21857,-0.0966 24.43625,0.48118 m -44.2346,0.13408 c 2.09524,-0.26057 4.11387,-0.23217 6.52722,-0.24685 m -34.98339,16.25852 c 5.36441,-6.67084 9.35836,-12.41871 21.09357,-15.64087 m 131.16296,-1.36689 c 0.60719,-0.0544 8.51239,0.16297 8.51239,0.16297 m 83.12367,87.11352 c -0.18862,-2.07994 -0.62652,-4.03561 -1.29066,-5.87847 m 2.65824,15.21978 c 0.58311,-1.06523 0.73032,-2.1265 0.58207,-3.20343 m -9.9931,12.92318 c 2.53832,-1.23427 5.0593,-3.04268 6.54883,-4.99924 m -141.45326,11.3127 c 9.71227,0.75775 19.23716,0.9953 28.61919,0.90233 M 155.14071,219.8184 c 12.84585,2.01636 26.75782,2.87103 40.65557,4.70579 17.57787,2.3206 33.2323,4.26338 50.52692,2.64953 M 110.50644,210.90087 c -0.42455,1.97732 1.1148,4.43266 3.08563,5.73387 m -1.92592,-22.92238 c -2.01826,4.4175 -3.60854,8.17609 -2.66645,12.86755"
       inkscape:label="glare-small"
       sodipodi:nodetypes="cccccccccccccccccsccccc" />
  </g>
</svg>
