<?xml version="1.0" encoding="UTF-8" standalone="no"?>
<svg
   xmlns:dc="http://purl.org/dc/elements/1.1/"
   xmlns:cc="http://creativecommons.org/ns#"
   xmlns:rdf="http://www.w3.org/1999/02/22-rdf-syntax-ns#"
   xmlns:svg="http://www.w3.org/2000/svg"
   xmlns="http://www.w3.org/2000/svg"
   xmlns:sodipodi="http://sodipodi.sourceforge.net/DTD/sodipodi-0.dtd"
   xmlns:inkscape="http://www.inkscape.org/namespaces/inkscape"
   version="1.1"
   id="svg958"
   width="144"
   height="256"
   viewBox="0 0 144 256"
   sodipodi:docname="no_hand.svg"
   inkscape:version="1.0.1 (3bc2e81, 2020-09-07)">
  <metadata
     id="metadata964">
    <rdf:RDF>
      <cc:Work
         rdf:about="">
        <dc:format>image/svg+xml</dc:format>
        <dc:type
           rdf:resource="http://purl.org/dc/dcmitype/StillImage" />
        <dc:title></dc:title>
      </cc:Work>
    </rdf:RDF>
  </metadata>
  <defs
     id="defs962" />
  <sodipodi:namedview
     pagecolor="#ffffff"
     bordercolor="#666666"
     borderopacity="1"
     objecttolerance="10"
     gridtolerance="10"
     guidetolerance="10"
     inkscape:pageopacity="0"
     inkscape:pageshadow="2"
     inkscape:window-width="640"
     inkscape:window-height="480"
     id="namedview960"
     showgrid="false"
     inkscape:zoom="2.1265823"
     inkscape:cx="-58.142587"
     inkscape:cy="134.15571"
     inkscape:current-layer="g966" />
  <g
     inkscape:groupmode="layer"
     inkscape:label="Image"
     id="g966">
    <path
       style="fill:#c60000;fill-opacity:1;stroke:none;stroke-width:1px;stroke-linecap:butt;stroke-linejoin:miter;stroke-opacity:1"
       d="M 27.285667,246.57276 7.1509828,155.45904 14.152172,148.32195 C 24.088383,104.10409 23.494156,58.542181 18.26008,10.770408 29.379071,8.0000239 40.707235,5.0049145 47.76246,30.899104 c 4.108774,26.08816 4.738562,51.900108 5.741302,77.741666 l 4.963605,9.218 20.790598,-13.29724 23.218695,16.57466 c -5.491161,-31.751434 21.23167,-23.781534 19.5286,-9.32167 l 14.75607,33.76026 c -5.75331,13.85982 -7.57625,28.30878 -7.61898,43.02459 -14.71732,14.64105 -25.87968,30.98251 -35.153281,48.22739 -17.768679,11.4621 -43.861206,12.07027 -66.703402,9.746 z"
       id="path1554"
       sodipodi:nodetypes="cccccccccccccc"
       inkscape:label="fill" />
    <path
       id="path1546"
       style="display:inline;fill:#700012;fill-opacity:1;stroke:none;stroke-width:1px;stroke-linecap:butt;stroke-linejoin:miter;stroke-opacity:1"
       inkscape:label="shadow-light"
       d="M 27.285667,246.57276 9.4344531,169.00704 c 3.7721879,8.54136 14.0576309,33.32648 24.9497549,49.02916 5.646466,8.14026 7.494829,10.54919 16.503541,8.27836 10.849984,-2.73497 9.974303,-3.2395 16.270515,-12.99135 7.892108,-12.22364 7.419576,-17.14029 3.065711,-31.31263 -1.379127,-4.48922 -1.550064,-9.3715 -3.81952,-13.30231 -3.953142,-6.84705 9.318903,-8.67636 14.982451,-8.73516 4.611873,-0.0479 7.740663,-0.20841 10.06538,0.41449 2.104078,0.56379 4.8015,6.03898 4.869497,11.7389 5.741307,-2.35963 6.843717,-7.73175 7.185217,-12.87673 0.18269,-2.75235 0.35694,-5.23336 -0.94153,-7.03654 -1.9602,-2.72213 -5.538226,-4.55266 -9.305106,-7.01385 -2.345277,-1.53234 -7.75671,-3.31432 -10.896791,-4.7689 -2.760682,-1.27883 -3.452159,-2.28482 -3.086336,-2.91844 0.376097,-0.65143 2.16997,-0.54698 6.060149,0.5732 4.629013,1.33294 10.959808,4.54881 14.890394,6.92256 1.84665,1.11523 4.08021,1.63994 6.00061,1.92033 4.48888,0.6554 3.60244,3.93153 3.4965,7.9824 -0.0503,1.92388 0.21033,3.95221 0.60865,5.69885 2.17297,-3.74876 3.59286,-7.79139 4.33677,-10.73131 0.7864,-3.10783 2.28005,-4.11032 6.89884,-3.26702 -8.2794,-12.40217 -19.63048,-25.47884 -19.20198,-36.40666 7.7521,6.42653 12.17674,11.88903 17.3609,18.38139 3.93646,4.92981 8.79346,10.25025 16.2537,13.24515 -3.18823,16.9742 -6.66947,31.08105 -6.83942,46.76844 -14.21841,15.39771 -28.16336,33.35239 -36.877864,51.0529 -22.440207,10.30016 -44.950837,10.69708 -64.978819,6.92049 z M 22.676722,85.587905 c 1.626463,27.512415 3.831165,34.623215 12.81655,32.215585 10.082986,-2.70172 16.190463,-9.65421 16.767618,-26.88911 1.487413,9.51345 1.118153,20.72573 6.206477,26.94439 l -44.315195,30.46318 z m 45.033402,52.010125 c 2.596198,-1.20873 3.847939,1.62889 1.212447,2.82537 -4.015721,1.82308 -12.394468,6.42155 -16.35349,7.65608 -7.535316,2.34971 -15.309869,9.17204 -16.133141,17.59231 -0.291382,2.9802 -3.961932,2.71664 -3.999973,0.13629 -0.0386,-2.61798 0.205753,-11.88307 0.205753,-11.88307 z"
       sodipodi:nodetypes="ccssssssscssssssssscsccscccccsccccssssscs" />
    <path
       id="path1556"
       style="fill:#51000d;fill-opacity:1;stroke:none;stroke-width:1px;stroke-linecap:butt;stroke-linejoin:miter;stroke-opacity:1"
       d="m 27.285667,246.57276 -5.258514,-30.2645 c 11.286832,26.99625 19.071296,23.04851 30.496097,21.64344 16.925725,-2.0816 17.124807,-3.86805 30.841586,-23.30897 3.239673,-15.99026 0.928244,-31.34233 -7.61641,-45.97778 l 14.948191,-0.31708 c -4.486161,10.87784 10.172203,10.61124 14.271933,3.51029 1.62949,-2.82235 3.29084,-3.81256 8.84386,-5.89617 2.62356,-8.07648 7.88781,-18.23242 7.6054,-24.78727 8.32192,6.04208 6.11163,17.89649 7.02362,26.84103 0.89324,5.47135 -4.31695,14.36683 -10.17573,20.11538 -6.63311,6.50832 -14.66737,13.37651 -16.0497,20.83189 -1.38234,7.45538 -1.16705,16.57351 -1.16705,16.57351 l -10.994011,14.61103 c -25.520874,10.42104 -45.642165,9.81148 -62.769272,6.4252 z M 20.953454,109.38559 c -1.807639,25.02042 10.258313,21.36165 30.990803,13.03855 l -37.792085,25.89781 z"
       sodipodi:nodetypes="ccscccscccszccccccc"
       inkscape:label="shadow-dark" />
    <path
       style="fill:none;stroke:#250006;stroke-width:7;stroke-linecap:round;stroke-linejoin:round;stroke-miterlimit:4;stroke-dasharray:none;stroke-opacity:1"
       d="m 67.3036,245.74561 c 8.873304,-1.50943 14.418859,-1.98255 18.108175,-3.49474 8.954864,-3.67044 9.786547,-7.78662 13.424492,-14.70592 7.207393,-13.70832 16.120433,-25.27873 26.288873,-35.14891 4.6058,-4.4707 4.48363,-5.99582 4.00165,-13.81529 -0.47842,-7.76159 2.1534,-17.07557 5.04049,-24.6876 3.02457,-7.9745 2.77695,-10.45114 -2.58065,-19.7308 -4.91995,-8.52162 -10.27556,-24.40042 -11.20343,-27.86331 -3.92119,-14.634082 -28.74273,-6.411626 -14.23484,19.68272"
       id="path1533"
       sodipodi:nodetypes="csssssssc"
       inkscape:label="thumb-outline" />
    <path
       style="display:inline;fill:none;stroke:#250006;stroke-width:6;stroke-linecap:round;stroke-linejoin:round;stroke-miterlimit:4;stroke-dasharray:none;stroke-opacity:1"
       d="M 13.328338,147.81426 C 24.871595,80.392221 20.070493,37.978675 17.813359,17.142414 17.343443,12.804479 18.35518,8.9602604 23.461724,8.1119105 33.541862,6.4372974 44.323164,10.270938 47.801808,30.56678 c 4.22939,24.676006 4.383657,49.094962 4.863313,67.052095 0.339493,12.709795 2.869256,16.438625 5.802246,20.239895"
       id="path1535"
       sodipodi:nodetypes="cssssc"
       inkscape:label="finger-outline" />
    <path
       style="display:inline;fill:none;stroke:#250006;stroke-width:7;stroke-linecap:round;stroke-linejoin:round;stroke-miterlimit:4;stroke-dasharray:none;stroke-opacity:1"
       d="m 84.015801,194.04125 c 13.618007,-0.82035 22.077979,-11.17268 23.026399,-12.93542 3.1694,-5.89063 11.81566,-25.21634 14.58283,-35.5572 -10.84786,-15.1338 -17.96868,-24.16932 -32.46092,-35.31531 -8.428234,-6.48216 -10.641393,-6.16696 -17.282678,-1.60911 -24.092473,16.53443 -30.893225,20.91687 -56.950037,39.50408 -7.4248852,5.29642 -8.2544573,7.22949 -5.8605801,17.20278 6.6950651,27.89276 16.5545961,69.93266 18.2148521,81.24169 15.635219,2.58366 25.16018,2.30921 40.017933,-0.82715 18.056975,-18.37653 16.234695,-36.19322 16.712201,-51.70436 0.246502,-8.00729 -5.482362,-18.90624 -9.648683,-26.4204 5.349315,-0.98192 9.994923,-1.20188 13.688216,-0.92384"
       id="path970"
       sodipodi:nodetypes="cscssssccscc"
       inkscape:label="fist-outline" />
  </g>
</svg>
