<?xml version="1.0" encoding="UTF-8" standalone="no"?>
<svg
   xmlns:dc="http://purl.org/dc/elements/1.1/"
   xmlns:cc="http://creativecommons.org/ns#"
   xmlns:rdf="http://www.w3.org/1999/02/22-rdf-syntax-ns#"
   xmlns:svg="http://www.w3.org/2000/svg"
   xmlns="http://www.w3.org/2000/svg"
   xmlns:sodipodi="http://sodipodi.sourceforge.net/DTD/sodipodi-0.dtd"
   xmlns:inkscape="http://www.inkscape.org/namespaces/inkscape"
   inkscape:version="1.0 (4035a4f, 2020-05-01)"
   sodipodi:docname="text.svg"
   viewBox="0 0 1024 512"
   height="512"
   width="1024"
   id="svg3751"
   version="1.1">
  <metadata
     id="metadata3757">
    <rdf:RDF>
      <cc:Work
         rdf:about="">
        <dc:format>image/svg+xml</dc:format>
        <dc:type
           rdf:resource="http://purl.org/dc/dcmitype/StillImage" />
        <dc:title></dc:title>
      </cc:Work>
    </rdf:RDF>
  </metadata>
  <defs
     id="defs3755" />
  <sodipodi:namedview
     inkscape:current-layer="g3759"
     inkscape:cy="141.66296"
     inkscape:cx="715.73798"
     inkscape:zoom="1.4142136"
     inkscape:pagecheckerboard="false"
     showgrid="false"
     id="namedview3753"
     inkscape:window-height="480"
     inkscape:window-width="640"
     inkscape:pageshadow="2"
     inkscape:pageopacity="0"
     guidetolerance="10"
     gridtolerance="10"
     objecttolerance="10"
     borderopacity="1"
     bordercolor="#666666"
     pagecolor="#ffffff" />
  <g
     id="g3759"
     inkscape:label="Image"
     inkscape:groupmode="layer">
    <path
       inkscape:label="outline"
       sodipodi:nodetypes="csssccccccccccccccccssscccccssssccssccccccccccccssccsccccccccsccccsssccsccssscsssccccsccccsccccccccccccccssc"
       d="m 910.48739,333.76862 c 20.25205,-9.33821 48.98224,-7.32935 70.70912,2.45122 23.37489,10.52245 23.83579,25.32343 24.96789,46.61917 0.7564,14.22771 -1.547,31.61079 -16.44402,50.20023 -18.75139,23.39917 -36.34993,43.53635 -66.85463,48.04893 m -21.82388,-149.105 c 10.01006,45.38842 8.82694,90.37723 18.78871,138.8232 m -65.32313,-76.27446 c -21.14699,-1.2371 -36.56593,1.77134 -54.67498,5.56189 m 68.64434,67.31212 c -21.92219,-0.95876 -47.71209,-2.35656 -71.28743,14.20902 M 794.84662,326.8694 c 7.08674,50.9151 2.89934,100.00395 4.60882,149.91951 m -11.43808,-142.6725 c 24.11265,-2.87049 50.29306,-3.53052 75.94379,-1.82156 m -150.86132,-4.33254 11.2322,148.25778 M 657.84979,328.67691 c 36.40602,-0.38087 71.71726,-3.4236 108.52006,-3.25986 m -208.73176,-1.6602 c 8.36425,-9.19776 16.77245,-11.48689 30.88284,-11.75958 15.75877,-0.30455 28.25808,4.67953 35.25395,18.72301 6.55194,13.15234 4.40173,27.56433 -8.4804,40.65184 -10.50276,10.6702 -32.48714,28.22581 -44.38961,32.30966 32.23872,21.47122 55.01316,48.98064 81.39215,74.13239 M 553.04647,324.49862 c 6.57073,32.70607 4.30385,94.28034 13.49311,144.34951 M 479.35107,309.81605 c 12.07761,0.60679 17.02044,22.16776 21.79567,36.15266 10.4206,30.51817 13.93511,68.03965 0.97828,96.43447 -4.64311,10.17535 -12.37288,20.95291 -23.55699,21.06249 -33.23502,0.32565 -33.88125,-64.32215 -34.0539,-79.65399 -0.45358,-40.27849 7.83363,-58.7291 15.87272,-71.04754 m -118.47923,2.27282 c 22.67592,-21.17473 39.43399,-18.31278 55.78206,-0.76583 7.4654,8.01288 18.92716,41.60023 11.70522,59.19765 -9.11354,22.2066 -28.46574,36.60163 -46.7957,40.61425 m -7.49089,63.06601 C 347.83336,425.03563 352.58,381.85258 343.83673,324.66636 m -117.50501,-20.405 c 6.60238,16.35264 7.77248,111.50433 7.91745,166.33786 M 211.38686,309.23904 c 27.42973,2.25161 65.33552,2.50865 89.49893,5.02953 m -82.5638,80.86743 c 27.49745,-4.98059 56.49012,-9.02706 87.5984,-5.58622 m -89.51785,90.01499 c 17.93769,-7.45583 50.09959,-11.58223 91.39279,-9.69732 M 94.414459,315.69334 c 13.415551,-11.23353 32.008541,-17.25723 42.193871,-17.63288 33.55336,-1.23748 38.87411,34.90057 22.63634,63.51442 -10.45312,18.42028 -32.03639,48.5258 -62.7025,59.25649 m -2.665038,8.2431 c 13.070318,-16.54478 34.303068,-12.70722 48.774878,-1.06706 37.10256,29.84287 40.6086,42.33639 50.56125,61.74291 M 89.361845,306.32483 c 0,0 1.824835,153.82613 5.451418,187.00611 M 1008.5845,40.385685 C 1005.2423,102.43814 996.48836,169.73732 995.37455,237.30307 M 938.92492,44.709485 c 9.08705,14.540084 27.76491,57.702045 45.52347,83.182565 M 817.22225,46.271919 c 60.1896,-33.271076 126.47392,0.601089 86.32779,77.780721 -13.64632,26.23461 -35.83332,58.55343 -71.5023,97.79813 M 826.15046,52.282118 c -0.42683,50.126752 5.01183,104.924652 7.95106,155.675362 M 765.8419,43.112935 c 22.15859,23.094461 27.30195,51.13641 28.78074,87.951745 1.82445,45.42089 -15.42611,94.24902 -31.86839,94.2668 -26.46688,0.0286 -29.55644,-47.11026 -29.54886,-73.57715 0.0148,-51.876647 20.25217,-100.018587 25.86659,-110.972911 M 617.0277,227.76633 c -4.14048,-32.92597 -2.10401,-63.59445 -2.3577,-95.20795 -0.24546,-30.5867 -0.0407,-56.837777 -2.69561,-91.243683 m -51.78415,16.720576 c 12.71636,-22.739474 58.14086,-30.742099 89.26544,-31.347408 19.04725,-0.370429 31.61149,0.90774 37.14435,10.490938 6.04226,10.465496 1.53722,23.072778 -17.24686,41.856857 -19.12717,19.127169 -31.0123,34.49584 -57.47081,48.6304 19.60979,-3.89348 28.30255,-5.50409 46.69333,-5.50409 16.46056,0 31.23678,5.62981 31.23678,31.02435 0,11.20046 -11.43586,34.32273 -24.75303,49.76931 -13.91241,16.13699 -38.18411,36.17468 -64.35177,41.41112 M 425.58426,63.682987 c 4.28052,55.737593 4.29907,110.414073 10.61528,167.486023 M 395.60009,64.670676 c 100.59278,-39.163589 155.01448,37.603874 81.51366,133.101584 -14.07076,18.28176 -33.7149,44.85753 -55.65141,57.19163 m -92.92503,-96.96052 c 19.61504,-2.48186 40.0344,-4.67669 60.79258,-5.50992 m 5.73255,65.84839 c -2.23185,-13.93847 -9.24452,-31.96902 -17.28084,-57.5612 -12.00172,-38.22016 -26.09729,-82.526484 -32.82764,-95.994964 m -12.5815,167.469514 c 0,-41.45833 9.47055,-160.215135 9.47055,-160.215135 M 212.64124,68.231221 c 21.61388,-0.751851 44.69646,-0.703118 67.18122,-0.421871 m -72.04345,88.25827 c 16.87309,-11.86098 49.86724,-14.2702 65.50204,-14.22787 m -79.02681,91.3814 c 25.75401,-10.29585 75.23248,-21.71328 104.17514,-24.91454 M 217.72729,54.009541 218.16547,234.83811 M 65.967616,54.981222 C 66.525747,118.1108 64.260118,182.58431 70.428789,243.04361 M 15.145943,58.518996 C 52.746012,20.345331 82.504638,20.887193 118.34237,20.179574 c 59.32039,-1.171286 68.66719,38.358552 43.60688,98.669986 -22.09069,53.16457 -35.8705,78.52985 -96.665625,141.20344"
       style="display:inline;fill:none;stroke:#ffffff;stroke-width:28;stroke-linecap:round;stroke-linejoin:round;stroke-miterlimit:4;stroke-dasharray:none;stroke-opacity:1"
       id="path4398" />
    <path
       id="path4416"
       style="fill:none;stroke:#ff0000;stroke-width:16;stroke-linecap:round;stroke-linejoin:round;stroke-miterlimit:4;stroke-dasharray:none;stroke-opacity:1"
       d="m 910.48739,333.76862 c 20.25205,-9.33821 48.98224,-7.32935 70.70912,2.45122 23.37489,10.52245 23.83579,25.32343 24.96789,46.61917 0.7564,14.22771 -1.547,31.61079 -16.44402,50.20023 -18.75139,23.39917 -36.34993,43.53635 -66.85463,48.04893 m -21.82388,-149.105 c 10.01006,45.38842 8.82694,90.37723 18.78871,138.8232 m -65.32313,-76.27446 c -21.14699,-1.2371 -36.56593,1.77134 -54.67498,5.56189 m 68.64434,67.31212 c -21.92219,-0.95876 -47.71209,-2.35656 -71.28743,14.20902 M 794.84662,326.8694 c 7.08674,50.9151 2.89934,100.00395 4.60882,149.91951 m -11.43808,-142.6725 c 24.11265,-2.87049 50.29306,-3.53052 75.94379,-1.82156 m -150.86132,-4.33254 11.2322,148.25778 M 657.84979,328.67691 c 36.40602,-0.38087 71.71726,-3.4236 108.52006,-3.25986 m -208.73176,-1.6602 c 8.36425,-9.19776 16.77245,-11.48689 30.88284,-11.75958 15.75877,-0.30455 28.25808,4.67953 35.25395,18.72301 6.55194,13.15234 4.40173,27.56433 -8.4804,40.65184 -10.50276,10.6702 -32.48714,28.22581 -44.38961,32.30966 32.23872,21.47122 55.01316,48.98064 81.39215,74.13239 M 553.04647,324.49862 c 6.57073,32.70607 4.30385,94.28034 13.49311,144.34951 M 479.35107,309.81605 c 12.07761,0.60679 17.02044,22.16776 21.79567,36.15266 10.4206,30.51817 13.93511,68.03965 0.97828,96.43447 -4.64311,10.17535 -12.37288,20.95291 -23.55699,21.06249 -33.23502,0.32565 -33.88125,-64.32215 -34.0539,-79.65399 -0.45358,-40.27849 7.83363,-58.7291 15.87272,-71.04754 m -118.47923,2.27282 c 22.67592,-21.17473 39.43399,-18.31278 55.78206,-0.76583 7.4654,8.01288 18.92716,41.60023 11.70522,59.19765 -9.11354,22.2066 -28.46574,36.60163 -46.7957,40.61425 m -7.49089,63.06601 C 347.83336,425.03563 352.58,381.85258 343.83673,324.66636 m -117.50501,-20.405 c 6.60238,16.35264 7.77248,111.50433 7.91745,166.33786 M 211.38686,309.23904 c 27.42973,2.25161 65.33552,2.50865 89.49893,5.02953 m -82.5638,80.86743 c 27.49745,-4.98059 56.49012,-9.02706 87.5984,-5.58622 m -89.51785,90.01499 c 17.93769,-7.45583 50.09959,-11.58223 91.39279,-9.69732 M 94.414459,315.69334 c 13.415551,-11.23353 32.008541,-17.25723 42.193871,-17.63288 33.55336,-1.23748 38.87411,34.90057 22.63634,63.51442 -10.45312,18.42028 -32.03639,48.5258 -62.7025,59.25649 m -2.665038,8.2431 c 13.070318,-16.54478 34.303068,-12.70722 48.774878,-1.06706 37.10256,29.84287 40.6086,42.33639 50.56125,61.74291 M 89.361845,306.32483 c 0,0 1.824835,153.82613 5.451418,187.00611 M 1008.5845,40.385685 C 1005.2423,102.43814 996.48836,169.73732 995.37455,237.30307 M 938.92492,44.709485 c 9.08705,14.540084 27.76491,57.702045 45.52347,83.182565 M 817.22225,46.271919 c 60.1896,-33.271076 126.47392,0.601089 86.32779,77.780721 -13.64632,26.23461 -35.83332,58.55343 -71.5023,97.79813 M 826.15046,52.282118 c -0.42683,50.126752 5.01183,104.924652 7.95106,155.675362 M 765.8419,43.112935 c 22.15859,23.094461 27.30195,51.13641 28.78074,87.951745 1.82445,45.42089 -15.42611,94.24902 -31.86839,94.2668 -26.46688,0.0286 -29.55644,-47.11026 -29.54886,-73.57715 0.0148,-51.876647 20.25217,-100.018587 25.86659,-110.972911 M 617.0277,227.76633 c -4.14048,-32.92597 -2.10401,-63.59445 -2.3577,-95.20795 -0.24546,-30.5867 -0.0407,-56.837777 -2.69561,-91.243683 m -51.78415,16.720576 c 12.71636,-22.739474 58.14086,-30.742099 89.26544,-31.347408 19.04725,-0.370429 31.61149,0.90774 37.14435,10.490938 6.04226,10.465496 1.53722,23.072778 -17.24686,41.856857 -19.12717,19.127169 -31.0123,34.49584 -57.47081,48.6304 19.60979,-3.89348 28.30255,-5.50409 46.69333,-5.50409 16.46056,0 31.23678,5.62981 31.23678,31.02435 0,11.20046 -11.43586,34.32273 -24.75303,49.76931 -13.91241,16.13699 -38.18411,36.17468 -64.35177,41.41112 M 425.58426,63.682987 c 4.28052,55.737593 4.29907,110.414073 10.61528,167.486023 M 395.60009,64.670676 c 100.59278,-39.163589 155.01448,37.603874 81.51366,133.101584 -14.07076,18.28176 -33.7149,44.85753 -55.65141,57.19163 m -92.92503,-96.96052 c 19.61504,-2.48186 40.0344,-4.67669 60.79258,-5.50992 m 5.73255,65.84839 c -2.23185,-13.93847 -9.24452,-31.96902 -17.28084,-57.5612 -12.00172,-38.22016 -26.09729,-82.526484 -32.82764,-95.994964 m -12.5815,167.469514 c 0,-41.45833 9.47055,-160.215135 9.47055,-160.215135 M 212.64124,68.231221 c 21.61388,-0.751851 44.69646,-0.703118 67.18122,-0.421871 m -72.04345,88.25827 c 16.87309,-11.86098 49.86724,-14.2702 65.50204,-14.22787 m -79.02681,91.3814 c 25.75401,-10.29585 75.23248,-21.71328 104.17514,-24.91454 M 217.72729,54.009541 218.16547,234.83811 M 65.967616,54.981222 C 66.525747,118.1108 64.260118,182.58431 70.428789,243.04361 M 15.145943,58.518996 C 52.746012,20.345331 82.504638,20.887193 118.34237,20.179574 c 59.32039,-1.171286 68.66719,38.358552 43.60688,98.669986 -22.09069,53.16457 -35.8705,78.52985 -96.665625,141.20344"
       sodipodi:nodetypes="csssccccccccccccccccssscccccssssccssccccccccccccssccsccccccccsccccsssccsccssscsssccccsccccsccccccccccccccssc"
       inkscape:label="text" />
  </g>
</svg>
