<?xml version="1.0" encoding="UTF-8" standalone="no"?>
<svg
   xmlns:dc="http://purl.org/dc/elements/1.1/"
   xmlns:cc="http://creativecommons.org/ns#"
   xmlns:rdf="http://www.w3.org/1999/02/22-rdf-syntax-ns#"
   xmlns:svg="http://www.w3.org/2000/svg"
   xmlns="http://www.w3.org/2000/svg"
   xmlns:sodipodi="http://sodipodi.sourceforge.net/DTD/sodipodi-0.dtd"
   xmlns:inkscape="http://www.inkscape.org/namespaces/inkscape"
   version="1.1"
   id="svg1056"
   width="256"
   height="256"
   viewBox="0 0 256 256"
   sodipodi:docname="crewmate2.svg"
   inkscape:version="1.0.1 (3bc2e81, 2020-09-07)">
  <metadata
     id="metadata1062">
    <rdf:RDF>
      <cc:Work
         rdf:about="">
        <dc:format>image/svg+xml</dc:format>
        <dc:type
           rdf:resource="http://purl.org/dc/dcmitype/StillImage" />
        <dc:title></dc:title>
      </cc:Work>
    </rdf:RDF>
  </metadata>
  <defs
     id="defs1060" />
  <sodipodi:namedview
     pagecolor="#ffffff"
     bordercolor="#666666"
     borderopacity="1"
     objecttolerance="10"
     gridtolerance="10"
     guidetolerance="10"
     inkscape:pageopacity="0"
     inkscape:pageshadow="2"
     inkscape:window-width="640"
     inkscape:window-height="480"
     id="namedview1058"
     showgrid="false"
     inkscape:zoom="1.7642664"
     inkscape:cx="118.11827"
     inkscape:cy="5.5445232"
     inkscape:current-layer="g1064" />
  <g
     inkscape:groupmode="layer"
     inkscape:label="Image"
     id="g1064">
    <path
       style="fill:#ffffff;fill-opacity:1;stroke:none;stroke-width:8;stroke-linecap:butt;stroke-linejoin:round;stroke-miterlimit:4;stroke-dasharray:none;stroke-opacity:1"
       d="M 107.02755,62.589897 C 107.196,43.89785 122.73275,31.52816 142.1764,25.629636 c 19.57159,-5.937334 55.17559,-4.714318 62.27668,13.636921 5.85345,15.126984 -3.42897,31.454505 -29.74822,42.064841 -22.88922,9.227556 -67.93929,10.329483 -67.67731,-18.741501 z"
       id="path1767"
       sodipodi:nodetypes="sssss"
       inkscape:label="fill" />
    <path
       style="display:inline;fill:#c0c0c0;fill-opacity:1;stroke:none;stroke-width:1px;stroke-linecap:butt;stroke-linejoin:miter;stroke-opacity:1"
       d="m 144.12804,28.072792 c -27.50832,11.560014 -21.73772,36.290542 -0.67826,39.407585 17.92257,2.652748 65.92619,-9.049883 54.87949,-33.823498 23.48107,22.281541 -20.08387,57.516306 -64.80723,53.20695 -32.68827,-3.149705 -39.272422,-40.432785 10.606,-58.791037 z"
       id="path1738"
       sodipodi:nodetypes="cscsc"
       inkscape:label="shadow" />
    <path
       style="fill:none;stroke:#222222;stroke-width:8;stroke-linecap:butt;stroke-linejoin:round;stroke-miterlimit:4;stroke-dasharray:none;stroke-opacity:1"
       d="M 107.02755,62.589897 C 107.196,43.89785 122.73275,31.52816 142.1764,25.629636 c 19.57159,-5.937334 55.17559,-4.714318 62.27668,13.636921 5.85345,15.126984 -3.42897,31.454505 -29.74822,42.064841 -22.88922,9.227556 -67.93929,10.329483 -67.67731,-18.741501 z"
       id="path1629"
       sodipodi:nodetypes="sssss"
       inkscape:label="outline" />
  </g>
</svg>
