<?xml version="1.0" encoding="UTF-8" standalone="no"?>
<svg
   xmlns:dc="http://purl.org/dc/elements/1.1/"
   xmlns:cc="http://creativecommons.org/ns#"
   xmlns:rdf="http://www.w3.org/1999/02/22-rdf-syntax-ns#"
   xmlns:svg="http://www.w3.org/2000/svg"
   xmlns="http://www.w3.org/2000/svg"
   xmlns:sodipodi="http://sodipodi.sourceforge.net/DTD/sodipodi-0.dtd"
   xmlns:inkscape="http://www.inkscape.org/namespaces/inkscape"
   version="1.1"
   id="svg965"
   width="256"
   height="256"
   viewBox="0 0 256 256"
   sodipodi:docname="crewmate1.svg"
   inkscape:version="1.0.1 (3bc2e81, 2020-09-07)">
  <metadata
     id="metadata971">
    <rdf:RDF>
      <cc:Work
         rdf:about="">
        <dc:format>image/svg+xml</dc:format>
        <dc:type
           rdf:resource="http://purl.org/dc/dcmitype/StillImage" />
        <dc:title></dc:title>
      </cc:Work>
    </rdf:RDF>
  </metadata>
  <defs
     id="defs969" />
  <sodipodi:namedview
     pagecolor="#ffffff"
     bordercolor="#666666"
     borderopacity="1"
     objecttolerance="10"
     gridtolerance="10"
     guidetolerance="10"
     inkscape:pageopacity="0"
     inkscape:pageshadow="2"
     inkscape:window-width="640"
     inkscape:window-height="480"
     id="namedview967"
     showgrid="false"
     inkscape:zoom="2.9133663"
     inkscape:cx="25.503688"
     inkscape:cy="96.347288"
     inkscape:current-layer="g973" />
  <g
     inkscape:groupmode="layer"
     inkscape:label="Image"
     id="g973"
     style="display:inline">
    <path
       style="fill:#c5c5c5;fill-opacity:1;stroke:none;stroke-width:1px;stroke-linecap:butt;stroke-linejoin:miter;stroke-opacity:1"
       d="M 101.56998,179.90878 C 72.345196,201.11074 60.352461,173.50348 48.073775,148.44125 35.597872,122.97647 33.622208,80.385671 72.410499,75.142213 c 0,0 -3.219945,-23.123987 8.980549,-41.999847 C 97.935826,7.5452955 158.33495,0.37855412 175.6308,18.704847 c 33.31106,35.295659 58.28685,143.391263 30.41683,174.127433 -0.64375,10.36686 -34.06441,67.87363 -61.62449,38.13282 0,0 -29.08375,23.73194 -45.755568,15.25868 -16.671819,-8.47327 -5.416796,-30.82845 -0.984353,-36.48428 4.432441,-5.65584 11.591831,-18.43199 3.886761,-29.83072 z"
       id="path983"
       sodipodi:nodetypes="cscssccssc"
       inkscape:label="fill" />
    <path
       style="fill:#606060;fill-opacity:1;stroke:none;stroke-width:1px;stroke-linecap:butt;stroke-linejoin:miter;stroke-opacity:1"
       d="M 40.084569,123.51565 C 42.364663,108.26777 60.030127,96.147317 76.197277,106.32432 L 77.693021,77.030912 C 80.078353,160.87314 191.32819,219.8839 214.3849,131.24644 c 6.23868,24.03166 2.69778,49.69181 -8.33727,61.58584 -20.89303,38.85847 -41.55045,60.1922 -61.62449,38.13282 -29.65184,28.56352 -73.948935,14.9793 -46.928177,-17.95084 13.308437,-16.21897 11.358837,-26.89531 4.075017,-33.10548 -14.447397,8.97508 -29.413754,14.04538 -38.067628,-5.97714 z"
       id="path986"
       sodipodi:nodetypes="ccccccscsc"
       inkscape:label="shadow" />
    <path
       id="path977"
       style="display:inline;fill:none;stroke:#222222;stroke-width:12;stroke-linecap:round;stroke-linejoin:round;stroke-miterlimit:4;stroke-dasharray:none;stroke-opacity:1"
       d="m 183.47782,186.69575 c -6.37821,2.99801 -13.55745,4.53942 -22.6192,4.74662 0.50634,8.90162 -11.04254,30.07706 -24.19806,43.23258 -11.73884,11.73884 -30.95868,14.82863 -39.928513,7.82461 C 81.829599,230.8631 93.732097,216.29879 99.419292,209.7728 114.08917,192.93929 103.0769,178.67769 96.892501,172.19164 87.199179,162.02552 83.036122,139.15439 79.461319,124.42269 73.310783,99.076442 74.458816,77.351794 74.458816,59.97655 c 0,-11.97723 13.810374,-36.010242 27.264994,-42.160127 13.41887,-6.133547 27.55317,-7.812595 45.24603,-7.812595 17.92824,0 34.3904,13.400788 42.13594,28.624584 16.65904,32.743194 25.33594,77.075278 27.02921,110.737368 0.74278,14.76631 -0.60666,35.41903 -14.5027,42.45455 m 3.62406,3.92445 c -3.83536,10.59412 -9.98451,17.59266 -15.17227,23.87549 -13.90696,16.84255 -29.50787,29.1829 -45.66094,11.34483 M 72.410499,75.142213 C 51.076293,75.257806 42.028694,89.1509 40.511691,104.05373 c -2.401846,23.59541 8.168511,40.72311 16.811649,55.69346 6.770131,11.72621 7.674066,23.35988 18.0989,26.40022 13.470165,3.9285 20.199631,-8.23308 32.04427,-4.281"
       inkscape:label="border"
       sodipodi:nodetypes="ccssssssssssccsccsssc" />
  </g>
</svg>
