<?xml version="1.0" encoding="UTF-8" standalone="no"?>
<svg
   xmlns:dc="http://purl.org/dc/elements/1.1/"
   xmlns:cc="http://creativecommons.org/ns#"
   xmlns:rdf="http://www.w3.org/1999/02/22-rdf-syntax-ns#"
   xmlns:svg="http://www.w3.org/2000/svg"
   xmlns="http://www.w3.org/2000/svg"
   xmlns:sodipodi="http://sodipodi.sourceforge.net/DTD/sodipodi-0.dtd"
   xmlns:inkscape="http://www.inkscape.org/namespaces/inkscape"
   version="1.1"
   id="svg3959"
   width="1024"
   height="312"
   viewBox="0 0 1024 312"
   sodipodi:docname="yes_discuss.svg"
   inkscape:version="1.0.1 (1.0.1+r74)">
  <metadata
     id="metadata3965">
    <rdf:RDF>
      <cc:Work
         rdf:about="">
        <dc:format>image/svg+xml</dc:format>
        <dc:type
           rdf:resource="http://purl.org/dc/dcmitype/StillImage" />
        <dc:title></dc:title>
      </cc:Work>
    </rdf:RDF>
  </metadata>
  <defs
     id="defs3963" />
  <sodipodi:namedview
     pagecolor="#ffffff"
     bordercolor="#666666"
     borderopacity="1"
     objecttolerance="10"
     gridtolerance="10"
     guidetolerance="10"
     inkscape:pageopacity="0"
     inkscape:pageshadow="2"
     inkscape:window-width="2488"
     inkscape:window-height="1370"
     id="namedview3961"
     showgrid="false"
     inkscape:zoom="1.4142136"
     inkscape:cx="231.75499"
     inkscape:cy="100.83529"
     inkscape:window-x="2632"
     inkscape:window-y="33"
     inkscape:window-maximized="1"
     inkscape:current-layer="g3967"
     inkscape:document-rotation="0" />
  <g
     inkscape:label="Image"
     id="g3967">
    <path
       style="display:inline;fill:none;stroke:#000000;stroke-width:40.8083;stroke-linecap:round;stroke-linejoin:round;stroke-miterlimit:4;stroke-dasharray:none;stroke-opacity:1"
       d="m 521.87284,241.46711 c -6.9258,25.61763 -25.51644,71.18121 -60.99797,31.16071 -19.99561,-22.55356 -24.67369,-58.48959 -25.23822,-86.70582 -0.52915,-26.44753 3.06846,-52.69677 10.15523,-79.14495 10.15892,-37.913605 35.91985,-86.387147 54.56289,-85.347355 M 84.56781,243.35189 C 85.377948,177.51204 86.60459,129.89102 88.148424,72.969062 M 290.43614,289.55439 c 40.4822,-26.20576 54.24151,-46.72174 68.69634,-66.13261 23.04244,-30.94283 29.09236,-49.33642 23.55948,-67.86542 -5.73769,-19.2149 -27.85337,-30.28815 -54.56255,-30.71159 -49.96618,-0.79213 -73.84605,-13.6017 -49.64495,-42.420061 11.9221,-14.196665 31.75295,-33.68564 50.04728,-48.085732 13.88948,-10.932892 30.16189,-13.250535 41.61977,-8.883659 M 724.11266,287.49797 c 34.01157,-19.12004 65.81661,-43.95943 76.47433,-76.46736 7.24195,-22.08923 6.78385,-37.28936 3.88599,-48.10434 -3.80641,-14.20573 -15.44004,-29.70383 -28.68223,-37.01073 -17.2824,-9.53626 -47.11849,-10.5933 -51.13339,-24.32137 -5.63837,-19.279133 42.53977,-67.421764 76.9173,-78.788304 m 46.45003,263.311964 c 21.42124,-8.35969 41.68534,-17.56152 61.29682,-42.40794 C 924.2969,224.73706 937.5004,166.88541 881.22608,142.21823 852.94431,129.82126 838.7403,113.2109 851.55365,80.63482 856.03791,69.234245 866.58615,56.996438 877.65308,46.820846 901.64169,24.764332 904.84976,23.283638 917.48337,24.424524 M 679.10868,288.6732 C 673.60296,247.64086 671.77872,215.75835 668.7548,181.99325 664.05815,129.55043 657.73466,76.312516 651.49188,25.027792 c 4.23118,69.228815 5.37998,147.776278 -4.70127,185.399998 -4.98077,18.58845 -7.03825,29.22909 -12.99096,42.51064 -8.74312,19.50745 -11.94605,31.00015 -24.1463,30.78947 -14.92064,-0.25766 -31.51111,-40.74811 -39.09002,-60.38118 -7.89316,-20.44713 -12.59831,-39.82479 -15.53268,-61.12888 -3.70378,-26.89026 -4.3563,-56.59427 -3.75259,-79.704282 0.50779,-19.438051 0.44873,-40.443258 1.9463,-57.51756 m -331.38175,-1.29493 c 0.91,78.561962 -9.01176,158.429852 3.85816,264.960232 M 1002.5959,26.981938 C 998.82468,91.624451 991.76355,159.26433 987.91733,217.04237 M 21.404139,99.741197 C 36.363477,80.67449 55.630741,59.447519 83.005599,42.452055 129.4368,13.625612 166.40969,21.165311 166.80974,58.546981 c 0.35292,32.97763 -5.11071,62.740239 -16.81724,90.731589 -12.6356,30.21284 -37.15966,92.36307 -76.439327,137.95113 M 982.74547,275.60771 v 2.26712"
       id="path4562"
       sodipodi:nodetypes="csssccccsssssccssssccssssccscssssssccccccsssccc"
       inkscape:label="text-outline" />
    <path
       style="display:inline;fill:none;stroke:#ffffff;stroke-width:22.6713;stroke-linecap:round;stroke-linejoin:round;stroke-miterlimit:4;stroke-dasharray:none;stroke-opacity:1"
       d="m 521.87284,241.46711 c -6.9258,25.61763 -25.51644,71.18121 -60.99797,31.16071 -19.99561,-22.55356 -24.67369,-58.48959 -25.23822,-86.70582 -0.52915,-26.44753 3.06846,-52.69677 10.15523,-79.14495 10.15892,-37.913605 35.91985,-86.387147 54.56289,-85.347355 M 84.56781,243.35189 C 85.377948,177.51204 86.60459,129.89102 88.148424,72.969062 M 290.43614,289.55439 c 40.4822,-26.20576 54.24151,-46.72174 68.69634,-66.13261 23.04244,-30.94283 29.09236,-49.33642 23.55948,-67.86542 -5.73769,-19.2149 -27.85337,-30.28815 -54.56255,-30.71159 -49.96618,-0.79213 -73.84605,-13.6017 -49.64495,-42.420061 11.9221,-14.196665 31.75295,-33.68564 50.04728,-48.085732 13.88948,-10.932892 30.16189,-13.250535 41.61977,-8.883659 M 724.11266,287.49797 c 34.01157,-19.12004 65.81661,-43.95943 76.47433,-76.46736 7.24195,-22.08923 6.78385,-37.28936 3.88599,-48.10434 -3.80641,-14.20573 -15.44004,-29.70383 -28.68223,-37.01073 -17.2824,-9.53626 -47.11849,-10.5933 -51.13339,-24.32137 -5.63837,-19.279133 42.53977,-67.421764 76.9173,-78.788304 m 46.45003,263.311964 c 21.42124,-8.35969 41.68534,-17.56152 61.29682,-42.40794 C 924.2969,224.73706 937.5004,166.88541 881.22608,142.21823 852.94431,129.82126 838.7403,113.2109 851.55365,80.63482 856.03791,69.234245 866.58615,56.996438 877.65308,46.820846 901.64169,24.764332 904.84976,23.283638 917.48337,24.424524 M 679.10868,288.6732 C 673.60296,247.64086 671.77872,215.75835 668.7548,181.99325 664.05815,129.55043 657.73466,76.312516 651.49188,25.027792 c 4.23118,69.228815 5.37998,147.776278 -4.70127,185.399998 -4.98077,18.58845 -7.03825,29.22909 -12.99096,42.51064 -8.74312,19.50745 -11.94605,31.00015 -24.1463,30.78947 -14.92064,-0.25766 -31.51111,-40.74811 -39.09002,-60.38118 -7.89316,-20.44713 -12.59831,-39.82479 -15.53268,-61.12888 -3.70378,-26.89026 -4.3563,-56.59427 -3.75259,-79.704282 0.50779,-19.438051 0.44873,-40.443258 1.9463,-57.51756 m -331.38175,-1.29493 c 0.91,78.561962 -9.01176,158.429852 3.85816,264.960232 M 1002.5959,26.981938 C 998.82468,91.624451 991.76355,159.26433 987.91733,217.04237 M 21.404139,99.741197 C 36.363477,80.67449 55.630741,59.447519 83.005599,42.452055 129.4368,13.625612 166.40969,21.165311 166.80974,58.546981 c 0.35292,32.97763 -5.11071,62.740239 -16.81724,90.731589 -12.6356,30.21284 -37.15966,92.36307 -76.439327,137.95113 M 982.74547,275.60771 v 2.26712"
       id="path4568"
       sodipodi:nodetypes="csssccccsssssccssssccssssccscssssssccccccsssccc"
       inkscape:label="text" />
  </g>
</svg>
