<?xml version="1.0" encoding="UTF-8" standalone="no"?>
<svg
   xmlns:dc="http://purl.org/dc/elements/1.1/"
   xmlns:cc="http://creativecommons.org/ns#"
   xmlns:rdf="http://www.w3.org/1999/02/22-rdf-syntax-ns#"
   xmlns:svg="http://www.w3.org/2000/svg"
   xmlns="http://www.w3.org/2000/svg"
   xmlns:sodipodi="http://sodipodi.sourceforge.net/DTD/sodipodi-0.dtd"
   xmlns:inkscape="http://www.inkscape.org/namespaces/inkscape"
   version="1.1"
   id="svg1884"
   width="256"
   height="256"
   viewBox="0 0 256 256"
   sodipodi:docname="report.svg"
   inkscape:version="1.0.1 (1.0.1+r73)">
  <sodipodi:namedview
     pagecolor="#ffffff"
     bordercolor="#666666"
     borderopacity="1"
     objecttolerance="10"
     gridtolerance="10"
     guidetolerance="10"
     inkscape:pageopacity="0"
     inkscape:pageshadow="2"
     inkscape:window-width="2488"
     inkscape:window-height="1370"
     id="namedview1089"
     showgrid="false"
     inkscape:zoom="2.784233"
     inkscape:cx="52.985719"
     inkscape:cy="114.63837"
     inkscape:window-x="2632"
     inkscape:window-y="33"
     inkscape:window-maximized="1"
     inkscape:current-layer="layer1"
     inkscape:document-rotation="0"
     inkscape:snap-nodes="false" />
  <metadata
     id="metadata1890">
    <rdf:RDF>
      <cc:Work
         rdf:about="">
        <dc:format>image/svg+xml</dc:format>
        <dc:type
           rdf:resource="http://purl.org/dc/dcmitype/StillImage" />
        <dc:title />
      </cc:Work>
    </rdf:RDF>
  </metadata>
  <defs
     id="defs1888" />
  <g
     inkscape:groupmode="layer"
     id="layer1"
     inkscape:label="Image">
    <path
       style="display:inline;fill:none;stroke:#000000;stroke-width:23.4357;stroke-linecap:round;stroke-linejoin:round;stroke-miterlimit:4;stroke-dasharray:none;stroke-opacity:1"
       d="m 205.51971,186.39882 c 1.16436,15.66228 1.66153,31.03409 1.86944,46.27983 m -14.6767,-46.65592 c 7.97244,-0.43198 16.37968,-0.83675 25.24748,0.66854 m -53.81262,5.12846 c 1.83618,-9.09563 9.59896,-9.95874 14.55383,-6.28045 5.19241,3.85462 6.13771,17.36724 -9.45369,28.28549 9.70069,1.48656 15.80482,9.36792 21.00416,17.51545 m -22.45786,0.55548 -2.5022,-45.85653 m -22.58494,-0.24453 c 5.07344,-0.18781 10.08584,12.6327 10.57364,23.00384 0.4878,10.37116 -1.29881,23.65434 -8.76405,23.8862 -7.46525,0.23186 -9.8947,-14.21518 -10.08193,-23.61348 -0.18723,-9.39831 3.1989,-23.08874 8.27234,-23.27656 z m -32.05659,50.44035 -2.83765,-50.16113 c 14.7739,-3.8541 16.3231,-0.65216 17.31594,3.80505 1.46751,6.58813 -5.57463,16.30952 -14.63164,17.82337 M 71.861068,185.58603 c 6.783573,0.0625 14.666279,0.39202 21.913322,2.12468 m -17.366189,21.51622 c 7.194881,-0.70005 12.915174,-0.31517 20.009566,-0.076 m -22.556939,25.11874 c 6.59798,-4.24652 13.648374,-5.14657 21.676391,-6.00201 m -20.048417,-44.29287 2.991149,47.83486 M 35.627095,187.38731 c 9.546144,-8.114 21.630496,-5.08082 23.077031,3.13824 1.539341,8.74637 -7.020474,18.71147 -18.293581,20.10367 10.635266,0.35653 19.996288,11.41375 23.13557,24.01958 M 38.88826,184.70126 c -1.428054,2.85675 -0.754158,41.48143 -0.260118,49.7518"
       id="path1787"
       inkscape:label="text-border-black" />
    <path
       style="display:inline;fill:#ffffff;fill-opacity:1;stroke:#000000;stroke-width:5.85892;stroke-linecap:butt;stroke-linejoin:miter;stroke-miterlimit:4;stroke-dasharray:none;stroke-opacity:1"
       d="m 122.10848,11.04059 c -3.28118,0.393813 -6.52102,2.470204 -8.50611,6.461592 -1.13735,2.286876 -2.135,3.481873 -3.24223,5.397373 -3.16594,-5.094412 -9.5351,-6.220717 -15.249972,-1.29308 -1.515739,1.306929 -4.27189,4.154509 -7.098597,6.881175 C 86.003689,25.775994 83.928822,22.889691 81.668227,20.099788 75.788931,12.843921 66.947074,14.22978 63.732923,23.12842 61.07639,30.483271 58.620111,34.331794 56.63814,36.356755 50.7878,42.333998 42.614199,31.580443 24.509459,19.931953 15.209998,13.948701 4.2526062,23.788923 9.8354654,33.740077 33.538342,75.988753 36.404853,91.799204 34.518442,96.71199 c -1.044333,2.719754 -6.902855,2.247684 -19.625084,5.19902 -9.1757888,2.12869 -10.9515136,14.81315 -2.570905,19.3085 20.492309,10.99199 19.826867,21.5108 4.981606,37.97615 -6.80921,7.55252 -0.177935,19.15193 9.768676,17.15717 21.284859,-4.26875 23.881359,1.73258 24.564727,5.95046 1.330037,8.20923 -3.30255,21.89581 -8.62054,32.15157 -5.261778,10.14731 6.939799,19.71027 15.597077,12.95369 32.275685,-25.19115 45.231741,-21.19449 55.388891,6.24418 3.32291,8.97582 11.64484,10.65848 17.90097,2.96379 14.73285,-18.12251 39.75127,-11.67809 45.87578,-5.53851 0.0354,0.0355 0.72492,0.76264 1.65163,1.41514 5.95376,4.19208 22.44212,3.2459 24.31299,3.20792 8.28432,-0.16796 12.42216,-6.02108 9.68475,-13.91112 -12.41893,-35.78261 3.17233,-43.4871 27.16235,-48.5039 8.85007,-1.85072 11.39638,-12.29244 4.68407,-18.09932 -30.26412,-26.17721 -27.65415,-42.91327 -4.15007,-65.340658 8.27922,-7.899435 2.52149,-19.307107 -8.5557,-17.824686 C 194.42618,77.1261 200.09459,58.828822 210.35843,25.909117 213.7068,15.163935 200.75547,7.4341202 192.92661,15.67127 171.94909,37.747115 154.80695,48.110748 145.34199,48.536131 139.74028,48.787888 133.62454,44.662834 133.28086,21.965029 133.16625,14.394779 127.57712,10.384235 122.10848,11.04059 Z"
       id="path3650"
       inkscape:label="splash-border" />
    <path
       style="display:inline;fill:#dd2200;fill-opacity:1;stroke:none;stroke-width:1.95297px;stroke-linecap:butt;stroke-linejoin:miter;stroke-opacity:1"
       d="m 18.752188,28.514134 c 19.423936,12.423665 40.095894,38.804073 54.765167,-2.060476 4.476142,5.496467 8.820999,12.361953 13.553356,17.127081 l 17.444759,3.73296 c 5.06585,-3.667502 11.82336,-12.054612 18.42935,-25.385753 0.70194,51.963555 34.37296,46.282382 77.60907,0.720754 -10.82519,34.686457 -17.87554,66.551997 33.57823,59.588197 -28.072,26.715413 -30.89098,50.324693 4.53344,80.892613 -28.23098,5.86816 -50.26853,18.26519 -34.93458,62.23391 0,0 -16.69583,0.40313 -18.49945,-1.44292 -10.88162,-11.13762 -43.24595,-16.29128 -61.46942,6.32728 -13.09896,-35.56954 -34.441136,-39.97328 -71.66103,-10.86491 11.47513,-22.0348 23.597924,-63.41926 -27.253206,-53.12284 19.048967,-21.04513 19.62709,-39.60025 -7.810478,-54.23824 21.862601,-5.15143 49.837002,2.21054 1.714792,-83.507656 z"
       id="path3652"
       inkscape:label="splash" />
    <g
       id="g873"
       style="display:inline"
       transform="matrix(1.5679496,0.064761,-0.06495128,1.5633563,37.75762,21.509389)">
      <path
         style="fill:#5f4741;fill-opacity:1;stroke:none;stroke-width:1.91785;stroke-linecap:round;stroke-linejoin:round;stroke-miterlimit:4;stroke-dasharray:none;stroke-opacity:1"
         d="m 79.159856,85.775601 c 1.53158,12.978035 -2.500306,21.865569 -15.312066,28.073459 6.875603,7.68616 11.129473,9.63159 19.972976,8.71457 -1.62121,-8.68796 4.115642,-21.85343 9.163977,-31.374767"
         id="path2525"
         sodipodi:nodetypes="cccc"
         inkscape:label="handle-fill" />
      <path
         style="fill:none;stroke:#4e332e;stroke-width:1.91785;stroke-linecap:butt;stroke-linejoin:miter;stroke-miterlimit:4;stroke-dasharray:none;stroke-opacity:1"
         d="m 71.048508,109.64986 13.7339,8.79071 m 1.114085,-7.89951 -9.749562,-6.31481 m 3.116922,-6.767141 8.519531,5.596111 m 2.730739,-6.44786 -11.022926,-7.254322"
         id="path2528"
         sodipodi:nodetypes="cccccccc"
         inkscape:label="handle-wrapping" />
      <path
         style="fill:none;stroke:#4e332e;stroke-width:2.87676;stroke-linecap:round;stroke-linejoin:round;stroke-miterlimit:4;stroke-dasharray:none;stroke-opacity:1"
         d="m 79.565856,85.937912 c 0.804448,11.463321 -3.497961,21.351278 -15.718066,27.911148 5.566841,5.60484 11.987682,8.52543 19.972976,8.71457 0.455042,-7.87842 4.115642,-21.85343 9.163977,-31.374767"
         id="path2522"
         sodipodi:nodetypes="cccc"
         inkscape:label="handle-outline" />
      <path
         style="display:inline;fill:#dadfe1;fill-opacity:1;stroke:#555555;stroke-width:2.87676;stroke-linecap:butt;stroke-linejoin:round;stroke-miterlimit:4;stroke-dasharray:none;stroke-opacity:1"
         d="M 7.6614671,88.769913 C 5.8308398,56.460085 17.371672,27.582089 40.965012,5.4362696 45.913226,43.314918 63.906261,46.185714 107.62817,63.664883 l 9.73622,11.547618 -6.26503,15.676626 -15.012031,1.653751 C 52.365429,75.06371 37.020718,65.183031 7.6614671,88.769913 Z"
         id="path2350"
         sodipodi:nodetypes="ccccccc"
         inkscape:label="megaphone-fill" />
      <path
         style="fill:none;stroke:#db4d27;stroke-width:5.27407;stroke-linecap:butt;stroke-linejoin:miter;stroke-miterlimit:4;stroke-dasharray:none;stroke-opacity:1"
         d="M 61.611813,43.251396 C 52.861037,52.061851 49.173098,63.121037 48.707208,75.541885 m -9.801282,-0.315222 c 0.352046,-15.097906 4.396671,-27.86305 15.199373,-38.032562"
         id="path2501"
         inkscape:label="marks"
         sodipodi:nodetypes="cccc" />
      <path
         style="display:inline;fill:#000000;fill-opacity:0.32;stroke:none;stroke-width:0.958923px;stroke-linecap:butt;stroke-linejoin:miter;stroke-opacity:1"
         d="M 42.857843,17.875281 41.942731,13.565938 C 24.241323,26.610783 12.956711,55.114039 13.315303,79.823344 39.107122,63.906628 55.170235,72.593715 97.377945,89.357836 l 15.112815,-1.658139 3.68106,-9.503103 -27.246288,0.686846 C 67.559834,62.3753 43.242011,57.988341 25.116373,62.061348 25.219577,46.534791 33.164186,28.275922 42.857843,17.875281 Z"
         id="path2457"
         sodipodi:nodetypes="ccccccccc"
         inkscape:label="megaphone-shadow" />
      <path
         style="fill:none;stroke:#ffffff;stroke-width:1.91785;stroke-linecap:round;stroke-linejoin:round;stroke-miterlimit:4;stroke-dasharray:none;stroke-opacity:0.75"
         d="m 40.474444,27.476427 c 2.320659,8.364953 12.65064,19.876266 33.985281,27.819617 15.444928,5.750482 31.470585,12.290929 31.470585,12.290929"
         id="path2495"
         sodipodi:nodetypes="csc"
         inkscape:label="megaphone-highlight" />
      <path
         id="path2613"
         style="fill:none;stroke:#555555;stroke-width:2.87676;stroke-linecap:round;stroke-linejoin:round;stroke-miterlimit:4;stroke-dasharray:none;stroke-opacity:1"
         d="m 117.36439,75.212501 4.92959,-0.289474 M 107.62817,63.664883 96.087329,92.542878 M 7.6617765,88.769865 C 5.8311491,56.460038 17.371981,27.582043 40.965322,5.4362218 45.913538,43.314871 63.906571,46.185668 107.62848,63.664834 l 9.73622,11.547619 -6.26503,15.676625 -15.012024,1.653751 C 52.365739,75.063662 37.021027,65.182982 7.6617765,88.769865 Z"
         inkscape:label="magaphone-outline"
         sodipodi:nodetypes="ccccccccccc" />
      <rect
         style="display:inline;fill:#db4d27;fill-opacity:1;stroke:none;stroke-width:2.87676;stroke-linejoin:round;stroke-miterlimit:4;stroke-dasharray:none;stroke-opacity:1"
         id="rect2424-7"
         width="9.7726421"
         height="36.429909"
         x="84.922501"
         y="16.497034"
         inkscape:label="band-fill"
         transform="matrix(0.92854693,0.37121503,-0.37110332,0.92859158,0,0)" />
      <rect
         style="fill:#95351b;fill-opacity:1;stroke:none;stroke-width:2.87676;stroke-linejoin:round;stroke-miterlimit:4;stroke-dasharray:none;stroke-opacity:1"
         id="rect2491"
         width="9.9147243"
         height="11.042416"
         x="84.958672"
         y="38.309502"
         inkscape:label="band-shadow"
         ry="0"
         transform="matrix(0.92854693,0.37121503,-0.37110332,0.92859158,0,0)" />
      <path
         style="fill:none;stroke:#ffffff;stroke-width:1.91785;stroke-linecap:butt;stroke-linejoin:miter;stroke-miterlimit:4;stroke-dasharray:none;stroke-opacity:0.75"
         d="m 70.249738,53.573 c 3.138593,1.231985 6.076579,2.397736 9.16959,3.56"
         id="path2516"
         inkscape:label="band-highlight"
         sodipodi:nodetypes="cc" />
      <rect
         style="display:inline;fill:none;fill-opacity:1;stroke:#703025;stroke-width:2.87676;stroke-linejoin:round;stroke-miterlimit:4;stroke-dasharray:none;stroke-opacity:1"
         id="rect2424"
         width="9.7726421"
         height="36.429909"
         x="84.922501"
         y="16.497034"
         inkscape:label="band-outline"
         transform="matrix(0.92854693,0.37121503,-0.37110332,0.92859158,0,0)" />
    </g>
    <path
       style="display:inline;fill:none;stroke:#fefefe;stroke-width:15.6238;stroke-linecap:round;stroke-linejoin:round;stroke-miterlimit:4;stroke-dasharray:none;stroke-opacity:1"
       d="m 205.51971,186.39882 c 1.16436,15.66228 1.66153,31.03409 1.86944,46.27983 m -14.6767,-46.65592 c 7.97244,-0.43198 16.37968,-0.83675 25.24748,0.66854 m -53.81262,5.12846 c 1.83618,-9.09563 9.59896,-9.95874 14.55383,-6.28045 5.19241,3.85462 6.13771,17.36724 -9.45369,28.28549 9.70069,1.48656 15.80482,9.36792 21.00416,17.51545 m -22.45786,0.55548 -2.5022,-45.85653 m -22.58494,-0.24453 c 5.07344,-0.18781 10.08584,12.6327 10.57364,23.00384 0.4878,10.37116 -1.29881,23.65434 -8.76405,23.8862 -7.46525,0.23186 -9.8947,-14.21518 -10.08193,-23.61348 -0.18723,-9.39831 3.1989,-23.08874 8.27234,-23.27656 z m -32.05659,50.44035 -2.83765,-50.16113 c 14.7739,-3.8541 16.3231,-0.65216 17.31594,3.80505 1.46751,6.58813 -5.57463,16.30952 -14.63164,17.82337 M 71.861068,185.58603 c 6.783573,0.0625 14.666279,0.39202 21.913322,2.12468 m -17.366189,21.51622 c 7.194881,-0.70005 12.915174,-0.31517 20.009566,-0.076 m -22.556939,25.11874 c 6.59798,-4.24652 13.648374,-5.14657 21.676391,-6.00201 m -20.048417,-44.29287 2.991149,47.83486 M 35.627095,187.38731 c 9.546144,-8.114 21.630496,-5.08082 23.077031,3.13824 1.539341,8.74637 -7.020474,18.71147 -18.293581,20.10367 10.635266,0.35653 19.996288,11.41375 23.13557,24.01958 M 38.88826,184.70126 c -1.428054,2.85675 -0.754158,41.48143 -0.260118,49.7518"
       id="path1785"
       inkscape:label="text-outline" />
    <path
       style="display:inline;fill:none;stroke:#000000;stroke-width:5.85892;stroke-linecap:round;stroke-linejoin:round;stroke-miterlimit:4;stroke-dasharray:none;stroke-opacity:1"
       d="m 205.51971,186.39882 c 1.16436,15.66228 1.66153,31.03409 1.86944,46.27983 m -14.6767,-46.65592 c 7.97244,-0.43198 16.37968,-0.83675 25.24748,0.66854 m -53.81262,5.12846 c 1.83618,-9.09563 9.59896,-9.95874 14.55383,-6.28045 5.19241,3.85462 6.13771,17.36724 -9.45369,28.28549 9.70069,1.48656 15.80482,9.36792 21.00416,17.51545 m -22.45786,0.55548 -2.5022,-45.85653 m -22.58494,-0.24453 c 5.07344,-0.18781 10.08584,12.6327 10.57364,23.00384 0.4878,10.37116 -1.29881,23.65434 -8.76405,23.8862 -7.46525,0.23186 -9.8947,-14.21518 -10.08193,-23.61348 -0.18723,-9.39831 3.1989,-23.08874 8.27234,-23.27656 z m -32.05659,50.44035 -2.83765,-50.16113 c 14.7739,-3.8541 16.3231,-0.65216 17.31594,3.80505 1.46751,6.58813 -5.57463,16.30952 -14.63164,17.82337 M 71.861068,185.58603 c 6.783573,0.0625 14.666279,0.39202 21.913322,2.12468 m -17.366189,21.51622 c 7.194881,-0.70005 12.915174,-0.31517 20.009566,-0.076 m -22.556939,25.11874 c 6.59798,-4.24652 13.648374,-5.14657 21.676391,-6.00201 m -20.048417,-44.29287 2.991149,47.83486 M 35.627095,187.38731 c 9.546144,-8.114 21.630496,-5.08082 23.077031,3.13824 1.539341,8.74637 -7.020474,18.71147 -18.293581,20.10367 10.635266,0.35653 19.996288,11.41375 23.13557,24.01958 M 38.88826,184.70126 c -1.428054,2.85675 -0.754158,41.48143 -0.260118,49.7518"
       id="path1082"
       inkscape:label="text" />
  </g>
</svg>
