<?xml version="1.0" encoding="UTF-8" standalone="no"?>
<svg
   xmlns:dc="http://purl.org/dc/elements/1.1/"
   xmlns:cc="http://creativecommons.org/ns#"
   xmlns:rdf="http://www.w3.org/1999/02/22-rdf-syntax-ns#"
   xmlns:svg="http://www.w3.org/2000/svg"
   xmlns="http://www.w3.org/2000/svg"
   xmlns:sodipodi="http://sodipodi.sourceforge.net/DTD/sodipodi-0.dtd"
   xmlns:inkscape="http://www.inkscape.org/namespaces/inkscape"
   version="1.1"
   id="svg1413"
   width="128"
   height="128"
   viewBox="0 0 128 128"
   sodipodi:docname="sabotage_doors.svg"
   inkscape:version="1.0.1 (3bc2e81, 2020-09-07)">
  <metadata
     id="metadata1419">
    <rdf:RDF>
      <cc:Work
         rdf:about="">
        <dc:format>image/svg+xml</dc:format>
        <dc:type
           rdf:resource="http://purl.org/dc/dcmitype/StillImage" />
        <dc:title></dc:title>
      </cc:Work>
    </rdf:RDF>
  </metadata>
  <defs
     id="defs1417">
    <clipPath
       clipPathUnits="userSpaceOnUse"
       id="clipPath3064">
      <circle
         style="display:inline;fill:#efefef;fill-opacity:1;stroke:none;stroke-width:2;stroke-linecap:round;stroke-linejoin:round;stroke-miterlimit:4;stroke-dasharray:none;stroke-opacity:1"
         id="circle3066"
         cx="64"
         cy="64"
         inkscape:label="little-circle-clip"
         r="51" />
    </clipPath>
  </defs>
  <sodipodi:namedview
     pagecolor="#ffffff"
     bordercolor="#666666"
     borderopacity="1"
     objecttolerance="10"
     gridtolerance="10"
     guidetolerance="10"
     inkscape:pageopacity="0"
     inkscape:pageshadow="2"
     inkscape:window-width="640"
     inkscape:window-height="480"
     id="namedview1415"
     showgrid="false"
     showguides="true"
     inkscape:guide-bbox="true"
     inkscape:zoom="1"
     inkscape:cx="-16.351958"
     inkscape:cy="17.736555"
     inkscape:current-layer="g1421" />
  <g
     inkscape:label="Image"
     id="g1421">
    <circle
       style="display:inline;fill:#abbbbb;fill-opacity:1;stroke:#333333;stroke-width:4;stroke-linecap:round;stroke-linejoin:round;stroke-miterlimit:4;stroke-dasharray:none;stroke-opacity:1"
       id="path1738"
       cx="64"
       cy="64"
       inkscape:label="big-circle"
       r="61" />
    <path
       id="circle1756"
       style="display:inline;fill:#556666;fill-opacity:1;stroke:none;stroke-width:3.875;stroke-linecap:round;stroke-linejoin:round;stroke-miterlimit:4;stroke-dasharray:none;stroke-opacity:1"
       inkscape:label="shadow"
       d="m 8.5211048,64.000002 a 55.500001,55.510907 0 0 0 -0.0211,1.489092 A 55.500001,55.510907 0 0 0 64.000007,121 55.500001,55.510907 0 0 0 119.5,65.489094 55.500001,55.510907 0 0 0 119.4789,64.030706 55.500001,55.510907 0 0 1 64.000007,118.05251 55.500001,55.510907 0 0 1 8.5211088,64.000002 Z" />
    <path
       id="circle1772"
       style="display:inline;fill:#efefef;fill-opacity:1;stroke:none;stroke-width:3.875;stroke-linecap:round;stroke-linejoin:round;stroke-miterlimit:4;stroke-dasharray:none;stroke-opacity:1"
       inkscape:label="highlight"
       d="M 63.744815,7.0001485 A 55.499981,55.510764 0 0 0 8.5000008,62.510914 a 55.499981,55.510764 0 0 0 0.0211,1.458385 55.499981,55.510764 0 0 1 55.4788782,-54.0216765 55.499981,55.510764 0 0 1 55.478881,54.0523795 55.499981,55.510764 0 0 0 0.0211,-1.489088 55.499981,55.510764 0 0 0 -55.499981,-55.5107655 55.499981,55.510764 0 0 0 -0.255168,0 z" />
    <g
       id="g3049"
       inkscape:label="door"
       clip-path="url(#clipPath3064)">
      <rect
         style="fill:#aabbbb;fill-opacity:1;stroke:#333344;stroke-width:6;stroke-linecap:square;stroke-miterlimit:4;stroke-dasharray:none;stroke-opacity:1;stop-color:#000000"
         id="rect3045"
         width="122"
         height="98"
         x="3"
         y="15"
         ry="0"
         inkscape:label="door" />
      <path
         style="fill:none;stroke:#333344;stroke-width:4;stroke-linecap:butt;stroke-linejoin:miter;stroke-miterlimit:4;stroke-dasharray:none;stroke-opacity:1"
         d="m 64,15 v 98"
         id="path3068"
         sodipodi:nodetypes="cc"
         inkscape:label="divider" />
      <path
         id="rect3076"
         style="fill:#eeeeee;fill-opacity:1;stroke:#313142;stroke-width:1.5;stroke-linecap:square;stroke-miterlimit:4;stroke-dasharray:none;stroke-opacity:1;stop-color:#000000"
         inkscape:label="panels"
         d="M 6,26 V 58 H 42 V 54 C 42,45.136 49.136,38 58,38 V 26 Z m 64,0 v 12 c 8.864,0 16,7.136 16,16 v 4 h 36 V 26 Z M 6,70 v 32 H 58 V 90 C 49.136,90 42,82.864 42,74 v -4 z m 80,0 v 4 c 0,8.864 -7.136,16 -16,16 v 12 h 52 V 70 Z" />
      <rect
         style="display:inline;fill:none;fill-opacity:1;stroke:#313142;stroke-width:1.5;stroke-linecap:square;stroke-miterlimit:4;stroke-dasharray:none;stroke-opacity:1;stop-color:#000000"
         id="rect3100"
         width="20"
         height="26"
         x="54"
         y="51"
         rx="10"
         ry="10" />
      <rect
         style="display:inline;fill:none;fill-opacity:1;stroke:#313142;stroke-width:1.5;stroke-linecap:square;stroke-miterlimit:4;stroke-dasharray:none;stroke-opacity:1;stop-color:#000000"
         id="rect3097"
         width="28"
         height="34"
         x="50"
         y="47"
         rx="13"
         ry="13" />
    </g>
    <circle
       style="display:inline;fill:none;fill-opacity:1;stroke:#cc3300;stroke-width:2;stroke-linecap:round;stroke-linejoin:round;stroke-miterlimit:4;stroke-dasharray:none;stroke-opacity:1"
       id="path1742"
       cx="64"
       cy="64"
       inkscape:label="little-circle"
       r="51" />
    <path
       id="path3036"
       style="display:inline;fill:none;stroke:#cc3300;stroke-width:11;stroke-linecap:butt;stroke-linejoin:miter;stroke-miterlimit:4;stroke-dasharray:none;stroke-opacity:1"
       d="M 36,92 92,36 m -56,0 56,56"
       sodipodi:nodetypes="cccc"
       inkscape:label="cross" />
  </g>
</svg>
