<?xml version="1.0" encoding="UTF-8" standalone="no"?>
<svg
   xmlns:dc="http://purl.org/dc/elements/1.1/"
   xmlns:cc="http://creativecommons.org/ns#"
   xmlns:rdf="http://www.w3.org/1999/02/22-rdf-syntax-ns#"
   xmlns:svg="http://www.w3.org/2000/svg"
   xmlns="http://www.w3.org/2000/svg"
   xmlns:sodipodi="http://sodipodi.sourceforge.net/DTD/sodipodi-0.dtd"
   xmlns:inkscape="http://www.inkscape.org/namespaces/inkscape"
   version="1.1"
   id="svg3959"
   width="457"
   height="136"
   viewBox="0 0 457 136"
   sodipodi:docname="yes_discuss.png.svg"
   inkscape:version="1.0.1 (3bc2e81, 2020-09-07)">
  <metadata
     id="metadata3965">
    <rdf:RDF>
      <cc:Work
         rdf:about="">
        <dc:format>image/svg+xml</dc:format>
        <dc:type
           rdf:resource="http://purl.org/dc/dcmitype/StillImage" />
        <dc:title></dc:title>
      </cc:Work>
    </rdf:RDF>
  </metadata>
  <defs
     id="defs3963" />
  <sodipodi:namedview
     pagecolor="#ffffff"
     bordercolor="#666666"
     borderopacity="1"
     objecttolerance="10"
     gridtolerance="10"
     guidetolerance="10"
     inkscape:pageopacity="0"
     inkscape:pageshadow="2"
     inkscape:window-width="2488"
     inkscape:window-height="1370"
     id="namedview3961"
     showgrid="false"
     inkscape:zoom="2"
     inkscape:cx="217.47902"
     inkscape:cy="52.419824"
     inkscape:window-x="2632"
     inkscape:window-y="33"
     inkscape:window-maximized="1"
     inkscape:current-layer="g3967" />
  <g
     inkscape:label="Image"
     id="g3967">
    <path
       style="display:inline;fill:none;stroke:#000000;stroke-width:18;stroke-linecap:round;stroke-linejoin:round;stroke-miterlimit:4;stroke-dasharray:none;stroke-opacity:1"
       d="m 232.71509,104.94103 c -3.05488,11.2996 -11.25497,31.3971 -26.90541,13.74458 -8.8198,-9.94808 -10.88324,-25.798997 -11.13225,-38.244806 -0.2334,-11.665664 1.35346,-23.243858 4.47934,-34.909806 C 203.63774,28.8078 215.00055,7.4267524 223.22375,7.8853912 M 39.825546,105.77238 C 40.182887,76.731279 40.723943,55.72627 41.404908,30.618734 M 130.63138,126.1517 c 17.85617,-11.55902 23.92522,-20.60835 30.30106,-29.170231 10.16372,-13.648479 12.83226,-21.761654 10.39178,-29.934554 -2.53082,-8.475442 -12.28576,-13.35971 -24.06683,-13.54648 -22.03943,-0.3494 -32.57253,-5.999535 -21.89774,-18.710938 5.25868,-6.261964 14.00581,-14.858297 22.0752,-21.20999 6.12647,-4.8223556 13.30402,-5.8446379 18.35794,-3.9184657 M 321.92044,125.24464 c 15.00206,-8.4336 29.03085,-19.38993 33.73183,-33.728756 3.19433,-9.74327 2.99227,-16.447851 1.71406,-21.2182 -1.67896,-6.265962 -6.8104,-13.101968 -12.65136,-16.324949 -7.62304,-4.206319 -20.78335,-4.672566 -22.55427,-10.72784 -2.48701,-8.503773 18.76374,-29.73886 33.92722,-34.7524925 m 20.4885,116.1434775 c 9.44863,-3.68735 18.38686,-7.74616 27.03723,-18.70559 C 410.2191,97.561622 416.04299,72.044011 391.22112,61.163641 378.7464,55.695498 372.4812,48.368883 378.133,34 c 1.97795,-5.028645 6.63064,-10.426582 11.51212,-14.914903 10.58106,-9.7288412 11.9961,-10.3819558 17.56862,-9.8787255 M 302.06977,125.76302 c -2.4285,-18.09883 -3.23315,-32.161792 -4.56696,-47.055137 -2.07163,-23.131846 -4.86084,-46.614395 -7.61445,-69.2354178 1.86632,30.5359278 2.37304,65.1821878 -2.07367,81.7775208 -2.19695,8.199121 -3.10448,12.892574 -5.73014,18.750894 -3.85648,8.60448 -5.26925,13.67376 -10.65062,13.58083 -6.5813,-0.11365 -13.89914,-17.97346 -17.2421,-26.633349 -3.48157,-9.018964 -5.55695,-17.566197 -6.85126,-26.963154 -1.63369,-11.860943 -1.92151,-24.962995 -1.65522,-35.15652 0.22398,-8.573871 0.19793,-17.838994 0.85849,-25.3702458 M 100.37567,8.8872643 C 100.77706,43.539922 96.4007,78.768607 102.07745,125.75777 M 444.75575,10.334413 c -1.66342,28.51297 -4.77799,58.348039 -6.47451,83.83318 M 11.964874,42.427574 C 18.563243,34.017498 27.061782,24.654558 39.136475,17.15808 59.616672,4.4431118 75.924933,7.7687747 76.101389,24.257342 76.257056,38.803345 73.847122,51.931246 68.683525,64.277863 63.110125,77.604354 52.292882,105.01801 34.967133,125.12631 M 436,120 v 1"
       id="path4562"
       sodipodi:nodetypes="csssccccsssssccssssccssssccscssssssccccccsssccc"
       inkscape:label="text-outline" />
    <path
       style="display:inline;fill:none;stroke:#ffffff;stroke-width:10;stroke-linecap:round;stroke-linejoin:round;stroke-miterlimit:4;stroke-dasharray:none;stroke-opacity:1"
       d="m 232.71509,104.94103 c -3.05488,11.2996 -11.25497,31.3971 -26.90541,13.74458 -8.8198,-9.94808 -10.88324,-25.798997 -11.13225,-38.244806 -0.2334,-11.665664 1.35346,-23.243858 4.47934,-34.909806 C 203.63774,28.8078 215.00055,7.4267524 223.22375,7.8853912 M 39.825546,105.77238 C 40.182887,76.731279 40.723943,55.72627 41.404908,30.618734 M 130.63138,126.1517 c 17.85617,-11.55902 23.92522,-20.60835 30.30106,-29.170231 10.16372,-13.648479 12.83226,-21.761654 10.39178,-29.934554 -2.53082,-8.475442 -12.28576,-13.35971 -24.06683,-13.54648 -22.03943,-0.3494 -32.57253,-5.999535 -21.89774,-18.710938 5.25868,-6.261964 14.00581,-14.858297 22.0752,-21.20999 6.12647,-4.8223556 13.30402,-5.8446379 18.35794,-3.9184657 M 321.92044,125.24464 c 15.00206,-8.4336 29.03085,-19.38993 33.73183,-33.728756 3.19433,-9.74327 2.99227,-16.447851 1.71406,-21.2182 -1.67896,-6.265962 -6.8104,-13.101968 -12.65136,-16.324949 -7.62304,-4.206319 -20.78335,-4.672566 -22.55427,-10.72784 -2.48701,-8.503773 18.76374,-29.73886 33.92722,-34.7524925 m 20.4885,116.1434775 c 9.44863,-3.68735 18.38686,-7.74616 27.03723,-18.70559 C 410.2191,97.561622 416.04299,72.044011 391.22112,61.163641 378.7464,55.695498 372.4812,48.368883 378.133,34 c 1.97795,-5.028645 6.63064,-10.426582 11.51212,-14.914903 10.58106,-9.7288412 11.9961,-10.3819558 17.56862,-9.8787255 M 302.06977,125.76302 c -2.4285,-18.09883 -3.23315,-32.161792 -4.56696,-47.055137 -2.07163,-23.131846 -4.86084,-46.614395 -7.61445,-69.2354178 1.86632,30.5359278 2.37304,65.1821878 -2.07367,81.7775208 -2.19695,8.199121 -3.10448,12.892574 -5.73014,18.750894 -3.85648,8.60448 -5.26925,13.67376 -10.65062,13.58083 -6.5813,-0.11365 -13.89914,-17.97346 -17.2421,-26.633349 -3.48157,-9.018964 -5.55695,-17.566197 -6.85126,-26.963154 -1.63369,-11.860943 -1.92151,-24.962995 -1.65522,-35.15652 0.22398,-8.573871 0.19793,-17.838994 0.85849,-25.3702458 M 100.37567,8.8872643 C 100.77706,43.539922 96.4007,78.768607 102.07745,125.75777 M 444.75575,10.334413 c -1.66342,28.51297 -4.77799,58.348039 -6.47451,83.83318 M 11.964874,42.427574 C 18.563243,34.017498 27.061782,24.654558 39.136475,17.15808 59.616672,4.4431118 75.924933,7.7687747 76.101389,24.257342 76.257056,38.803345 73.847122,51.931246 68.683525,64.277863 63.110125,77.604354 52.292882,105.01801 34.967133,125.12631 M 436,120 v 1"
       id="path4568"
       sodipodi:nodetypes="csssccccsssssccssssccssssccscssssssccccccsssccc"
       inkscape:label="text" />
  </g>
</svg>
