<?xml version="1.0" encoding="UTF-8" standalone="no"?>
<svg
   xmlns:dc="http://purl.org/dc/elements/1.1/"
   xmlns:cc="http://creativecommons.org/ns#"
   xmlns:rdf="http://www.w3.org/1999/02/22-rdf-syntax-ns#"
   xmlns:svg="http://www.w3.org/2000/svg"
   xmlns="http://www.w3.org/2000/svg"
   xmlns:xlink="http://www.w3.org/1999/xlink"
   xmlns:sodipodi="http://sodipodi.sourceforge.net/DTD/sodipodi-0.dtd"
   xmlns:inkscape="http://www.inkscape.org/namespaces/inkscape"
   version="1.1"
   id="svg3252"
   width="460"
   height="512"
   viewBox="0 0 460 512"
   sodipodi:docname="yes_crewright.svg"
   inkscape:version="1.0.1 (3bc2e81, 2020-09-07)">
  <sodipodi:namedview
     pagecolor="#ffffff"
     bordercolor="#666666"
     borderopacity="1"
     objecttolerance="10"
     gridtolerance="10"
     guidetolerance="10"
     inkscape:pageopacity="0"
     inkscape:pageshadow="2"
     inkscape:window-width="2488"
     inkscape:window-height="1370"
     id="namedview979"
     showgrid="false"
     inkscape:zoom="1.3297829"
     inkscape:cx="197.81366"
     inkscape:cy="257.87514"
     inkscape:window-x="2632"
     inkscape:window-y="33"
     inkscape:window-maximized="1"
     inkscape:current-layer="layer1" />
  <metadata
     id="metadata3258">
    <rdf:RDF>
      <cc:Work
         rdf:about="">
        <dc:format>image/svg+xml</dc:format>
        <dc:type
           rdf:resource="http://purl.org/dc/dcmitype/StillImage" />
        <dc:title></dc:title>
      </cc:Work>
    </rdf:RDF>
  </metadata>
  <defs
     id="defs3256">
    <linearGradient
       id="linearGradient3842">
      <stop
         style="stop-color:#84b6c5;stop-opacity:1"
         offset="0"
         id="stop3838" />
      <stop
         style="stop-color:#45667e;stop-opacity:1"
         offset="1"
         id="stop3840" />
    </linearGradient>
    <linearGradient
       xlink:href="#linearGradient3842"
       id="linearGradient3844"
       x1="52.642105"
       y1="42.766953"
       x2="52.20977"
       y2="82.215729"
       gradientUnits="userSpaceOnUse"
       gradientTransform="matrix(1.8797521,0,0,1.8821364,-21.069955,3.5989197)" />
  </defs>
  <g
     inkscape:groupmode="layer"
     id="layer1"
     inkscape:label="Image">
    <path
       style="display:inline;fill:#187902;fill-opacity:1;stroke:none;stroke-width:9.40474;stroke-linecap:round;stroke-linejoin:round;stroke-miterlimit:4;stroke-dasharray:none;stroke-opacity:1"
       d="m 297.05094,297.42163 c 7.39289,29.57173 30.13024,134.72016 48.86663,141.98892 31.67349,12.28768 87.73528,-32.08259 103.22105,-55.36838 10.19472,-15.3297 -18.82674,-100.60705 -22.45234,-114.15521 -3.11317,-11.63319 -29.82983,-83.72081 -65.52096,-130.06397 -15.06543,-19.56171 -68.54518,-88.796658 -77.51786,4.08824 -3.37893,34.97868 1.05142,104.10207 13.40348,153.5104 z m 0.45059,-197.02666 C 290.99942,90.390805 279.73455,75.077664 275.91726,70.362063 253.87892,43.137542 248.21118,35.240373 224.61776,21.601419 196.53001,5.3643866 153.45904,2.6238741 116.51997,24.405625 30.532171,75.109801 18.339027,246.63814 10.816348,338.86373 c -4.1385634,50.73745 -1.8081313,99.41001 3.585547,142.25674 69.457152,23.12117 228.845825,28.18089 298.686005,14.48651 23.94405,-4.69498 40.71877,-10.50089 49.57173,-19.3651 4.80342,-4.80948 11.53291,-10.98418 9.46987,-36.06499"
       id="path3828"
       inkscape:label="suit-fill" />
    <path
       id="path3831"
       style="fill:#053a21;fill-opacity:1;stroke:none;stroke-width:1.88095px;stroke-linecap:butt;stroke-linejoin:miter;stroke-opacity:1"
       d="m 8.2236588,369.11892 c 4.2778352,70.22492 39.9293712,92.22689 78.8222572,94.35337 l 58.927774,3.2219 c 38.89717,2.12672 92.44334,-26.77765 115.55659,-77.73533 18.55607,-40.91049 31.79077,-112.24696 25.64527,-158.97465 8.67525,28.88041 28.97786,87.97346 53.15174,130.74485 16.77454,29.67958 30.94952,33.98527 53.34875,25.69409 16.1001,-5.95953 29.44681,-11.02217 40.69076,-30.52195 7.35426,-12.75411 3.97924,-35.90336 1.03476,-60.20984 0,0 17.53446,52.45508 17.53446,79.41342 0,19.3098 -56.66123,58.47269 -80.80652,65.07211 1.28615,11.56057 -3.09297,39.41037 -30.09077,46.65358 -105.87102,28.40404 -250.733874,16.07089 -327.636835,-5.71 C 4.8591019,449.78332 7.6333547,408.5761 8.2236588,369.11892 Z M 154.99004,211.81344 c -33.36107,23.12989 -89.819922,22.34145 -130.931891,9.90049 l 14.15504,-74.23378 101.645881,-0.0692 c 13.02537,0.36216 19.29474,5.04149 19.29474,19.19964 0,13.52674 0.27105,30.84174 -4.16377,45.20285 z"
       inkscape:label="suit-shadow" />
    <path
       style="display:inline;fill:none;stroke:#052519;stroke-width:9.40474;stroke-linecap:round;stroke-linejoin:round;stroke-miterlimit:4;stroke-dasharray:none;stroke-opacity:1"
       d="m 297.05094,297.42163 c 7.39289,29.57173 30.13024,134.72016 48.86663,141.98892 31.67349,12.28768 87.73528,-32.08259 103.22105,-55.36838 10.19472,-15.3297 -18.82674,-100.60705 -22.45234,-114.15521 -3.11317,-11.63319 -29.82983,-83.72081 -65.52096,-130.06397 -15.06543,-19.56171 -68.54518,-88.796658 -77.51786,4.08824 -3.37893,34.97868 1.05142,104.10207 13.40348,153.5104 z m 0.45059,-197.02666 C 290.99942,90.390805 279.73455,75.077664 275.91726,70.362063 253.87892,43.137542 248.21118,35.240373 224.61776,21.601419 196.53001,5.3643866 153.45904,2.6238741 116.51997,24.405625 30.532171,75.109801 18.339027,246.63814 10.816348,338.86373 c -4.1385634,50.73745 -1.8081313,99.41001 3.585547,142.25674 69.457152,23.12117 228.845825,28.18089 298.686005,14.48651 23.94405,-4.69498 40.71877,-10.50089 49.57173,-19.3651 4.80342,-4.80948 11.53291,-10.98418 9.46987,-36.06499"
       id="path3825"
       inkscape:label="suit-outline" />
    <path
       style="display:inline;fill:url(#linearGradient3844);fill-opacity:1;stroke:#0d1a23;stroke-width:9.40474;stroke-linecap:butt;stroke-linejoin:round;stroke-miterlimit:4;stroke-dasharray:none;stroke-opacity:1"
       d="m 36.796067,76.728801 c 25.939535,0.499207 52.812578,1.85081 79.707513,8.307865 21.22107,5.09484 29.41674,14.578028 31.49971,36.800634 2.02768,21.63284 1.3897,45.44146 0.54704,66.37676 -27.86392,16.64238 -113.1554,15.91382 -132.538153,3.56571 -1.079756,-32.05657 -0.08952,-80.99956 20.78389,-115.050969 z"
       id="path3836"
       inkscape:label="mask" />
    <path
       id="path3846"
       style="display:inline;fill:#8ec3d0;fill-opacity:1;stroke:none;stroke-width:1.88095px;stroke-linecap:butt;stroke-linejoin:miter;stroke-opacity:1"
       d="m 136.67176,154.16548 c -6.0479,22.62204 -34.01262,24.58043 -69.566506,24.5029 -16.562573,-0.0361 -36.932187,-3.51613 -45.806584,-5.8336 l 0.804305,12.19454 c 15.507668,3.80772 40.028971,11.63393 91.079235,4.75449 21.03463,-2.83462 26.28436,-11.76728 23.48955,-35.61833 z m 1.51723,-10.85879 C 141.26536,125.79773 136.27037,100.44204 102.01313,94.349265 78.833775,90.226731 62.684128,87.978811 39.002027,87.701706 L 28.372482,116.52456 c 34.009113,-0.72105 49.424764,-2.10376 74.407548,4.59885 13.20205,3.54196 23.83369,4.25261 35.40896,22.18328 z"
       inkscape:label="mask-hightight" />
    <path
       id="path3883"
       style="display:inline;fill:none;stroke:#ffffff;stroke-width:1.88095px;stroke-linecap:round;stroke-linejoin:miter;stroke-opacity:1"
       d="m 131.20371,111.87231 c 4.31517,5.0551 4.32942,10.05828 4.674,15.03389 m -9.61918,-22.74456 c 0.86337,0.70264 1.5987,1.39809 2.23366,2.38359 M 113.32295,96.223512 c 3.45967,0.301454 7.23557,2.085115 9.50042,4.926728 m 6.91049,80.06759 c 5.20641,-3.40701 7.51411,-6.27304 6.72738,-12.94199 m -30.43172,17.49119 c 7.09287,0.15714 12.90933,-0.95692 18.63598,-3.62679 M 29.240061,127.83706 c -3.46971,17.39714 -4.679088,34.6397 -2.387092,51.64281 m 8.852417,-74.65646 c -1.372185,2.91894 -2.114106,5.71591 -2.780232,8.91379 m 9.341734,-28.246224 c -1.76458,4.216229 -3.273603,8.575425 -4.497469,13.094138"
       inkscape:label="mask-shine-1" />
    <path
       id="path3886"
       style="display:inline;fill:none;stroke:#ffffff;stroke-width:0.940474;stroke-linecap:round;stroke-linejoin:miter;stroke-miterlimit:4;stroke-dasharray:none;stroke-opacity:1"
       d="m 94.365609,96.546179 c 1.407616,0.0035 3.129313,0.121849 4.874455,0.427634 m -7.281482,-4.423997 c 2.385664,0.0901 4.659725,0.352227 6.882632,0.693183 M 65.182153,90.693894 c 7.816429,-0.05781 14.651506,0.311708 21.67448,1.043137 M 55.995696,88.653156 c 2.717422,-0.02994 4.174838,0.09665 6.789976,0.311234 m 0.165888,100.31052 c 6.633753,0.34829 7.336754,0.2626 14.309984,-0.11425 m 58.639396,-26.30785 c 0.17638,-2.19338 0.34692,-4.59459 0.0388,-7.05235 M 31.148624,116.27513 c -0.475156,1.33113 -0.655408,2.1824 -0.816008,3.46287"
       inkscape:label="mask-shine-2" />
  </g>
</svg>
