<?xml version="1.0" encoding="UTF-8" standalone="no"?>
<svg
   xmlns:dc="http://purl.org/dc/elements/1.1/"
   xmlns:cc="http://creativecommons.org/ns#"
   xmlns:rdf="http://www.w3.org/1999/02/22-rdf-syntax-ns#"
   xmlns:svg="http://www.w3.org/2000/svg"
   xmlns="http://www.w3.org/2000/svg"
   xmlns:xlink="http://www.w3.org/1999/xlink"
   xmlns:sodipodi="http://sodipodi.sourceforge.net/DTD/sodipodi-0.dtd"
   xmlns:inkscape="http://www.inkscape.org/namespaces/inkscape"
   version="1.1"
   id="svg2478"
   width="424"
   height="512"
   viewBox="0 0 424 512"
   sodipodi:docname="yes_crewleft.svg"
   inkscape:version="1.0.1 (3bc2e81, 2020-09-07)">
  <metadata
     id="metadata2484">
    <rdf:RDF>
      <cc:Work
         rdf:about="">
        <dc:format>image/svg+xml</dc:format>
        <dc:type
           rdf:resource="http://purl.org/dc/dcmitype/StillImage" />
        <dc:title></dc:title>
      </cc:Work>
    </rdf:RDF>
  </metadata>
  <defs
     id="defs2482">
    <linearGradient
       inkscape:collect="always"
       id="linearGradient3102">
      <stop
         style="stop-color:#83b5c4;stop-opacity:1"
         offset="0"
         id="stop3098" />
      <stop
         style="stop-color:#45667e;stop-opacity:1"
         offset="1"
         id="stop3100" />
    </linearGradient>
    <linearGradient
       inkscape:collect="always"
       xlink:href="#linearGradient3102"
       id="linearGradient3104"
       x1="202.67371"
       y1="56.714512"
       x2="202.05327"
       y2="104.33645"
       gradientUnits="userSpaceOnUse"
       gradientTransform="matrix(1.7404435,0,0,1.7412161,-39.431859,3.0075001)" />
  </defs>
  <sodipodi:namedview
     pagecolor="#ffffff"
     bordercolor="#666666"
     borderopacity="1"
     objecttolerance="10"
     gridtolerance="10"
     guidetolerance="10"
     inkscape:pageopacity="0"
     inkscape:pageshadow="2"
     inkscape:window-width="2488"
     inkscape:window-height="1370"
     id="namedview2480"
     showgrid="false"
     inkscape:zoom="0.8689655"
     inkscape:cx="555.10929"
     inkscape:cy="251.03993"
     inkscape:window-x="2632"
     inkscape:window-y="33"
     inkscape:window-maximized="1"
     inkscape:current-layer="g2486"
     inkscape:document-rotation="0" />
  <g
     inkscape:groupmode="layer"
     inkscape:label="Image"
     id="g2486"
     style="display:inline">
    <path
       id="path3090"
       style="display:inline;fill:#fa7b00;fill-opacity:1;stroke:none;stroke-width:8.70412;stroke-linecap:butt;stroke-linejoin:miter;stroke-miterlimit:4;stroke-dasharray:none;stroke-opacity:1"
       inkscape:label="suit-fill"
       d="m 415.64802,468.33785 c 0,-75.41659 -6.51666,-242.99945 -17.06749,-288.02895 C 388.09279,135.54855 368.94117,92.714646 340.41712,49.113971 326.61332,28.014065 300.93485,10.674177 268.798,8.8136386 225.91792,6.3311279 201.62944,12.908588 167.75891,40.273014 133.67745,67.80789 119.60659,89.115905 110.06247,109.53666 93.937639,144.03763 88.090294,184.34624 79.627363,221.04226 70.526194,260.50575 64.215934,308.48714 63.63073,365.39687 c -0.13786,13.4065 1.983018,57.7592 2.911012,74.21073 0.986613,17.4907 1.919945,32.67743 6.442968,37.20247 6.607433,6.61038 44.17155,15.10145 89.6447,20.36052 40.17743,4.64662 86.5954,6.47734 122.33387,6.47734 20.63108,0 43.70529,-1.94448 55.80867,-2.97908 16.36054,-1.39857 42.01752,-8.41874 60.48503,-16.15769 12.08923,-5.06605 14.39104,-6.95755 14.39104,-16.17331 z M 102.56269,129.17667 c -21.321438,-4.5179 -24.245477,6.69469 -31.820237,18.95965 -9.558357,15.47677 -50.074713,101.21304 -56.970845,151.13328 -6.2281358,45.08468 -9.7574909,75.91079 4.538901,109.66191 11.111538,26.23225 23.387444,49.80712 54.674201,67.87856"
       sodipodi:nodetypes="ssssssssssssssscsssc" />
    <path
       id="path3072"
       style="display:inline;mix-blend-mode:normal;fill:#b43e15;fill-opacity:1;stroke:none;stroke-width:1.74083px;stroke-linecap:butt;stroke-linejoin:miter;stroke-opacity:1"
       inkscape:label="suit-shadow"
       d="m 43.750071,205.41448 c -9.144744,30.11214 -10.135241,71.34788 -7.736306,78.61889 5.835488,17.68698 6.671223,-4.26704 12.579644,-21.90526 3.917917,-11.69605 5.572406,-21.5084 10.765868,-39.78146 9.492245,-33.39825 23.058349,-70.15406 39.721556,-86.49847 -24.370061,101.437 -11.948798,177.78414 42.784927,240.36881 16.84687,19.2634 52.77444,44.02746 90.33511,58.85545 23.81604,9.40195 72.52985,15.97079 90.88418,14.50576 50.16517,-4.00417 80.81216,-38.76933 92.2119,-66.74777 l 0.70772,92.63269 C 363.02983,505.16261 321.41098,501.41385 272.42481,502.4589 204.59593,503.90592 106.89787,496.39188 70.323211,475.26613 2.0391367,435.82481 10.06267,380.34315 8.870632,336.74329 7.8813584,300.55972 32.709629,230.7083 43.750071,205.41448 Z m 176.204109,-82.72475 183.09683,87.76599 c 0.62845,6.90805 16.18534,21.03393 -14.13044,31.8859 -10.59584,3.79293 -20.56558,5.01516 -28.88823,5.49237 -26.14803,1.49925 -52.64617,1.26823 -74.59386,-0.22033 -20.79244,-1.41018 -59.96517,-5.13811 -78.86763,-24.10428 -11.96132,-12.00159 -10.9719,-26.00955 -7.50491,-47.44451 5.31805,-32.87913 14.28308,-46.76702 20.88824,-53.3751 z"
       sodipodi:nodetypes="cssscsssccssscccssssssc" />
    <path
       id="path3051"
       style="display:inline;fill:none;fill-opacity:1;stroke:#3f0900;stroke-width:8.70412;stroke-linecap:butt;stroke-linejoin:miter;stroke-miterlimit:4;stroke-dasharray:none;stroke-opacity:1"
       inkscape:label="suit-stroke"
       d="m 415.64802,468.33785 c 0,-75.41659 -6.51666,-242.99945 -17.06749,-288.02895 C 388.09279,135.54855 368.94117,92.714646 340.41712,49.113971 326.61332,28.014065 300.93485,10.674177 268.798,8.8136386 225.91792,6.3311279 201.62944,12.908588 167.75891,40.273014 133.67745,67.80789 119.60659,89.115905 110.06247,109.53666 93.937639,144.03763 88.090294,184.34624 79.627363,221.04226 70.526194,260.50575 64.215934,308.48714 63.63073,365.39687 c -0.13786,13.4065 1.983018,57.7592 2.911012,74.21073 0.986613,17.4907 1.919945,32.67743 6.442968,37.20247 6.607433,6.61038 44.17155,15.10145 89.6447,20.36052 40.17743,4.64662 86.5954,6.47734 122.33387,6.47734 20.63108,0 43.70529,-1.94448 55.80867,-2.97908 16.36054,-1.39857 42.01752,-8.41874 60.48503,-16.15769 12.08923,-5.06605 14.39104,-6.95755 14.39104,-16.17331 z M 102.56269,129.17667 c -21.321438,-4.5179 -24.245477,6.69469 -31.820237,18.95965 -9.558357,15.47677 -50.074713,101.21304 -56.970845,151.13328 -6.2281358,45.08468 -9.7574909,75.91079 4.538901,109.66191 11.111538,26.23225 23.387444,49.80712 54.674201,67.87856"
       sodipodi:nodetypes="ssssssssssssssscsssc" />
    <path
       style="display:inline;fill:url(#linearGradient3104);fill-opacity:1;stroke:#0d1a23;stroke-width:8.70412;stroke-linecap:butt;stroke-linejoin:miter;stroke-miterlimit:4;stroke-dasharray:none;stroke-opacity:1"
       d="m 230.234,106.22118 c 5.19174,-6.436102 18.54752,-8.01232 28.54948,-8.272876 43.68847,-1.138126 85.10328,-1.390374 104.85592,3.904686 29.41026,7.88395 34.29939,41.74889 38.50012,66.01245 3.20508,18.51265 6.1786,32.35427 0.91149,42.59028 -2.79802,5.43765 -10.92022,10.08923 -20.98983,13.16832 -8.68521,2.65581 -18.61399,3.69664 -23.73276,4.09184 -26.11332,2.01606 -48.54794,2.07471 -72.91339,0.81954 -14.5245,-0.74822 -53.70488,-4.77346 -66.3112,-19.12658 -4.65186,-5.29643 -9.3478,-15.02518 -8.88382,-33.29118 0.80173,-31.56276 8.60545,-55.7535 20.01399,-69.89648 z"
       id="path3093"
       sodipodi:nodetypes="sssssssssss"
       inkscape:label="mask" />
    <path
       id="path3112"
       style="fill:#8ec3d0;fill-opacity:1;stroke:none;stroke-width:1.74083px;stroke-linecap:butt;stroke-linejoin:miter;stroke-opacity:1"
       inkscape:label="mask-light"
       d="m 220.1661,176.4378 c 5.83356,10.75471 25.57149,17.74001 39.61521,21.80346 19.59445,5.66953 41.47623,2.3 61.87347,2.20087 9.97906,-0.0486 37.20856,-0.0466 46.60699,-3.40269 13.1763,-4.70513 18.3367,-10.42651 25.5141,-21.73447 1.5997,15.65562 2.06402,24.02634 -8.73338,30.24995 -10.02197,5.77666 -23.0912,9.50275 -36.69938,10.91898 -11.85899,1.23417 -23.76238,0.86964 -34.27921,0.86964 -26.66658,0 -36.60238,-0.0197 -53.57668,-3.0319 -10.7575,-1.90896 -22.77413,-4.59693 -30.34486,-12.4776 -6.03969,-6.28697 -10.59478,-13.96241 -9.97626,-25.39624 z m 2.1764,-18.39023 c 0,0 4.48734,-30.57693 14.53392,-40.62799 10.38467,-10.38926 46.17752,-9.78258 69.48792,-10.34176 20.74496,-0.49764 51.36831,0.35267 61.38206,6.13668 15.21182,8.78645 24.67214,36.21707 23.72802,47.07164 -6.90733,-11.48656 -19.41239,-20.42499 -32.28366,-24.56472 -12.59968,-4.05236 -92.22577,-3.07454 -110.61685,3.11438 -12.8227,4.31509 -16.97754,9.85727 -26.23141,19.21177 z" />
    <path
       id="path3151"
       style="display:inline;fill:none;stroke:#ffffff;stroke-width:1.74083px;stroke-linecap:round;stroke-linejoin:miter;stroke-opacity:1"
       d="m 312.63934,214.07031 c 3.61103,0.26653 7.26262,0.51383 10.84991,0.54572 m -75.58147,-6.80549 c 14.45063,4.49373 36.97048,5.41395 55.69805,4.98623 m -64.46493,-9.11161 c 0.73763,0.71319 2.04514,1.47989 2.96396,1.96533 M 223.9817,186.95995 c 2.57261,5.81798 5.90427,11.14376 13.22999,13.96312 m 162.20892,-9.71517 c 0.55711,8.49064 -0.27394,13.80375 -6.66639,18.44762 m -4.45045,2.31925 c -2.49489,1.17615 -5.62863,2.13274 -9.31272,2.60634 m -1.68439,-9.04493 c -0.93482,0.42716 -2.12189,0.84074 -3.58061,1.22388 m 11.15241,-6.24016 c -1.09937,1.22774 -2.15694,1.96199 -3.48082,2.61928 m 11.49053,-17.71958 c -0.7712,4.44565 -2.19201,8.07611 -4.93658,11.47381 M 366.16923,109.7549 c 3.31871,0.91342 5.97642,2.73455 8.08153,5.31452 m 3.17207,11.36122 c 0.76,0.89732 1.48577,1.99109 2.09014,3.7811 M 365.0225,115.63751 c 4.10108,1.63341 7.39711,4.24705 10.11958,7.55912 m -98.42486,-11.61656 c 13.00822,-3.97758 41.41444,-4.2817 52.9722,-1.46822 m -79.64736,5.57047 c 4.7243,-1.87057 8.33163,-2.60529 14.0998,-2.68453 m -29.37381,12.57795 c 1.67541,-3.43497 4.55474,-5.7913 8.70739,-7.13607 m -16.07497,27.51902 c -0.47073,-4.973 1.34601,-10.49886 3.92473,-13.73473 m 1.6756,-16.07109 c 1.56202,-2.30282 3.53052,-4.55458 6.53486,-6.67629"
       inkscape:label="mask-shine"
       sodipodi:nodetypes="cccccccccccccccccccccccccccccccccc" />
  </g>
</svg>
