<?xml version="1.0" encoding="UTF-8" standalone="no"?>
<svg
   xmlns:dc="http://purl.org/dc/elements/1.1/"
   xmlns:cc="http://creativecommons.org/ns#"
   xmlns:rdf="http://www.w3.org/1999/02/22-rdf-syntax-ns#"
   xmlns:svg="http://www.w3.org/2000/svg"
   xmlns="http://www.w3.org/2000/svg"
   xmlns:sodipodi="http://sodipodi.sourceforge.net/DTD/sodipodi-0.dtd"
   xmlns:inkscape="http://www.inkscape.org/namespaces/inkscape"
   version="1.1"
   id="svg1630"
   width="1024"
   height="256"
   viewBox="0 0 1024 256"
   sodipodi:docname="no_shh.svg"
   inkscape:version="1.0.1 (3bc2e81, 2020-09-07)">
  <metadata
     id="metadata1636">
    <rdf:RDF>
      <cc:Work
         rdf:about="">
        <dc:format>image/svg+xml</dc:format>
        <dc:type
           rdf:resource="http://purl.org/dc/dcmitype/StillImage" />
        <dc:title></dc:title>
      </cc:Work>
    </rdf:RDF>
  </metadata>
  <defs
     id="defs1634" />
  <sodipodi:namedview
     pagecolor="#ffffff"
     bordercolor="#666666"
     borderopacity="1"
     objecttolerance="10"
     gridtolerance="10"
     guidetolerance="10"
     inkscape:pageopacity="0"
     inkscape:pageshadow="2"
     inkscape:window-width="640"
     inkscape:window-height="480"
     id="namedview1632"
     showgrid="false"
     inkscape:zoom="0.83375635"
     inkscape:cx="598.47667"
     inkscape:cy="118.95914"
     inkscape:current-layer="g1638" />
  <g
     inkscape:groupmode="layer"
     inkscape:label="Image"
     id="g1638">
    <path
       id="path2249"
       style="fill:none;stroke:#320606;stroke-width:42.7234;stroke-linecap:round;stroke-linejoin:round;stroke-miterlimit:4;stroke-dasharray:none;stroke-opacity:1"
       d="m 981.83875,211.42765 -0.3289,1.73232 M 998.63834,29.545697 C 993.43369,65.974678 986.32727,122.91481 989.0487,164.86278 M 926.1248,27.565127 c -4.83642,66.390858 -9.8723,133.710203 -11.7566,196.655323 m -46.20229,-81.81079 c 14.03395,-4.64127 29.9933,-11.01903 42.06452,-10.83593 M 874.96899,47.401471 C 870.6153,107.91531 862.40892,169.02693 864.05026,227.49942 M 763.90523,143.1977 c 13.50355,-9.33732 27.89476,-14.3746 43.91458,-11.52263 M 820.84815,27.79566 C 811.8578,68.24895 809.96944,154.93587 808.31704,217.34355 M 766.22277,31.00499 c -0.18493,51.585149 -7.86302,90.40363 -4.9014,196.24984 M 708.51142,28.847812 C 704.9577,91.160207 701.86578,149.42411 704.38109,212.71622 M 653.70121,33.000739 c 2.94151,98.325991 -8.64591,152.024671 -3.20199,195.263491 m 0.84806,-68.83957 c 16.15583,-12.92002 31.38168,-14.23193 49.69009,-12.79604 M 528.9818,162.30755 c 16.12795,-10.72049 31.50947,-16.77211 48.93961,-15.28214 M 592.80769,28.03187 C 585.09728,92.436284 579.32378,165.26636 579.76251,223.1725 M 534.1587,35.806515 c 3.3596,48.751611 -17.22826,168.442755 -9.1101,193.383025 M 472.20091,26.320807 C 470.53502,86.495 461.30508,160.76651 461.96226,227.12009 M 421.7674,32.310319 C 412.3871,102.83036 407.46449,158.491 408.27639,227.9974 m 4.60404,-80.44243 c 16.44505,-7.28672 31.10696,-7.14272 47.74187,-4.17943 m -176.2331,9.38652 c 16.33361,-4.41258 33.33398,-5.86246 50.42698,-3.62678 M 348.38543,33.357371 c -2.96485,30.430713 -7.41745,75.563399 -8.12648,108.989169 -0.83579,39.40244 -1.39479,66.26836 -4.04451,83.44132 M 292.93401,26.259194 C 294.51046,68.4164 275.69851,154.51714 275.00272,227.67342 M 230.61247,26.853722 C 225.17088,93.148376 217.48816,148.27358 215.92883,222.27085 m -56.01432,-67.88747 c 19.21675,-10.23984 37.46569,-14.11576 58.74522,-15.75263 M 170.7883,40.726691 c -2.33898,36.589836 -4.44408,66.220689 -9.47326,94.019609 -5.54034,30.62431 -12.54455,58.82086 -13.91203,92.18966 M 115.73443,25.36166 C 85.007012,37.390146 34.990642,65.126329 34.900735,114.7161 c -0.05124,28.26732 25.928318,7.74835 39.177377,5.90505 24.859772,-3.45868 34.143728,-9.45416 35.406398,24.91592 1.48171,40.33215 -39.942856,74.33948 -84.12285,85.10123"
       inkscape:label="text-outline"
       sodipodi:nodetypes="cccccccccccccccccccccccccccccccccccccsccccccccsccsssc" />
    <path
       id="path2267"
       style="display:inline;fill:none;stroke:#ffffff;stroke-width:21.3616;stroke-linecap:round;stroke-linejoin:round;stroke-miterlimit:4;stroke-dasharray:none;stroke-opacity:1"
       d="m 981.83875,211.42765 -0.3289,1.73232 M 998.63834,29.545697 C 993.43369,65.974678 986.32727,122.91481 989.0487,164.86278 M 926.1248,27.565127 c -4.83642,66.390858 -9.8723,133.710203 -11.7566,196.655323 m -46.20229,-81.81079 c 14.03395,-4.64127 29.9933,-11.01903 42.06452,-10.83593 M 874.96899,47.401471 C 870.6153,107.91531 862.40892,169.02693 864.05026,227.49942 M 763.90523,143.1977 c 13.50355,-9.33732 27.89476,-14.3746 43.91458,-11.52263 M 820.84815,27.79566 C 811.8578,68.24895 809.96944,154.93587 808.31704,217.34355 M 766.22277,31.00499 c -0.18493,51.585149 -7.86302,90.40363 -4.9014,196.24984 M 708.51142,28.847812 C 704.9577,91.160207 701.86578,149.42411 704.38109,212.71622 M 653.70121,33.000739 c 2.94151,98.325991 -8.64591,152.024671 -3.20199,195.263491 m 0.84806,-68.83957 c 16.15583,-12.92002 31.38168,-14.23193 49.69009,-12.79604 M 528.9818,162.30755 c 16.12795,-10.72049 31.50947,-16.77211 48.93961,-15.28214 M 592.80769,28.03187 C 585.09728,92.436284 579.32378,165.26636 579.76251,223.1725 M 534.1587,35.806515 c 3.3596,48.751611 -17.22826,168.442755 -9.1101,193.383025 M 472.20091,26.320807 C 470.53502,86.495 461.30508,160.76651 461.96226,227.12009 M 421.7674,32.310319 C 412.3871,102.83036 407.46449,158.491 408.27639,227.9974 m 4.60404,-80.44243 c 16.44505,-7.28672 31.10696,-7.14272 47.74187,-4.17943 m -176.2331,9.38652 c 16.33361,-4.41258 33.33398,-5.86246 50.42698,-3.62678 M 348.38543,33.357371 c -2.96485,30.430713 -7.41745,75.563399 -8.12648,108.989169 -0.83579,39.40244 -1.39479,66.26836 -4.04451,83.44132 M 292.93401,26.259194 C 294.51046,68.4164 275.69851,154.51714 275.00272,227.67342 M 230.61247,26.853722 C 225.17088,93.148376 217.48816,148.27358 215.92883,222.27085 m -56.01432,-67.88747 c 19.21675,-10.23984 37.46569,-14.11576 58.74522,-15.75263 M 170.7883,40.726691 c -2.33898,36.589836 -4.44408,66.220689 -9.47326,94.019609 -5.54034,30.62431 -12.54455,58.82086 -13.91203,92.18966 M 115.73443,25.36166 C 85.007012,37.390146 34.990642,65.126329 34.900735,114.7161 c -0.05124,28.26732 25.928318,7.74835 39.177377,5.90505 24.859772,-3.45868 34.143728,-9.45416 35.406398,24.91592 1.48171,40.33215 -39.942856,74.33948 -84.12285,85.10123"
       inkscape:label="text"
       sodipodi:nodetypes="cccccccccccccccccccccccccccccccccccccsccccccccsccsssc" />
  </g>
</svg>
