<?xml version="1.0" encoding="UTF-8" standalone="no"?>
<svg
   xmlns:dc="http://purl.org/dc/elements/1.1/"
   xmlns:cc="http://creativecommons.org/ns#"
   xmlns:rdf="http://www.w3.org/1999/02/22-rdf-syntax-ns#"
   xmlns:svg="http://www.w3.org/2000/svg"
   xmlns="http://www.w3.org/2000/svg"
   xmlns:sodipodi="http://sodipodi.sourceforge.net/DTD/sodipodi-0.dtd"
   xmlns:inkscape="http://www.inkscape.org/namespaces/inkscape"
   version="1.1"
   id="svg1165"
   width="128"
   height="128"
   viewBox="0 0 128 128"
   sodipodi:docname="closebutton.svg"
   inkscape:version="1.0.1 (3bc2e81, 2020-09-07)">
  <metadata
     id="metadata1171">
    <rdf:RDF>
      <cc:Work
         rdf:about="">
        <dc:format>image/svg+xml</dc:format>
        <dc:type
           rdf:resource="http://purl.org/dc/dcmitype/StillImage" />
        <dc:title />
      </cc:Work>
    </rdf:RDF>
  </metadata>
  <defs
     id="defs1169" />
  <sodipodi:namedview
     pagecolor="#ffffff"
     bordercolor="#666666"
     borderopacity="1"
     objecttolerance="10"
     gridtolerance="10"
     guidetolerance="10"
     inkscape:pageopacity="0"
     inkscape:pageshadow="2"
     inkscape:window-width="2488"
     inkscape:window-height="1370"
     id="namedview1167"
     showgrid="false"
     showguides="true"
     inkscape:guide-bbox="true"
     inkscape:zoom="5.4827972"
     inkscape:cx="47.093423"
     inkscape:cy="54.877304"
     inkscape:window-x="2632"
     inkscape:window-y="33"
     inkscape:window-maximized="1"
     inkscape:current-layer="g1173"
     inkscape:document-rotation="0" />
  <g
     inkscape:groupmode="layer"
     inkscape:label="Image"
     id="g1173"
     style="display:inline">
    <circle
       style="fill:#abbbbb;fill-opacity:1;stroke:#333333;stroke-width:4;stroke-linecap:round;stroke-linejoin:round;stroke-miterlimit:4;stroke-dasharray:none;stroke-opacity:1"
       id="path1738"
       cx="64"
       cy="64"
       inkscape:label="big-circle"
       r="61" />
    <circle
       style="fill:#efefef;fill-opacity:1;stroke:#333333;stroke-width:2;stroke-linecap:round;stroke-linejoin:round;stroke-miterlimit:4;stroke-dasharray:none;stroke-opacity:1"
       id="path1742"
       cx="64"
       cy="64"
       inkscape:label="little-circle"
       r="51" />
    <path
       style="display:inline;fill:none;stroke:#333333;stroke-width:10.6562;stroke-linecap:butt;stroke-linejoin:miter;stroke-miterlimit:4;stroke-dasharray:none;stroke-opacity:1"
       d="M 36,36 92,92 M 92,36 36,92"
       id="path1744"
       sodipodi:nodetypes="cccc"
       inkscape:label="x" />
    <path
       id="circle1756"
       style="display:inline;fill:#556666;fill-opacity:1;stroke:none;stroke-width:3.875;stroke-linecap:round;stroke-linejoin:round;stroke-miterlimit:4;stroke-dasharray:none;stroke-opacity:1"
       inkscape:label="shadow"
       d="M 8.5211041,64 A 55.500001,55.510907 0 0 0 8.5,65.489092 55.500001,55.510907 0 0 0 64.000002,121 55.500001,55.510907 0 0 0 119.5,65.489092 55.500001,55.510907 0 0 0 119.4789,64.030704 55.500001,55.510907 0 0 1 64.000002,118.05251 55.500001,55.510907 0 0 1 8.5211041,64 Z" />
    <path
       id="circle1772"
       style="display:inline;fill:#efefef;fill-opacity:1;stroke:none;stroke-width:3.875;stroke-linecap:round;stroke-linejoin:round;stroke-miterlimit:4;stroke-dasharray:none;stroke-opacity:1"
       inkscape:label="highlight"
       d="M 63.744814,7.0001466 A 55.499981,55.510764 0 0 0 8.5,62.510912 55.499981,55.510764 0 0 0 8.5211041,63.969297 55.499981,55.510764 0 0 1 63.999982,9.947621 55.499981,55.510764 0 0 1 119.47886,64 a 55.499981,55.510764 0 0 0 0.0211,-1.489088 55.499981,55.510764 0 0 0 -55.499978,-55.5107654 55.499981,55.510764 0 0 0 -0.255168,0 z" />
  </g>
</svg>
