<?xml version="1.0" encoding="UTF-8" standalone="no"?>
<svg
   xmlns:dc="http://purl.org/dc/elements/1.1/"
   xmlns:cc="http://creativecommons.org/ns#"
   xmlns:rdf="http://www.w3.org/1999/02/22-rdf-syntax-ns#"
   xmlns:svg="http://www.w3.org/2000/svg"
   xmlns="http://www.w3.org/2000/svg"
   xmlns:sodipodi="http://sodipodi.sourceforge.net/DTD/sodipodi-0.dtd"
   xmlns:inkscape="http://www.inkscape.org/namespaces/inkscape"
   inkscape:export-ydpi="101.6"
   inkscape:export-xdpi="101.6"
   inkscape:export-filename="/home/cyber/Documents/VS_Code/GarrysModAmongUs/content/materials/au/gui/meeting/body/layer3.test.png"
   inkscape:version="1.0 (4035a4f, 2020-05-01)"
   sodipodi:docname="layer3.svg"
   viewBox="0 0 479.99999 512"
   height="512"
   width="480"
   id="svg2099"
   version="1.1">
  <metadata
     id="metadata2105">
    <rdf:RDF>
      <cc:Work
         rdf:about="">
        <dc:format>image/svg+xml</dc:format>
        <dc:type
           rdf:resource="http://purl.org/dc/dcmitype/StillImage" />
        <dc:title></dc:title>
      </cc:Work>
    </rdf:RDF>
  </metadata>
  <defs
     id="defs2103" />
  <sodipodi:namedview
     inkscape:current-layer="g2107"
     inkscape:cy="266.20994"
     inkscape:cx="190.00391"
     inkscape:zoom="2"
     showgrid="false"
     id="namedview2101"
     inkscape:window-height="480"
     inkscape:window-width="640"
     inkscape:pageshadow="2"
     inkscape:pageopacity="0"
     guidetolerance="10"
     gridtolerance="10"
     objecttolerance="10"
     borderopacity="1"
     bordercolor="#666666"
     pagecolor="#ffffff" />
  <g
     style="display:inline"
     id="g2107"
     inkscape:label="Image"
     inkscape:groupmode="layer">
    <path
       inkscape:label="floor-shadow"
       style="display:inline;fill:#000000;fill-opacity:0.22;stroke:none;stroke-width:1px;stroke-linecap:butt;stroke-linejoin:miter;stroke-opacity:1"
       d="m 79.624956,358.45622 c -14.03951,0.9802 -28.40454,5.4587 -40.0522,13.35812 -11.30575,7.66755 -23.38712,18.08574 -27.03335,31.25071 -6.1284997,22.12745 -10.4403897,36.51628 9.77597,56.73264 15.78103,15.78103 27.99582,17.99237 59.03691,26.30981 40.582424,10.87403 76.085154,14.86045 112.694314,19.03297 21.51466,2.45213 38.89845,3.43582 60.49354,5.03135 12.35924,0.91315 16.14813,-3.46534 19.85464,-7.6023 3.79912,-4.24034 11.3977,-9.44897 32.32792,-9.42489 21.14401,0.0243 51.16193,-0.91083 72.1039,-1.71496 9.47841,-0.36395 18.21943,-5.57839 21.73397,-9.46748 4.8091,-5.32162 11.89631,-13.48962 18.83112,-22.05992 4.62468,-5.71535 7.03457,-12.56301 7.79793,-19.16017 0.3888,-3.36015 -1.1089,-2.90107 -3.70984,-2.94151 -13.97291,-0.21725 -27.56369,0.22411 -40.54769,1.70976 l 2.18924,-35.50127 c 0,0 26.61184,1.04407 39.49807,-0.10846 12.76348,-1.14156 22.04747,-7.89686 31.15276,-17.00215 9.3023,-9.30231 13.20257,-15.83972 16.61409,-26.66921 0.85589,-2.71696 -1.17074,-3.47212 -3.04143,-3.6312 -15.98297,-1.35914 -30.37706,-2.60167 -46.62352,-3.01185 0,0 -326.023314,3.67802 -343.096344,4.87001 z"
       id="path3330"
       sodipodi:nodetypes="ssssssssssssssccsssscs" />
    <path
       style="fill:#d6d6d6;fill-opacity:1;stroke:none;stroke-width:8;stroke-linecap:round;stroke-linejoin:round;stroke-miterlimit:4;stroke-dasharray:none;stroke-opacity:1"
       d="m 310.83528,385.31291 c 30.22784,-1.1971 51.91438,21.54431 67.81541,11.96685 9.73192,-5.8617 10.29283,-5.67757 11.58448,6.04832 2.06105,18.71072 -0.81722,38.69135 -9.44575,56.08239 -3.41689,6.88684 -5.01354,7.39483 -14.60963,7.59875 -76.52877,1.62625 -117.37027,1.16899 -180.8775,-4.71727 -35.9777,-3.33464 -75.58118,-8.31164 -97.785869,-46.77129 -20.345103,-35.23875 -21.194303,-86.48351 21.812169,-110.30403 16.90493,-9.36334 39.27401,-13.39492 60.64736,-19.94652 23.66948,-7.25542 46.58158,-16.86741 69.91739,-23.12022 55.08737,-14.76062 88.83124,-3.11215 126.7532,11.8455 27.43271,10.82035 56.51177,26.8223 96.26141,15.39515 2.38216,20.69276 -24.82613,52.46004 -42.86568,80.16349 -14.07468,-0.16539 -37.91268,-1.71834 -59.58588,-0.62456 -12.13708,0.61253 -21.69119,9.89748 -13.98272,24.06482"
       id="path2679"
       sodipodi:nodetypes="cssssssssssccsc"
       inkscape:label="bean-fill" />
    <path
       d="m 79.668933,336.85061 c -4.946489,51.82434 14.615996,77.30756 52.836647,94.62784 27.36072,12.39893 48.85117,16.05551 87.12421,19.6978 42.99929,4.09208 82.50223,6.25357 127.89346,5.21157 4.6017,-0.10564 10.56898,-0.59067 13.22972,-3.77213 1.89654,-2.26771 3.37344,-13.24117 3.77902,-17.82956 0.773,-8.74508 3.62689,-13.79535 4.94566,-13.44198 1.31955,0.35357 -0.35911,7.31478 -0.62806,14.39242 -0.3573,9.40244 3.56113,16.18747 9.31532,9.35794 3.62281,-4.29983 7.23914,-15.47641 12.73662,-33.23496 2.287,16.09131 -7.69813,53.34125 -16.02168,54.93251 -34.96688,1.39146 -70.02484,1.68269 -105.12961,1.40838 -4.4888,6.71895 -9.68806,13.22381 -15.48878,19.54742 -1.76959,6.69095 -127.51404,-5.10059 -137.014,-10.56821 C 106.38564,459.46673 98.520352,441.91277 93.21164,424.49443 72.294111,395.56382 69.693512,362.68622 79.668933,336.85061 Z m 266.804737,56.14368 c -17.31139,-7.08708 -35.73243,-7.07942 -54.22279,-6.62858 8.81431,-9.83362 25.42076,-5.8707 32.06374,-19.599 9.38933,-19.40388 2.03143,-33.22875 -2.51008,-49.10178 8.62369,4.89458 11.99888,29.67706 36.46444,30.15369 16.66684,0.3247 25.33162,0.45081 40.80704,0.6161 9.84659,0.10517 13.98891,-3.32894 18.83652,-8.27292 13.41507,-13.68176 33.56774,-27.86757 44.99541,-50.77126 6.32142,15.42391 -27.26699,53.77643 -42.86568,80.16349 -25.89933,3.16932 -89.97828,-12.65992 -73.5686,23.44026 z M 98.719297,312.6452 c -14.284101,24.74079 -11.236113,36.11639 -11.353868,53.52953 -0.07453,11.02189 6.441064,13.24791 13.609931,14.55116 14.60937,2.65589 24.54387,1.93733 37.44181,2.11143 12.20669,0.16476 20.34716,-11.76617 20.34716,-18.83099 0,-25.98642 42.40431,-80.28886 64.80091,-97.35403 -55.99958,22.88501 -108.83056,26.28575 -124.845943,45.9929 z"
       inkscape:label="shadow"
       style="display:inline;fill:#585858;fill-opacity:1;stroke:none;stroke-width:1px;stroke-linecap:butt;stroke-linejoin:miter;stroke-opacity:1"
       id="path2677" />
    <path
       inkscape:label="bean-outline"
       sodipodi:nodetypes="cssssssssssccsc"
       id="path2673"
       d="m 310.83528,385.31291 c 30.22784,-1.1971 51.91438,21.54431 67.81541,11.96685 9.73192,-5.8617 10.29283,-5.67757 11.58448,6.04832 2.06105,18.71072 -0.81722,38.69135 -9.44575,56.08239 -3.41689,6.88684 -5.01354,7.39483 -14.60963,7.59875 -76.52877,1.62625 -117.37027,1.16899 -180.8775,-4.71727 -35.9777,-3.33464 -75.58118,-8.31164 -97.785869,-46.77129 -20.345103,-35.23875 -21.194303,-86.48351 21.812169,-110.30403 16.90493,-9.36334 39.27401,-13.39492 60.64736,-19.94652 23.66948,-7.25542 46.58158,-16.86741 69.91739,-23.12022 55.08737,-14.76062 88.83124,-3.11215 126.7532,11.8455 27.43271,10.82035 56.51177,26.8223 96.26141,15.39515 2.38216,20.69276 -24.82613,52.46004 -42.86568,80.16349 -14.07468,-0.16539 -37.91268,-1.71834 -59.58588,-0.62456 -12.13708,0.61253 -21.69119,9.89748 -13.98272,24.06482"
       style="fill:none;fill-opacity:0.599205;stroke:#0a0a0a;stroke-width:8;stroke-linecap:round;stroke-linejoin:round;stroke-miterlimit:4;stroke-dasharray:none;stroke-opacity:1" />
    <path
       inkscape:label="backpack-outline"
       sodipodi:nodetypes="ccscc"
       id="path2675"
       d="m 93.21164,424.49443 c 8.84863,23.31993 15.41121,35.60836 24.03582,52.68522 23.77082,4.1378 51.64539,6.75458 79.98023,8.6135 16.49507,1.08217 37.39508,5.68267 57.03376,1.95471 l 15.48878,-19.54742"
       style="fill:none;stroke:#000000;stroke-width:8;stroke-linecap:round;stroke-linejoin:round;stroke-miterlimit:4;stroke-dasharray:none;stroke-opacity:1" />
  </g>
</svg>
