<?xml version="1.0" encoding="UTF-8" standalone="no"?>
<svg
   xmlns:dc="http://purl.org/dc/elements/1.1/"
   xmlns:cc="http://creativecommons.org/ns#"
   xmlns:rdf="http://www.w3.org/1999/02/22-rdf-syntax-ns#"
   xmlns:svg="http://www.w3.org/2000/svg"
   xmlns="http://www.w3.org/2000/svg"
   xmlns:sodipodi="http://sodipodi.sourceforge.net/DTD/sodipodi-0.dtd"
   xmlns:inkscape="http://www.inkscape.org/namespaces/inkscape"
   version="1.1"
   id="svg3098"
   width="2048"
   height="1024"
   viewBox="0 0 2048 1024"
   sodipodi:docname="bg.svg"
   inkscape:version="1.0.1 (3bc2e81, 2020-09-07)"
   inkscape:export-filename="/home/cyber/Documents/VS_Code/GarrysModAmongUs/gamemodes/amongus/content/materials/au/gui/meeting/bg.large.png"
   inkscape:export-xdpi="768"
   inkscape:export-ydpi="768">
  <metadata
     id="metadata3104">
    <rdf:RDF>
      <cc:Work
         rdf:about="">
        <dc:format>image/svg+xml</dc:format>
        <dc:type
           rdf:resource="http://purl.org/dc/dcmitype/StillImage" />
        <dc:title></dc:title>
      </cc:Work>
    </rdf:RDF>
  </metadata>
  <defs
     id="defs3102" />
  <sodipodi:namedview
     pagecolor="#ffffff"
     bordercolor="#666666"
     borderopacity="1"
     objecttolerance="10"
     gridtolerance="10"
     guidetolerance="10"
     inkscape:pageopacity="0"
     inkscape:pageshadow="2"
     inkscape:window-width="2488"
     inkscape:window-height="1370"
     id="namedview3100"
     showgrid="false"
     inkscape:zoom="0.7071068"
     inkscape:cx="1043.0852"
     inkscape:cy="456.20695"
     inkscape:window-x="2632"
     inkscape:window-y="33"
     inkscape:window-maximized="1"
     inkscape:current-layer="g3106"
     inkscape:document-rotation="0"
     scale-x="1" />
  <g
     inkscape:groupmode="layer"
     inkscape:label="Image"
     id="g3106"
     style="display:inline">
    <path
       style="display:inline;fill:#d40000;fill-opacity:1;stroke:none;stroke-width:0.270042"
       d="m 1011.5781,61.83969 c 2.56,4.80821 15.2411,10.39982 20.5232,11.34178 -2.2414,-8.20869 -13.1511,-10.75481 -20.5232,-11.34178 M 775.0211,288.13504 547.64556,220.14436 480.6751,192.54011 c 2.74148,-1.95564 6.58688,-2.26619 9.72152,-3.47166 11.13816,-4.28341 22.47454,-7.07402 34.5654,-4.56479 8.94812,1.85627 17.18008,6.52854 26.46414,6.93522 5.03358,0.22036 12.50836,1.24814 17.2827,-0.4191 5.37924,-1.88004 8.64136,-6.98491 14.58228,-8.10883 13.66954,-2.58592 29.28338,4.15541 42.66666,6.6803 5.53588,1.04399 13.29148,1.20223 17.8228,4.74519 10.63426,8.32 20.09654,19.70444 25.35156,32.229 3.02446,7.20742 6.33518,14.08594 9.82952,21.06328 2.11714,4.22346 4.3693,9.32024 8.56574,11.87916 6.3082,3.84702 17.10988,3.3496 24.3038,4.4341 14.7389,2.22352 27.76574,5.1632 41.5865,10.79898 7.19932,2.93428 16.51038,7.39106 21.60338,13.39408 m 352.6751,-56.16876 -0.5401,0.54008 0.5401,-0.54008 m 158.2447,100.45568 c -10.8611,2.01668 -23.1318,0.5968 -34.0253,-0.44826 -29.278,-2.80898 -57.1085,-10.57702 -85.3333,-18.60158 -11.0231,-3.13358 -23.148,-8.57816 -34.5654,-9.57462 7.6422,-4.52754 23.7205,-4.7803 31.3249,-0.28354 6.7132,3.9707 14.0962,11.9364 22.1434,12.87398 4.8068,0.56062 9.4515,-2.64966 13.5021,-4.76732 6.7295,-3.52136 13.5616,-6.82018 20.5232,-9.83278 2.8895,-1.24976 6.0166,-3.71038 9.1815,-4.13164 4.0722,-0.54224 11.6712,5.36682 15.1223,7.4375 10.5965,6.3541 21.8303,11.53242 31.865,18.83922 3.2729,2.3834 8.0851,5.07032 10.2616,8.48904 M 160.94515,331.3418 c -12.23507,-0.1522 -22.45023,-4.42654 -33.48523,-9.18144 9.53249,-4.27962 31.14234,-3.79948 33.48523,9.18144 M 1913.519,397.2321 c -9.5973,-2.46766 -22.743,-12.10006 -24.1418,-22.68354 -0.4699,-3.57482 1.9875,-7.99218 3.0785,-11.34178 l 8.9276,3.61964 4.3693,8.8023 7.7664,21.60338 m 8.1013,-18.36288 5.9409,3.24052 11.8818,27.5443 c -8.7331,-1.87248 -11.4984,-14.80156 -14.5768,-22.14346 -1.091,-2.60538 -3.1973,-5.83022 -3.2459,-8.64136 M 145.2827,684.52458 c 15.94977,-6.14616 32.01944,-12.02768 48.06751,-17.9254 7.75291,-2.85164 16.12477,-7.29654 24.30379,-8.50634 -7.69242,7.14532 -14.59146,16.5212 -19.30909,25.92406 -2.85326,5.68708 -4.61232,14.1232 -9.33914,18.43308 -14.28307,13.02144 -34.53083,13.56152 -49.12391,25.71882 -4.61232,3.8454 -10.69367,9.6513 -11.88186,15.79746 9.81981,-4.4935 18.86407,-11.94666 29.16456,-15.3816 9.77444,-3.2567 20.28449,-3.00826 30.24472,-5.50346 4.92719,-1.23138 9.50441,-3.72118 14.58228,-4.34228 1.74232,-0.21602 4.82566,-0.6103 5.52344,1.54464 2.7836,8.59274 -9.24732,20.75004 -13.08408,27.4633 -9.38559,16.41856 -19.43224,39.43696 -17.82333,58.8692 8.31298,-3.63478 14.47589,-11.07174 22.68355,-14.96034 9.41692,-4.4665 20.22508,-4.07224 29.70464,-7.6368 4.47784,-1.68506 8.34322,-5.48186 12.42194,-7.94464 9.10258,-5.49266 18.58754,-10.49384 28.08438,-15.23038 7.34894,-3.66718 14.67464,-7.23712 22.14346,-10.64506 3.01746,-1.37722 7.1248,-3.13248 10.0418,-0.38886 4.8667,4.57992 -7.72266,12.1141 -10.58188,13.75054 -16.91598,9.67832 -33.97832,19.1082 -50.76792,29.01334 v 0.54008 c 7.6962,-1.82548 15.06402,-5.03358 22.68354,-7.15612 28.7179,-8.00404 57.16846,-16.90464 85.87342,-24.9519 70.1521,-19.65906 140.9523,-36.30986 212.25316,-51.12978 26.95022,-5.60068 53.91122,-10.52624 81.01266,-15.23038 12.53536,-2.17654 25.6162,-5.7627 38.34598,-6.30818 v 0.54008 c -11.80624,3.49974 -19.1946,16.79122 -27.6145,24.66566 -7.47478,6.99408 -19.05958,10.3048 -28.55426,13.39948 -17.72018,5.7789 -37.00118,6.02734 -55.08862,10.56406 -41.08854,10.3102 -81.51494,22.56472 -122.05906,34.77602 -20.71656,6.24338 -41.49794,12.57318 -61.56962,20.72844 -23.80584,9.67292 -47.40754,19.7833 -70.21098,31.70296 l -15.66244,8.22548 c -2.5168,1.32322 -5.97982,2.58702 -7.56118,5.00118 15.00462,-2.0199 30.46724,-8.3119 44.827,-12.94582 34.84192,-11.23916 69.14592,-24.52522 104.23628,-35.01366 34.50762,-10.31022 69.0606,-20.14516 104.77638,-25.25976 23.85012,-3.41872 48.0081,-2.90024 71.83122,-6.33518 14.7335,-2.12254 29.09974,-5.68168 42.03476,-13.4265 7.68,-4.59612 16.95326,-15.80286 26.55596,-13.95578 l -11.0799,26.5031 21.16044,-5.57656 c -13.64726,12.908 -21.44498,29.69046 -33.09354,44.95832 -3.67258,4.81214 -13.4913,13.12404 -19.65366,13.94498 -5.88692,0.78852 -12.0547,-1.8525 -17.2827,-4.21806 5.36302,6.90768 18.6113,10.2508 27.0042,10.2616 5.59528,0.006 8.45234,-3.1865 13.50212,-4.17486 11.98448,-2.33316 23.6449,-6.00034 35.64556,-8.85198 8.36052,-1.9821 17.2233,-3.28912 25.38398,-5.87612 -6.9725,9.89434 -17.8984,17.63376 -25.75122,27.00422 -9.5055,11.34718 -16.23494,25.07612 -26.72878,35.55376 -7.71782,7.707 -17.82278,12.8378 -27.99258,16.49418 -12.41654,4.4611 -25.53518,5.57906 -38.346,8.17688 -8.86818,1.80388 -19.64286,6.22176 -28.62446,6.26498 -3.1379,0.01 -5.94094,-2.12794 -9.18144,-2.21436 -6.54042,-0.1674 -12.01688,1.13958 -18.36286,2.06312 -9.82414,1.43124 -20.82782,2.40338 -29.70464,7.17772 -7.3349,3.94802 -11.76088,10.2292 -13.4373,18.29806 -0.66324,3.1919 0.98402,10.97452 -1.76554,12.7568 -21.43218,13.92878 -47.27522,19.59426 -70.1305,30.43376 -9.66482,4.58532 -21.71896,9.6675 -25.92406,20.5394 8.21308,-1.46362 16.7329,-7.39376 24.3038,-10.8881 13.4076,-6.19476 27.58698,-11.574 41.5865,-16.25654 12.68388,-4.24506 29.6555,-5.87612 39.91602,-15.16016 7.9657,-7.20474 2.10958,-15.52204 4.04362,-24.12558 1.56354,-6.95628 9.52438,-10.9583 15.44964,-13.5345 9.5379,-4.15326 19.24862,-6.88608 29.70464,-6.42702 8.47934,0.37266 16.18094,2.87326 24.84388,2.04692 10.04018,-0.95594 19.54026,-4.93096 29.16456,-7.707 16.87224,-4.87156 36.4611,-10.16978 51.30802,-19.75628 10.38582,-6.70246 14.27984,-16.33756 20.55562,-26.45334 8.16068,-13.14566 19.1676,-24.55764 30.7524,-34.71662 4.14784,-3.64016 8.72776,-8.9708 14.0422,-10.8611 4.58532,-1.63106 9.84034,-1.75528 14.58228,-2.76522 15.20336,-3.24052 30.774,-5.24422 45.90716,-8.77098 7.56118,-1.76068 18.67612,-6.12996 25.92406,-2.506 11.5254,5.7573 21.63038,14.92254 30.0881,24.51444 5.37924,6.09216 12.49214,15.84608 20.67982,17.9524 15.2898,3.93722 29.90988,-9.54868 42.1266,-16.46716 14.53906,-8.2363 30.37434,-11.4012 46.98734,-10.64508 15.4032,0.69672 32.37806,7.22634 44.82696,16.26194 6.6647,4.83916 13.5886,9.21384 20.5232,13.64254 3.6456,2.33316 6.8321,5.147 11.3418,5.1794 9.3111,0.0648 20.9175,-7.56658 29.1646,-11.5632 24.9357,-12.07628 47.414,-29.09434 72.3713,-40.9222 7.1615,-3.39172 18.6113,-2.32236 26.4641,-2.94886 15.4626,-1.23138 30.9306,-3.8508 46.4473,-4.5151 0,0 -6.9631,10.9682 -10.8017,16.20254 -11.0682,15.09264 -25.8949,33.2097 -35.1973,43.74686 -10.5209,11.78464 -22.7538,22.3055 -29.6128,36.72574 12.3139,-5.53586 24.0661,-15.83526 35.1054,-23.60708 2.533,-1.78228 9.8404,-8.51174 12.7838,-5.91392 4.5097,3.98582 -5.6006,13.79916 -8.1984,17.09906 -7.6854,9.77014 -14.8578,19.94532 -22.5594,29.70464 -4.0344,5.1092 -10.1806,11.07714 -12.2707,17.2827 24.7953,0 46.2798,-10.62886 68.5907,-20.4746 25.6378,-11.31476 51.5079,-22.01924 77.7722,-31.78936 45.2051,-16.82362 90.5019,-34.74902 136.6413,-48.80742 50.3089,-15.3276 101.6817,-27.65772 151.7638,-43.67122 -0.2431,4.72574 -2.0308,15.58682 -6.0112,18.5843 -2.3278,1.74986 -5.8167,1.75528 -8.5711,2.03072 -6.9293,0.6913 -13.8208,0.30244 -20.5232,2.5762 -8.9654,3.03528 -17.1207,8.00944 -25.9241,11.30396 -5.4764,2.04692 -12.6326,2.04152 -17.2827,5.7303 -7.3181,5.8059 -10.2022,13.63712 -15.6192,20.79864 -2.7167,3.58616 -9.0518,4.95258 -10.3048,9.18684 15.1439,-3.55916 15.4032,-22.32168 29.1645,-28.2032 9.7701,-4.17486 22.2947,-6.90768 32.9452,-7.42076 13.8747,-0.6697 26.7612,1.361 39.9662,-3.93722 18.6221,-7.46936 29.7749,-26.51274 45.9072,-37.8059 12.8378,-8.987 32.6859,-9.5271 47.5274,-13.3671 -6.8051,8.2687 -16.3699,14.6903 -23.6719,22.68356 -17.2395,18.85974 -30.3635,39.57198 -56.2606,47.23036 -15.441,4.56372 -32.7075,2.93806 -48.6076,4.02904 -6.3136,0.43206 -12.3085,0 -18.3628,2.35476 -11.2122,4.35308 -19.6159,14.0314 -29.1646,20.96068 -13.1078,9.51628 -27.3499,17.16928 -41.5865,24.80068 v 0.54008 c 5.6709,-0.25924 11.331,-2.74362 16.7426,-4.32068 9.7918,-2.85164 20.0696,-4.80134 28.6245,-10.67746 8.5873,-5.90312 12.8756,-14.90094 23.7637,-17.13148 8.2309,-1.67966 17.6878,0.46988 25.9241,1.253 18.7301,1.78228 40.085,6.4756 58.8692,3.71038 6.5998,-0.97216 12.5569,-4.02904 18.9029,-5.82752 6.9509,-1.9713 15.3006,-2.70582 21.6034,-6.31358 7.6692,-4.39088 13.7613,-10.9313 20.5286,-16.53198 10.0726,-8.3227 20.831,-15.85148 31.8596,-22.84018 17.2773,-10.9475 35.2621,-20.96066 54.0084,-29.13754 4.5151,-1.97132 9.3327,-2.92186 14.0422,-4.38008 1.6473,-0.50768 3.759,-1.15578 4.5637,0.97754 1.3016,3.45114 -8.7115,8.45232 -11.0447,10.2238 -8.4685,6.427 -17.7688,12.54076 -27.0042,17.77418 -3.8184,2.16034 -11.4984,4.75814 -14.0422,8.14988 22.3595,0 45.0808,-7.6584 65.8903,-15.18718 9.7431,-3.52136 20.9714,-6.72946 29.7046,-12.36254 7.0427,-4.5421 12.6488,-10.60724 18.903,-16.1107 9.6891,-8.53334 19.5996,-16.77504 29.7046,-24.82228 9.4245,-7.50718 19.8427,-17.06128 30.2447,-22.9914 2.1604,-1.2314 10.5479,-5.8005 11.9737,-1.8795 1.7553,4.82836 -6.265,8.83578 -9.2732,10.95832 -7.8799,5.55746 -15.6085,11.44438 -23.2237,17.35292 -3.1757,2.46818 -7.3775,4.62852 -9.1814,8.3335 6.1786,-0.6319 12.4381,-5.56288 17.8228,-8.47394 9.6459,-5.2172 20.0317,-9.78632 30.2447,-13.80994 29.4508,-11.59022 59.15,-20.14516 90.1941,-25.98886 12.2708,-2.30618 32.3294,-5.18482 44.827,-5.19562 V 428.0169 c -5.0714,-0.1188 -16.127,-2.97154 -20.5232,-5.26312 -13.7182,-7.15018 -22.6836,-18.2354 -32.9938,-29.30228 -8.3659,-8.98268 -17.0936,-18.59726 -26.9556,-25.97644 -3.9588,-2.96398 -11.0231,-4.17214 -14.1772,-7.6719 -4.6825,-5.19344 -8.2417,-12.73626 -11.8278,-18.73984 -6.9077,-11.57238 -15.5005,-24.52308 -25.8431,-33.24814 -12.1951,-10.28914 -26.8206,-12.01094 -41.5865,-16.20144 -30.3473,-8.61274 -62.5093,-14.40676 -91.8143,-26.2708 -13.1781,-5.3344 -24.401,-15.46314 -32.5401,-26.89566 -6.2704,-8.80228 -11.0771,-19.33232 -19.8481,-26.09634 -5.8275,-4.4935 -13.0862,-6.27036 -19.9831,-8.39398 -12.7352,-3.92155 -27.5659,-7.04216 -39.4262,-13.0371 2.722,5.67575 11.1366,9.0961 16.7426,11.16894 12.4922,4.6188 27.6794,7.48072 38.8861,14.80966 7.2803,4.7603 11.1257,11.97098 16.0459,18.8484 8.1553,11.39686 17.3259,24.03808 29.8613,31.0473 10.1968,5.70004 20.9823,5.71732 31.865,9.23976 10.6882,3.46032 19.1189,11.11818 29.7046,14.74754 23.8987,8.19416 52.2532,12.6126 72.3713,28.88156 7.3938,5.97872 12.4381,13.62848 17.6446,21.40084 2.992,4.46812 6.9076,8.99456 8.8195,14.04166 -6.7564,-0.53362 -13.367,-2.25702 -19.9831,-3.58022 -13.8693,-2.77334 -27.8089,-5.05736 -39.9662,-12.72008 -8.5388,-5.38356 -16.3862,-12.68334 -24.3038,-18.95966 -4.8392,-3.83676 -8.9438,-8.01052 -15.1224,-9.56706 -0.7507,4.94502 6.103,12.48946 9.0788,16.20254 8.2363,10.27942 19.4809,17.89894 30.3474,25.10528 4.9579,3.28642 11.6658,5.34738 15.468,10.15466 2.1441,2.7134 -0.9344,6.60632 -1.0964,9.56706 -0.2646,4.9812 2.3548,9.83656 3.4512,14.58228 -53.8681,-28.37118 -106.2238,-60.24262 -157.1646,-93.50966 -29.9855,-19.58022 -60.6893,-38.68518 -89.1139,-60.5413 -8.1661,-6.28064 -15.1062,-13.9034 -22.8564,-20.62528 -15.9703,-13.84885 -32.243,-27.17327 -47.8947,-41.41368 -7.734,-7.03838 -15.468,-14.08162 -23.2236,-21.09893 -2.9921,-2.70907 -5.6223,-6.64952 -9.1814,-8.54954 -0.065,3.05418 -0.8912,6.12186 -0.4267,9.18143 0.7183,4.68902 3.7752,10.09688 5.4981,14.58228 2.857,7.44075 5.2712,15.12345 7.7988,22.68355 5.093,15.21957 8.5495,31.72131 14.8361,46.44725 8.1931,19.18866 20.723,37.36628 32.4267,54.54852 9.0518,13.2823 19.1081,25.94836 29.3103,38.346 2.3332,2.83112 10.6937,9.36722 9.4407,13.47024 -1.8417,6.0403 -10.8665,-1.96482 -13.0106,-3.70552 -12.1627,-9.88084 -24.1904,-19.91506 -36.1857,-29.9844 -21.0255,-17.64618 -40.2147,-37.39004 -61.0295,-55.23012 -7.7286,-6.62304 -21.0309,-10.2724 -26.8098,-18.54594 -4.0398,-5.78864 -4.85,-14.32142 -6.6106,-21.04224 -3.3756,-12.8351 -8.7224,-24.3173 -14.5067,-36.18565 -2.1333,-4.36928 -4.1046,-10.75848 -7.7016,-14.04219 -0.5185,3.06389 0.5239,6.09431 0.5239,9.18143 0.01,9.65779 1.28,19.47112 2.1333,29.16456 3.0677,34.72851 10.1536,68.81215 18.6059,102.61603 2.8841,11.51892 9.1004,23.87064 10.0618,35.64556 -8.1013,-9.24894 -24.347,-17.15578 -36.7257,-18.3067 -9.4245,-0.876 -20.0318,2.0021 -28.6245,-3.29342 -15.7327,-9.69668 -27.5281,-25.18738 -44.2869,-33.34914 -11.8063,-5.74974 -24.8007,-7.6087 -37.2659,-11.40658 -16.4725,-5.01954 -32.2538,-11.75386 -47.5274,-19.65744 -12.9944,-6.72406 -24.6602,-15.49234 -37.2658,-22.83316 -7.0535,-4.10788 -14.6633,-9.1204 -22.1435,-12.30528 -4.4341,-1.88868 -9.1274,-2.50222 -13.5021,-4.7468 -13.7721,-7.07024 -27.5983,-13.78782 -41.5865,-20.40439 -3.3647,-1.59001 -6.2704,-4.13326 -9.7215,-5.46079 9.1814,13.03331 23.6503,22.6182 36.7257,31.3249 3.9913,2.65828 11.0826,4.57828 14.2583,7.94032 2.5546,2.70852 1.1287,13.14024 1.496,16.90356 0.8155,8.40694 3.0407,16.91652 5.8977,24.84388 2.0469,5.69248 5.0876,11.11764 5.3523,17.2827 -8.663,-2.81762 -16.7859,-6.8283 -25.384,-9.71936 -9.5649,-3.21566 -19.3296,-5.2923 -28.6245,-9.4207 -8.3281,-3.69904 -15.8353,-8.9411 -24.3038,-12.49592 -7.4747,-3.13628 -15.2358,-5.46458 -22.6835,-8.63974 -3.3593,-1.43176 -7.464,-2.53624 -10.0834,-5.20642 -4.3747,-4.44866 -5.5845,-11.29208 -9.5379,-16.08748 -10.537,-12.77732 -24.2174,-22.72297 -31.1251,-38.346 -2.0307,-4.59665 -3.5861,-10.08391 -3.7805,-15.12236 -0.2971,-7.64327 2.1603,-14.28847 -4.3963,-20.19105 -3.1487,-2.83437 -6.9779,-4.79811 -10.186,-7.58819 -6.6755,-5.80915 -12.6866,-12.58774 -20.5448,-16.87926 -14.1718,-7.73778 -30.3636,-10.69259 -44.827,-17.70774 -9.5757,-4.64365 -16.73724,-13.44162 -26.46416,-17.55836 -7.0319,-2.97533 -15.68946,0.10898 -22.14346,-3.16171 -7.82044,-3.96433 -5.6925,-19.0457 -10.7639,-26.01073 -6.65924,-9.15227 -16.22952,-8.56196 -26.50194,-9.78865 -4.16404,-0.49715 -8.24168,-1.76027 -12.42194,-2.09321 v -4.32067 h -2.16034 c 0.35646,8.08203 8.2525,8.97242 15.12238,9.17392 10.73146,0.31455 21.50616,1.44495 26.57214,12.42945 2.83544,6.15124 1.11258,14.67031 5.50346,19.95979 5.19022,6.25391 16.74802,4.57976 23.55308,9.15897 5.42786,3.65302 9.92676,8.58507 15.12238,12.52175 7.3127,5.53964 15.7488,10.04989 23.7637,14.5072 17.5095,9.73826 36.4287,17.36372 51.7995,30.5434 7.977,6.83962 10.3264,15.2482 13.9558,24.56627 2.2251,5.7249 5.8869,10.66775 8.4523,16.20253 1.6905,3.64665 2.2035,7.74103 4.002,11.34177 2.6734,5.34522 6.7889,8.29138 10.8125,12.43544 4.9364,5.07896 9.3489,10.45172 14.134,15.64896 -5.3036,-1.33726 -10.1536,-4.95096 -15.1223,-7.21176 -10.1806,-4.63122 -21.2578,-7.7475 -32.4051,-7.64542 -8.2255,0.075 -16.4564,3.41656 -24.3038,5.52344 -18.1846,4.8829 -36.0884,10.04772 -55.0886,8.74558 -26.44794,-1.8136 -53.89504,-10.23352 -78.85234,-18.79332 -7.98244,-2.73768 -15.63544,-6.37894 -23.7637,-8.70292 v 0.5401 c 8.04726,5.3641 17.9416,7.62112 26.46412,11.88184 18.12524,9.0637 37.37384,13.93418 57.24896,18.90296 9.57568,2.3942 18.83276,3.2405 29.70466,3.2405 3.2621,0 7.653,0.78744 10.8017,0 3.8238,-0.95594 8.5117,-0.77718 11.8818,-1.62024 9.4353,-2.3591 19.1352,-5.1886 28.6245,-7.56118 10.6991,-2.67504 21.0687,-3.23944 31.865,-0.5401 2.3331,0.5833 8.5117,1.59056 8.1012,3.24052 11.7523,2.08904 24.5199,10.61914 35.1055,16.00864 18.6275,9.48226 37.3253,18.65288 55.6287,28.76272 9.7161,5.36628 19.254,12.9723 29.7047,16.79826 v 0.54008 c -12.8919,3.55268 -25.2706,15.72834 -38.8861,16.1793 -7.1021,0.23494 -11.9791,-4.67118 -17.8228,-7.71456 -5.4117,-2.81978 -12.3355,-4.6701 -18.3629,-5.53316 -9.7701,-1.39936 -20.0047,1.21194 -29.7046,-1.0186 -28.5435,-6.56364 -57.0653,-17.29404 -84.7933,-26.58728 -26.9124,-9.0194 -56.04452,-14.88094 -84.25312,-17.90272 -13.01064,-1.39396 -28.60288,-4.39844 -41.04642,1.04074 -5.00118,2.18628 -10.8827,5.77028 -14.0044,10.36584 -1.87948,2.77496 -2.50058,7.02812 -5.1524,9.2414 -1.9605,1.6332 -6.00034,0.86574 -8.3875,0.86574 -7.71242,0 -14.34464,0.21928 -21.60338,-2.80736 -16.68862,-6.95952 -33.17198,-16.67186 -48.6076,-26.0677 -8.81958,-5.36898 -17.43932,-12.27666 -27.00422,-16.24952 -9.37586,-3.8951 -19.2756,-3.80814 -29.16456,-5.26474 -10.267,-1.51332 -20.31796,-4.82836 -29.16456,-10.35072 -17.56894,-10.9702 -32.97754,-26.65371 -49.14768,-39.60763 -7.01028,-5.6158 -14.37704,-13.35089 -23.22362,-15.77046 2.56,4.08087 7.0805,6.89039 10.57486,10.15574 8.3605,7.81718 17.12066,15.20068 25.6108,22.88122 15.68944,14.19503 28.98092,33.66183 48.0675,43.51513 9.08962,4.6928 18.4979,6.1224 28.0844,9.25976 11.41738,3.73684 22.51072,9.48118 31.86498,17.03534 2.5546,2.06204 6.02194,4.3439 7.55038,7.33002 2.40336,4.69226 1.16118,11.16354 2.5924,16.20254 2.18194,7.69188 6.23258,14.53636 11.46058,20.5232 -5.94092,-1.9065 -13.64252,-3.94154 -18.78952,-7.5196 -5.26042,-3.65474 -8.8466,-10.24594 -14.15562,-14.2647 -9.05182,-6.8499 -19.49704,-11.94776 -30.24472,-15.54148 -13.22128,-4.42004 -27.30668,-6.06082 -41.04642,-7.9711 -9.5541,-1.32752 -17.9686,-0.80148 -25.92404,-7.34406 -8.852,-7.28034 -10.94212,-20.45678 -15.09536,-30.53206 -5.21722,-12.65472 -15.57064,-24.0829 -28.1114,-29.77809 -11.17434,-5.07247 -23.48828,-7.04702 -35.10548,-10.91997 -8.12288,-2.70798 -15.42482,-7.09562 -24.3038,-5.63632 -4.32608,0.71075 -7.6638,4.09438 -11.34178,6.18559 -5.04978,2.87217 -11.42818,5.08381 -17.2827,5.04061 -12.90802,-0.0951 -24.02998,-10.50356 -37.26582,-9.39801 -11.67176,0.97539 -23.76642,3.27237 -35.10548,6.10781 -4.63068,1.15794 -11.951,4.90937 -16.74262,3.38471 -13.16348,-4.18781 -26.64398,-14.23608 -38.346,-21.44621 -25.56164,-15.7494 -50.88404,-32.49796 -73.98346,-51.75953 -4.2753,-3.56455 -6.86608,-8.96108 -11.35202,-12.25829 -10.04504,-7.38279 -24.87576,-5.65976 -36.1835,-10.23103 -9.28026,-3.7517 -14.28254,-12.7204 -23.22362,-16.19422 1.59216,12.33029 10.82652,25.11446 21.60336,31.15801 4.33796,2.432 13.19426,3.5786 16.22738,7.31112 9.61674,11.83541 15.98974,27.41306 24.0262,40.38319 15.91466,25.68479 32.63406,51.57913 46.70002,78.31223 -6.95144,-4.58046 -15.05486,-6.57444 -22.68354,-9.6135 -5.05034,-2.01236 -9.5676,-4.94176 -15.12238,-4.96824 -4.35038,-0.021 -14.07892,-0.49796 -13.2893,6.48048 0.40938,3.61748 3.47598,7.38404 5.5067,10.2616 7.0373,9.97266 18.56864,16.14096 25.6054,25.92406 l -54.00844,3.2405 c -10.87608,0.65256 -23.96346,0.41644 -34.02532,-0.092 -9.54384,-0.48226 -19.14542,-1.41914 -28.62448,-2.76306 -27.0301,-3.83224 -54.02194,-9.41746 -79.93249,-18.11876 -18.24243,-6.12618 -36.16945,-14.40512 -52.92827,-23.86146 -9.85654,-5.56126 -20.41248,-14.13132 -31.32489,-17.2746 -0.51956,3.14166 1.72395,6.3422 2.971,9.18144 3.06174,6.97194 6.4713,13.70356 9.85708,20.5232 14.42134,29.04844 32.33054,58.04772 53.6023,82.6329 -15.72618,-4.28934 -32.80527,2.20896 -48.60759,-1.40098 -5.58826,-1.27676 -12.24318,-2.3877 -17.28271,-5.1875 -3.18919,-1.77202 -5.37221,-5.04332 -8.64135,-6.60416 -2.64587,-1.26326 -5.86261,-1.08664 -8.64135,-2.06204 -3.20432,-1.12446 -5.96793,-3.28532 -9.18143,-4.433 -6.80506,-2.43038 -13.40814,-2.45578 -20.52321,-2.45578 v 0.5401 c 10.56513,3.9453 23.74157,4.6944 33.48524,10.36908 5.26312,3.06552 5.31767,7.63516 8.87358,11.6534 2.5384,2.86892 8.08344,5.04438 11.64962,6.30602 7.20797,2.55082 14.93766,1.6143 22.14346,3.69688 7.36837,2.129 13.59231,7.12424 21.06329,9.32402 6.15805,1.81306 13.64794,-0.0276 19.38687,2.74794 5.02171,2.42876 9.08962,9.6578 11.93803,14.23176 -10.91943,1.18982 -23.70485,-2.86946 -34.5654,-4.2213 -24.48527,-3.04824 -48.91545,-7.09508 -73.45148,-9.73124 -8.11423,-0.8717 -16.18395,-2.6059 -24.3038,-3.33016 -2.92877,-0.2614 -7.90964,0.1512 -7.56118,-3.78058 C 24.40512,325.09788 10.6024,326.48104 0,326.48104 v 408.84388 c 49.34594,-13.90178 97.46039,-32.36726 145.2827,-50.80034 z m 72.9114,-26.97186 -0.5401,0.54008 0.5401,-0.54008 m 876.0169,76.1519 c -4.7096,6.15696 -11.6713,10.08878 -16.0675,16.74262 -3.7698,5.69788 -4.5259,13.64252 -10.9421,17.3475 -4.7042,2.72204 -11.5525,1.71748 -16.7373,1.10178 -8.6899,-1.04236 -17.7579,-2.13334 -26.4641,-0.42126 -9.23,1.80928 -18.4223,6.4108 -25.92406,11.94126 -4.30986,3.1757 -9.59188,8.9708 -14.58226,10.75308 -4.49352,1.60406 -11.4336,-0.21604 -16.20254,-0.21604 -10.69908,0 -20.98228,0.72372 -31.3249,3.56996 -14.43646,3.96962 -26.09688,13.4157 -39.96624,18.69232 -5.95714,2.27376 -12.96742,4.63932 -19.44304,3.48354 -20.14514,-3.59696 -25.15172,-31.15206 -43.74684,-37.08758 2.20356,-3.59696 12.65418,-3.89402 16.74262,-4.63392 16.05672,-2.89486 32.0162,-6.19478 48.06752,-9.09502 43.77924,-7.91764 87.31544,-16.31596 131.24054,-23.23444 21.4737,-3.38092 43.6064,-8.00946 65.3502,-8.9438 m 68.0506,3.7806 c -5.4116,7.32894 -17.4933,11.91966 -25.384,16.15932 -21.3873,11.4984 -43.9898,20.40438 -65.3502,32 -10.4668,5.68168 -21.8032,15.3168 -34.0253,16.55898 -14.3824,1.46364 -26.1671,-5.67088 -39.96624,-8.00944 2.54924,-3.29992 6.68084,-5.22802 10.26164,-7.24794 5.3198,-3.00826 12.2437,-6.88068 18.3628,-7.76102 13.5886,-1.9605 28.7865,2.81384 42.1266,-0.43746 16.6886,-4.06144 27.1987,-23.77452 41.0464,-32.75072 5.2659,-3.40792 12.3194,-3.95882 18.3629,-4.89316 11.4606,-1.76608 22.932,-3.61856 34.5654,-3.61856 m -92.8945,27.5443 0.5401,0.54008 -0.5401,-0.54008 m -81.55276,164.72574 c 7.50718,-2.16034 17.94156,-5.6763 23.74216,-10.95832 14.5768,-13.26448 15.8838,-29.28878 21.3603,-46.83072 3.5429,-11.35798 7.896,-24.74126 14.8307,-34.5384 1.4474,-2.04692 3.8616,-2.91644 5.4171,-4.88776 -7.7989,0.68592 -12.1141,10.59646 -15.4951,16.74262 -10.1427,18.42768 -10.2616,40.54954 -22.7159,57.78902 -3.0515,4.22346 -6.616,9.47308 -10.9421,12.44896 -4.9202,3.37552 -12.51918,5.55206 -16.19716,10.2346 z"
       id="path3934"
       sodipodi:nodetypes="ccccccscccsccccccccccccsccccccscsccccccccccccccccccscccccccccccccccccccccccccccccccccccccccccccccccccccccccsccccccscccccccsccccccccccccccscccccccccccccccccccccscccccccccccccccccccscccccccscccccccccccccccscccscsccccsscccccccccccccccccccccccccccccccccccscscssccccccccccsccccccsccccccscccccccccscscccccccsccccsccssccccccccscccccscccccsccccccccccccccccsccccsccccscccscccsccsssscccccccscsccccccccccccccccccccccccccsccccccccccccccccccccccccccccscc"
       inkscape:label="lightning-background" />
    <path
       style="fill:#fec9be;fill-opacity:1;stroke:none;stroke-width:0.270042"
       d="m 461.23206,330.26164 c -4.21806,-7.1464 -14.37002,-12.2826 -20.52104,-17.9146 -15.82286,-14.48832 -32.997,-28.73736 -54.0106,-35.21728 -10.85948,-3.34908 -22.43024,-1.49712 -33.48524,-3.27346 -8.15202,-1.31024 -16.78798,-3.40416 -24.30378,-6.88608 -5.38086,-2.49248 -10.2897,-6.24554 -15.66246,-8.6462 -3.54078,-1.58192 -8.07588,-1.87572 -11.88186,-1.35724 -1.65318,0.22522 -3.76546,1.509 -5.40084,1.15416 -2.1128,-0.458 -3.87132,-3.07578 -5.40084,-4.45948 -4.02254,-3.63962 -7.78802,-7.56604 -11.88186,-11.1225 -13.97306,-12.13894 -27.4136,-25.57028 -40.50632,-38.65708 -2.32722,-2.32614 -11.06202,-13.31631 -14.77294,-9.32077 -1.1898,1.28054 -0.004,3.1784 0.56602,4.46002 1.78336,4.01661 3.81678,7.95273 6.65384,11.34177 11.06632,13.21856 27.50542,23.45154 41.0383,34.03342 20.27532,15.85418 39.34786,32.63514 63.72996,41.83062 14.9949,5.65522 30.78968,2.8997 45.3671,10.0326 6.41296,3.13842 10.67314,9.9624 16.75072,13.31524 7.44776,4.10842 17.8595,4.55454 25.91594,7.42184 13.04844,4.64418 23.51636,13.26502 37.8059,13.26502 m 794.46414,-85.33334 6.3784,22.14346 3.8832,8.64134 c -0.3564,6.0576 5.2388,14.64872 7.9717,19.98314 5.1308,10.02828 13.6263,24.33728 23.8933,29.67816 5.0336,2.61834 12.2923,2.36936 17.8228,3.54242 15.3546,3.25672 33.4312,5.5996 46.9873,14.01952 10.24,6.35732 13.9558,18.91482 22.1921,27.24346 13.7073,13.86074 31.6003,23.61142 46.3986,36.23372 -7.2533,-0.31216 -20.534,-1.28756 -26.4425,-5.7454 -5.2496,-3.96152 -6.1408,-10.65696 -12.9836,-13.45244 -9.9808,-4.07816 -20.8689,-0.78258 -29.7047,-8.93676 -6.6862,-6.17102 -8.8898,-15.71646 -12.665,-23.7135 -1.9227,-4.07384 -3.1702,-8.47122 -8.3983,-7.56118 0.01,9.22572 4.4179,20.47244 8.6252,28.62448 1.55,3.00718 2.6788,5.75244 5.417,7.95058 3.4674,2.78252 8.2903,2.075 12.422,2.35908 6.7024,0.46178 17.3907,1.22978 23.202,4.77706 3.6024,2.1976 6.1192,7.0967 8.9384,10.19786 2.6086,2.85976 6.643,4.91154 9.9862,6.79752 6.2271,3.51324 14.3716,1.94106 21.0632,5.00442 8.1175,3.71578 12.422,12.47594 19.9832,17.16172 5.3522,3.31504 12.1897,2.43524 17.2341,5.17616 4.1208,2.24136 5.5736,8.6084 10.3156,10.09796 15.4626,4.85644 29.2131,-3.90696 44.8216,-1.78228 3.867,0.52604 13.1294,0.20902 14.3608,5.14376 0.6751,2.72258 -3.3377,3.07524 -5.1794,3.12818 -6.3514,0.1814 -12.9998,-0.9403 -19.443,-0.9403 -6.7457,0 -13.2699,2.10688 -19.9832,1.72882 -4.9633,-0.2803 -9.5,-2.40446 -14.5822,-1.64942 -1.9605,0.29164 -3.4404,1.7072 -5.4009,2.00156 -11.0717,1.66346 -26.853,1.99884 -36.7257,-4.1014 -13.7938,-8.52362 -28.16,-10.64994 -43.7468,-14.80588 -22.932,-6.11376 -45.891,-12.09952 -68.5908,-19.05418 -12.3733,-3.79084 -24.671,-8.2876 -35.1054,-16.23926 -8.5388,-6.50748 -15.3114,-15.78558 -25.384,-20.09006 -9.3867,-4.0112 -18.5087,1.74988 -28.0844,-0.44718 -3.0839,-0.70752 -5.6655,-2.72256 -8.6414,-3.71254 -7.6421,-2.54002 -14.9009,-4.18458 -22.1434,-7.93654 -4.4071,-2.28294 -7.9501,-5.36628 -12.5786,-7.36676 -3.5645,-1.54302 -7.8258,-0.52928 -11.1635,-1.95024 -2.3764,-1.01212 -4.0939,-4.2888 -5.5683,-6.29252 -3.8184,-5.19886 -7.4964,-12.9307 -12.5516,-16.95704 -3.6293,-2.88458 -9.9807,-4.14298 -14.3068,-6.02518 -13.2915,-5.78214 -26.934,-11.43304 -39.9662,-17.79686 -9.1761,-4.48108 -19.7455,-13.46376 -29.7047,-15.3897 v 0.54008 c 15.5491,12.01256 31.2007,20.51782 49.1477,28.4576 7.3019,3.23024 18.6599,4.12246 24.8223,9.03452 7.7988,6.21854 12.4165,19.13682 18.0334,27.31802 8.9276,13.00468 27.5497,28.14 43.0177,32.40506 v 0.54008 c -13.5831,-2.03396 -28.8351,-8.95622 -41.0464,-15.09266 -9.2354,-4.6431 -17.7634,-10.29076 -28.0844,-12.24912 -16.4888,-3.12708 -35.7158,-0.95378 -52.3882,-0.22358 -23.8663,1.04506 -47.9379,0.56114 -71.8312,0.56114 v 0.54008 c 9.8782,6.04732 22.0895,9.90462 33.4852,11.9229 11.7523,2.08204 22.9644,1.97186 32.9452,9.45094 4.6123,3.45438 13.5183,3.04392 14.5823,9.95106 -16.8021,-2.17006 -34.0307,-2.75282 -50.768,-5.52182 -6.6484,-1.09962 -13.178,-3.97988 -19.9831,-5.04278 -5.8437,-0.91274 -12.0871,-0.4488 -17.8228,-1.59486 -8.5333,-1.70558 -15.86766,-7.86632 -24.30376,-9.28784 -3.52136,-0.593 -7.78802,0.63244 -11.34178,0.87602 -7.87444,0.539 -16.0027,0.23602 -23.76372,-0.87008 -3.07308,-0.43746 -6.27038,-0.0372 -9.15982,-1.47442 -10.7909,-5.37006 -10.65588,-21.9285 -21.62498,-26.92968 -6.3784,-2.90728 -14.76052,-1.93892 -21.60338,-2.634 -15.07916,-1.53168 -33.14498,-4.65606 -45.90718,-13.19318 -8.80876,-5.89286 -17.20708,-13.58258 -23.87172,-21.82104 -4.53132,-5.60822 -8.51174,-13.92336 -16.09452,-15.66244 1.15578,5.97118 8.20928,11.70796 12.1087,16.20254 7.38834,8.50848 15.03054,16.87872 22.99678,24.84388 6.20558,6.20502 12.32474,12.15028 21.0633,14.32574 8.57114,2.13278 17.67696,3.60668 26.46414,4.48594 6.90768,0.6913 13.93958,0.77124 19.98312,4.70844 8.9276,5.82212 4.61232,12.44356 7.84742,20.2267 3.10008,7.44832 9.35966,13.48268 12.1357,21.0633 l -28.62448,-5.94092 c 0.68052,5.41326 5.94094,9.3953 9.72152,12.91396 7.0211,6.53556 15.54364,12.11246 24.3038,16.0135 9.27866,4.13272 22.49992,8.47446 25.38396,19.68012 -29.18616,0 -54.61332,-18.03882 -79.93248,-29.56422 -9.35426,-4.25856 -20.97688,-0.54332 -29.70464,-5.03304 -6.08136,-3.12654 -9.27326,-11.18514 -13.81536,-16.1226 -6.9941,-7.60384 -15.91088,-14.01518 -24.53064,-19.65636 -29.20236,-19.11252 -63.59494,-29.2526 -96.13502,-41.11664 -13.69114,-4.99092 -27.16084,-11.40442 -40.50632,-17.28378 -5.44946,-2.40012 -12.24912,-7.31004 -18.36288,-6.78454 10.74768,14.0503 31.61114,15.63112 46.98734,20.8019 10.35882,3.48462 21.14432,7.0994 30.78482,12.31014 8.63594,4.6685 16.6022,11.31692 25.38396,15.49556 v 0.54008 c -10.48304,-1.80496 -19.49704,-9.53194 -29.70464,-12.47054 -26.14548,-7.52878 -53.63578,-11.77168 -80.47258,-15.50096 -16.18092,-2.24784 -33.3232,-4.02472 -49.68776,-4.42546 -11.64962,-0.2857 -24.91948,1.10664 -35.64556,-4.08736 -17.63916,-8.54412 -32.08642,-25.08638 -43.92614,-40.20766 -7.08268,-9.04424 -8.71102,-19.25022 -20.3439,-23.7637 -0.61948,6.06892 10.15844,15.02568 13.89366,19.44302 9.21924,10.90216 19.10548,20.84132 29.31308,30.79292 6.63764,6.46968 14.6363,14.41702 23.22364,18.12362 20.27476,8.7499 42.9259,6.84178 64.27004,9.56704 13.99898,1.78714 27.71172,6.17912 41.5865,8.77854 22.64574,4.2429 44.99442,8.3929 66.97046,15.56414 26.44252,8.62786 56.46042,19.092 78.85232,35.8627 4.32068,3.23618 8.76016,7.73238 11.27156,12.55156 1.3448,2.58376 1.51764,6.25472 3.54296,8.39506 6.88066,7.28196 19.32962,11.65232 28.39222,15.36864 v 0.5401 c -24.70886,-6.5372 -49.9686,-10.27404 -74.53164,-17.67158 -23.88252,-7.1923 -46.63628,-18.02368 -71.29114,-22.42592 -20.76624,-3.70822 -42.18058,-2.21704 -63.18986,-3.13032 -10.41824,-0.45314 -21.58718,0.0464 -31.86498,-1.3043 -8.08508,-1.06182 -19.62668,-4.25588 -27.54432,-1.91514 l 12.96204,5.2831 14.04218,8.219 v 0.54008 c -10.72066,-4.15756 -22.06244,-9.4747 -33.48522,-11.1106 -5.54128,-0.7934 -11.20676,0.32998 -16.74262,-0.1226 -6.96168,-0.5698 -13.4913,-2.49412 -20.5232,-1.18874 6.11914,-5.01576 20.33418,0.9889 24.84388,-5.40084 -7.71242,1.58624 -10.72068,-4.6404 -15.66786,-9.72152 -7.53418,-7.73292 -15.04134,-13.61174 -25.37856,-17.15956 -12.5197,-4.29798 -26.51922,-5.558 -39.42616,-8.4939 -7.66272,-1.7434 -15.00678,-5.86154 -22.68354,-7.11616 -10.05854,-1.64402 -20.14462,0.1712 -30.24472,-2.28186 -14.94684,-3.6299 -27.45898,-14.35868 -42.66668,-17.87678 3.90644,7.65246 11.4687,14.02652 16.51146,21.06328 2.57512,3.59372 4.50106,8.7429 8.35402,11.15112 8.1839,5.11568 18.79818,5.41166 26.92592,10.1509 2.70852,1.5792 4.02146,5.12864 6.53826,7.11182 5.89124,4.64204 14.1756,10.08716 21.06274,13.12244 13.87046,6.11268 30.2026,4.23534 44.82702,7.07132 v 1.08016 c -12.30528,2.964 -28.41816,-0.001 -40.50634,-2.9845 -3.90264,-0.96296 -8.18228,-1.06666 -11.88186,-2.6691 -6.64844,-2.88026 -9.4277,-10.38312 -17.2827,-11.51568 -10.3815,-1.49656 -18.79978,5.52182 -29.16454,4.04524 -16.6292,-2.3699 -33.13904,-8.33242 -49.14768,-13.22936 -7.74266,-2.36828 -16.26574,-3.17786 -23.76372,-6.22016 -5.31552,-2.1571 -9.53682,-5.8313 -14.58012,-8.48526 -8.3362,-4.38712 -16.93326,-7.79558 -25.92622,-10.60186 -19.36688,-6.04354 -39.98514,-2.05016 -59.40928,-8.48256 -8.79256,-2.9116 -15.3049,-12.7838 -23.22362,-17.79308 -11.63018,-7.35704 -24.82066,-10.76984 -37.80591,-14.65574 -5.15511,-1.54248 -9.69613,-3.89238 -15.12236,-4.62312 2.28347,3.51702 9.60648,4.68092 13.50211,5.87882 5.87666,1.80766 11.46976,4.50754 17.2827,6.50046 4.70036,1.6116 10.27564,2.58268 14.58012,5.11622 4.08844,2.4066 7.1734,7.47152 10.0823,11.12898 6.23796,7.84256 12.39276,16.67132 21.78484,20.89424 6.73484,3.0277 13.9574,2.2851 21.06328,2.96128 8.23576,0.78366 16.33216,2.53192 24.21198,5.00172 18.59404,5.82698 32.85766,20.36874 49.2395,30.30954 6.31088,3.8292 12.64716,7.64166 18.90296,11.55726 2.48816,1.5576 5.88584,2.81816 7.82582,5.06546 3.96476,4.5918 4.63608,14.11888 6.75646,19.80542 -8.65594,-0.39588 -16.74856,-4.98174 -24.84388,-7.56928 -7.08592,-2.26564 -14.74486,-3.21728 -22.14346,-3.72442 -8.30002,-0.56816 -16.4391,0.22738 -24.3119,2.89054 -5.83886,1.97562 -12.57588,6.01438 -18.89486,5.88962 -2.6167,-0.0514 -5.05194,-2.8322 -7.0211,-4.30502 -3.23402,-2.41904 -6.9525,-4.251 -10.80168,-5.49968 -7.56172,-2.45306 -15.48476,-2.24674 -23.22364,-3.67636 -7.37376,-1.36208 -14.19664,-4.37414 -21.06328,-7.22902 v 1.62026 l 15.66244,7.97218 21.60338,5.58556 18.36286,5.8853 v 0.54008 c -9.50008,2.96452 -20.35092,3.2405 -30.24472,3.2405 -8.41992,0 -17.04236,0.48662 -25.38396,-0.7021 -17.5792,-2.50492 -34.1814,-8.1596 -51.30802,-12.54184 -12.45218,-3.18596 -25.15659,-4.8532 -37.80591,-6.97412 -10.61968,-1.78066 -21.22477,-3.67096 -31.86498,-5.27662 -4.35524,-0.65728 -9.09178,-2.62374 -13.50211,-1.50954 v 1.08018 c 22.72676,10.63048 47.11103,13.19588 71.29114,18.18248 16.07022,3.31394 31.5058,9.19396 47.52744,12.39762 19.50998,3.90116 39.04594,3.75162 58.86918,3.98746 10.90918,0.1298 22.04,1.13814 32.94516,1.66616 10.15778,0.49182 16.93124,1.48586 25.92404,2.81222 6.61728,0.97598 12.65518,2.11522 19.44304,4.70088 -17.51572,8.00792 -40.28236,7.53774 -56.70886,7.56118 -21.33494,0 -43.0188,-1.30862 -64.27004,-3.33232 -10.66288,-1.01536 -22.82504,-4.32932 -33.48524,-3.60884 -4.87209,0.32946 -8.758,5.48402 -14.04218,6.35788 -11.56483,1.9119 -23.45209,-0.1074 -35.10549,1.83844 -10.63912,1.77688 -21.73678,4.22292 -31.86498,7.97272 -11.02528,4.08196 -21.97117,9.42178 -34.02531,6.17048 -10.52139,-2.83816 -24.91032,-8.21902 -32.89654,-15.62788 -6.35178,-5.89232 -10.3572,-15.1294 -17.8714,-19.72876 -1.53573,-0.93974 -3.32465,-0.69994 -4.86076,-1.55382 -3.00497,-1.67048 -4.56031,-4.21752 -8.10126,-5.08704 -3.69213,-0.90682 -7.70339,-0.27114 -11.34177,-1.17146 C 7.83652,414.10054 5.73721,410.32968 0,410.7342 v 217.654 c 4.30572,0.49148 6.949,-1.9767 10.80169,-3.53754 4.94269,-1.99832 10.25215,-3.1163 15.12236,-5.27122 3.41668,-1.51224 7.14078,-4.4935 10.80169,-5.1146 12.542,-2.11174 19.93775,7.59898 31.86498,8.47392 14.55743,1.06936 28.73951,-6.75106 43.20675,-4.81216 -8.73425,18.29806 -23.91548,30.16912 -37.17401,44.827 -7.76479,8.58736 -12.31716,18.5033 -18.99477,27.54432 3.8508,-1.63106 8.36159,-8.9708 12.33013,-9.07882 1.9524,-0.054 4.16081,2.88944 6.03274,3.60236 4.26775,1.62024 9.41853,0.21604 13.50211,-1.2908 23.33219,-8.59814 43.41738,-24.70886 66.97047,-32.25924 22.21367,-7.11832 46.3306,-10.71528 69.1308,-15.74886 17.47658,-3.8616 34.86622,-9.81334 52.38818,-13.10786 9.31268,-1.74986 19.18596,-2.0145 28.62448,-2.95966 11.74358,-1.17198 23.34136,-3.15408 35.10548,-3.66716 12.88804,-0.5671 26.55756,-0.85334 39.42616,0.027 11.71282,0.79932 23.41266,3.2297 35.10548,3.73198 -4.04522,5.24422 -11.3812,8.67376 -16.74262,12.49756 -12.2167,8.71696 -24.27246,18.07662 -37.26582,25.6216 -9.24732,5.36844 -22.838,12.1573 -25.92404,23.45046 21.90636,-5.19022 42.49654,-16.53738 63.18986,-25.07072 8.21416,-3.38632 17.68562,-3.49974 25.38398,-8.06346 4.84132,-2.87324 7.98568,-7.60978 12.42194,-10.9475 10.66774,-8.03106 27.89536,-14.6579 41.04642,-9.92676 v 0.54008 c -24.06292,1.96592 -40.5571,20.63122 -60.48946,31.16288 -8.73694,4.61772 -18.3067,4.59612 -27.5443,7.58818 -13.36386,4.32068 -26.19518,10.8719 -38.88608,16.87764 v 0.54008 l 18.90296,-4.32068 c -1.49658,5.91932 -8.39616,10.03478 -12.96204,13.68034 -9.8722,7.88524 -22.13536,16.06752 -30.24472,25.74582 6.99032,-1.9983 13.6501,-5.42784 20.5232,-7.82582 19.00828,-6.64304 38.245,-12.72978 57.78904,-17.61214 33.29998,-8.32812 67.29668,-13.09706 100.99578,-19.43764 68.10464,-12.8162 136.3119,-23.39646 205.23206,-30.28794 30.50938,-3.05148 61.17536,-5.30902 91.81436,-5.30902 6.68084,0 13.33468,0.51848 19.98312,0.54008 3.79138,0.01 8.17688,0.1944 10.2616,3.78058 -9.47848,3.55916 -18.61132,7.88524 -28.0844,11.4228 -12.36252,4.61772 -24.73504,8.32386 -35.64556,15.9973 -6.23716,4.38664 -13.91534,11.59838 -16.20254,19.56724 -0.97956,3.4129 -10.38202,23.32454 -14.36176,26.21712 -4.08386,2.96826 -17.8514,-0.24684 -28.84498,8.66694 -6.62144,4.78514 -11.5362,11.75764 -17.2827,17.50414 -8.58194,8.58194 -17.8714,16.25114 -26.46414,24.84388 -7.86362,7.86362 -15.4302,17.04506 -24.3038,23.7637 v 0.5401 c 5.7411,-1.02616 11.68744,-4.80676 16.74262,-7.6314 9.11662,-5.093 18.12524,-10.8233 25.92406,-17.84438 5.72488,-5.15242 10.3102,-11.4498 16.20252,-16.41318 7.32354,-6.17316 16.19174,-11.10412 25.38396,-13.86396 8.9006,-2.66802 16.88304,-2.614 24.8439,-8.21468 10.62886,-7.47478 17.19628,-18.42768 26.46412,-27.28506 10.38042,-9.92136 23.09402,-17.2071 35.64558,-23.95274 4.16404,-2.23596 9.27324,-6.48642 13.85316,-7.55038 1.9767,-0.45908 1.36642,2.33856 1.15038,3.39712 -0.6697,3.35392 -1.8957,6.75106 -3.59156,9.72152 -4.36388,7.6422 -13.54532,9.5973 -17.37452,17.82278 -3.9264,8.43612 2.16034,20.14516 -6.481,26.51814 -18.63832,13.72896 -29.60748,14.808 -57.22736,41.5325 14.27434,-9.74128 24.2174,-20.26936 38.346,-26.853 8.45232,-3.94262 20.66362,-2.11712 28.03038,-8.91138 4.4395,-4.10466 3.41334,-10.29402 5.1092,-15.54364 2.93806,-9.08962 10.58566,-18.14684 19.7887,-21.38194 35.59156,-12.51916 71.56118,-16.96404 109.09704,-16.96404 25.98346,0 53.98144,5.63308 78.85234,-3.1649 16.3159,-5.7735 32.4915,-12.7676 47.5274,-21.37114 9.4893,-5.42784 18.7301,-13.4373 28.6245,-17.84438 6.1893,-2.75444 13.4859,-3.1973 19.9831,-5.012 12.881,-3.58616 25.7404,-7.55038 38.346,-12.02768 7.0157,-2.48978 12.4111,-8.01484 19.443,-10.75848 12.8432,-5.00658 26.9394,-4.89316 40.5064,-4.89316 -1.5123,5.97334 -7.3722,9.79714 -11.8819,13.54532 -10.483,8.71156 -22.1813,16.0135 -32.9451,24.374 -3.8022,2.94886 -9.7324,5.7357 -11.8819,10.1482 l -3.7806,1.62024 v 0.5401 l 19.443,-7.5936 8.1013,-4.28826 c 9.7323,-0.36726 20.1398,-5.7735 30.0881,-7.0049 12.7568,-1.57704 25.708,-1.14498 38.5026,-2.86784 19.8967,-2.68422 39.3938,-8.2579 58.8692,-13.09166 8.5118,-2.11712 22.1219,-2.21434 30.7848,-0.6751 2.6356,0.46448 7.0481,3.42954 7.2642,6.3568 0.3024,4.03442 -6.0976,11.10412 -8.1175,14.58228 -3.1595,5.44944 -6.5188,10.78008 -9.7323,16.20252 -1.3826,2.33856 -2.5654,5.67088 -5.0984,7.0049 -3.921,2.06312 -10.2292,1.03696 -14.5607,2.04152 -10.7207,2.48438 -21.2145,12.35712 -24.8439,22.81856 7.3668,-1.307 10.4237,-5.7573 16.2026,-9.5919 5.3522,-3.54836 10.4614,-4.4503 16.7426,-4.4503 -1.2692,2.5168 -1.7067,5.93014 -3.8994,7.86904 -2.7167,2.39258 -6.7187,2.48438 -9.4461,5.1956 -24.5847,24.36862 -60.1654,28.64068 -91.4309,40.9438 v 0.5401 c 29.143,-0.006 54.3973,-14.7173 80.4726,-25.19494 4.2396,-1.70128 9.1166,-0.97756 13.5021,-2.82464 4.4449,-1.8687 7.7826,-6.14076 11.9737,-7.84204 2.2359,-0.90734 5.0984,-0.1296 7.4693,-0.57788 4.0507,-0.76152 7.8367,-3.07848 11.3418,-5.147 -0.2916,14.24202 -9.4461,22.29468 -18.903,31.86498 -12.854,13.01602 -24.833,26.52894 -39.9662,37.11458 -9.8889,6.9185 -20.48,14.11782 -31.865,18.36828 -11.8224,4.41248 -24.32,6.02194 -35.6455,12.1141 -15.9595,8.58734 -27.7604,23.00758 -43.2068,32.62648 -20.6096,12.83782 -42.8017,22.986 -63.73,35.26212 -15.0953,8.85738 -29.0295,19.04878 -43.2067,29.24016 v 0.5401 c 14.4418,-5.28744 28.4786,-15.3006 42.1266,-22.51072 21.7978,-11.5146 44.1789,-22.24068 64.8101,-35.7914 10.8233,-7.1075 20.1019,-16.41316 31.3249,-22.78076 11.3256,-6.4216 22.6727,-6.30818 35.1055,-8.26868 10.051,-1.58786 18.8867,-6.02194 28.6245,-8.45772 8.6251,-2.16034 17.6067,-2.38718 25.924,-5.81132 15.4842,-6.373 23.0292,-19.2 35.6456,-29.01334 12.7028,-9.87814 29.4454,-16.20792 44.2869,-22.20286 51.2216,-20.68524 105.9159,-34.77604 159.865,-46.00978 16.9748,-3.53216 34.1549,-6.61064 51.308,-9.08422 10.4398,-1.50684 23.0454,-1.41502 32.9451,-5.0228 l 0.5401,0.5401 v 1.08016 c -4.272,1.42582 -7.8366,5.53586 -11.8818,7.56118 -6.5999,3.29992 -14.053,4.68254 -21.0633,7.0211 -6.103,2.03612 -13.729,-1.02616 -19.9831,0.54008 -10.8773,2.71662 -21.1768,3.8724 -31.3249,8.10126 -5.8978,2.4574 -10.6073,6.9995 -16.2026,10.26162 -12.1087,7.0643 -24.5954,15.04134 -37.8059,19.44304 -17.1207,5.70868 -35.2297,8.86278 -52.3882,14.58226 -20.1181,6.70786 -39.9014,16.44018 -58.8692,25.92406 -9.2516,4.62852 -18.3628,9.45148 -27.5443,14.0422 -4.5151,2.25754 -8.3443,6.04894 -12.962,8.10126 -8.9114,3.95882 -20.8094,10.2724 -29.7046,16.20254 -5.5251,3.68336 -11.0934,6.96708 -16.7427,10.2616 -2.5113,1.46362 -5.5142,4.69872 -7.0211,4.32066 v 1.08018 l -1.0801,-0.54008 -15.1224,10.2616 v 0.54008 c 28.8027,-11.98988 56.1202,-29.60742 83.7131,-44.1681 10.375,-5.47646 20.1181,-11.67122 31.3249,-15.3816 15.684,-5.19022 31.2871,-5.42246 47.5274,-6.9725 16.0189,-1.52844 32.3727,-3.95342 48.0675,-7.65298 30.8226,-7.25334 61.8019,-15.52744 91.2743,-27.31748 26.6802,-10.67206 52.1397,-23.7259 78.3122,-35.52134 28.3059,-12.7622 57.8431,-27.78194 88.0338,-35.32692 7.0157,-1.75528 14.35,-3.28372 21.6034,-3.1865 3.3539,0.0486 7.5719,1.361 8.8573,4.86076 2.6789,7.29654 -9.311,14.61468 -12.0978,19.98312 5.4818,-0.6913 14.5984,-2.22514 19.4214,1.09096 4.6015,3.1595 3.2405,7.13452 5.5196,11.23916 3.678,6.63224 13.594,8.75478 20.426,8.10128 8.6684,-0.82634 17.0181,-3.98584 25.384,-6.23798 4.1587,-1.11798 9.9322,-1.78228 13.5021,-4.23426 4.2289,-2.90566 7.68,-7.45858 11.3418,-11.03392 9.9861,-9.73774 19.7077,-20.89048 30.7848,-29.3914 5.174,-3.96422 11.3364,-7.46396 17.8228,-8.70616 5.9733,-1.15038 12.9512,-0.25924 18.3629,-3.48354 8.5765,-5.1092 15.0953,-14.84692 21.6951,-22.15426 4.3639,-4.83376 9.6568,-8.67916 14.5823,-12.89722 10.9583,-9.39206 25.6918,-16.66214 38.7943,-22.65222 3.1703,-1.44958 6.3838,-2.94454 9.7215,-3.96206 0.7885,-0.24034 3.1649,-1.09692 3.4403,0.30568 0.6589,3.35232 -7.5935,8.75208 -9.9213,10.3032 -12.0925,8.06616 -26.2211,11.16624 -38.346,18.74362 -7.2371,4.52052 -10.9691,10.94752 -16.4078,17.18008 -3.8292,4.3801 -8.6683,7.6746 -12.1303,12.42196 -2.7436,3.75898 -3.6779,9.10582 -7.2047,12.2113 -2.8732,2.5168 -7.6638,3.2081 -11.2445,4.21806 -7.3668,2.06852 -15.8569,4.40708 -22.1219,8.9816 -4.8176,3.52136 -5.7411,10.49924 -9.4893,15.00354 -4.4773,5.37924 -11.2067,8.2903 -15.8029,13.59932 -2.3115,2.67882 -2.938,6.13536 -4.6015,9.17604 -1.7012,3.10548 -4.218,5.33064 -6.3136,8.10126 l 44.827,-18.35746 84.7933,-34.5762 38.886,-15.9541 15.1224,-0.36186 c 0,0 11.357,-7.9578 25.384,-9.0626 V 483.96802 c -12.412,-0.27424 -21.081,-6.43244 -23.9542,-7.89066 -9.508,-1.84328 -13.9618,-2.87092 -20.5196,-5.09068 -3.7903,-1.28298 -8.7569,-3.23684 -12.7751,-3.28762 -2.8895,-0.0368 -4.4827,2.94832 -7.5612,2.73176 -18.6761,-1.31404 -36.3801,-8.71968 -54.0085,-14.59632 -34.749,-11.58266 -71.5017,-20.6766 -103.6962,-38.54422 -23.9365,-13.28552 -42.672,-31.39618 -64.27,-47.7386 -14.5931,-11.04202 -31.0603,-19.68282 -44.3355,-32.36832 -22.986,-21.96038 -43.7631,-46.22096 -67.8292,-67.00882 -5.5953,-4.83592 -12.0547,-8.33026 -17.893,-12.79946 -4.0777,-3.11682 -5.0768,-7.07294 -10.9043,-7.58602 9.338,14.95008 23.526,25.84682 35.6239,38.34816 5.3955,5.57744 10.0078,12.15998 14.6579,18.3607 12.2059,16.26248 23.4883,33.31726 33.9227,50.76794 4.4503,7.44236 7.7556,17.38962 13.6534,23.74048 3.2351,3.48894 8.1336,4.20618 11.7792,7.1383 8.8196,7.08806 13.9234,17.18764 21.652,25.28188 2.9002,3.0369 6.8645,4.68416 10.213,7.17502 2.0685,1.54032 9.7323,7.3619 7.6746,10.48412 -2.2846,3.4668 -10.9637,-1.96482 -13.6156,-3.11196 -7.1723,-3.1071 -14.1988,-6.66896 -21.6033,-9.1998 -7.2858,-2.48978 -13.7722,-3.5327 -19.9832,-8.39724 -18.7517,-14.69298 -34.5005,-30.53204 -57.789,-37.80104 -17.2233,-5.376 -35.8022,-1.85734 -52.3882,-9.7091 -12.9782,-6.14238 -26.8962,-14.7254 -38.346,-23.34028 -6.9184,-5.20588 -15.9487,-15.08996 -24.3038,-17.36588 4.3153,9.06478 13.783,17.29728 20.3666,24.84388 16.424,18.8268 33.8795,36.87264 49.7418,56.17688 5.1524,6.27038 10.8557,12.07034 15.9919,18.35478 2.7382,3.3469 5.7303,7.2193 4.4017,11.87158 -0.8912,3.12008 -3.7644,2.61834 -6.2488,1.94106 -5.9679,-1.62726 -12.0061,-3.06658 -17.8228,-5.19992 -24.6818,-9.05074 -47.9055,-20.89532 -71.8312,-31.6711 -15.1494,-6.82342 -31.2655,-9.57892 -46.9873,-14.38352 -6.9887,-2.13604 -13.2645,-5.8529 -20.5232,-7.66866 -5.5629,-1.39072 -11.5579,-2.51624 -17.2827,-2.9089 -2.8895,-0.1976 -7.14,0.92464 -9.7216,-0.4974 -3.7266,-2.0507 -6.5998,-6.346 -9.7215,-9.18036 -6.265,-5.69304 -12.8864,-11.20784 -19.9831,-15.84176 -7.869,-5.1389 -17.6554,-4.92178 -25.384,-10.92698 -9.6621,-7.50664 -15.6786,-17.8822 -26.4641,-24.38806 -11.8603,-7.15396 -24.05,-7.32732 -36.7257,-11.41522 -9.673,-3.11952 -15.0414,-9.16416 -23.2237,-14.42836 -3.2405,-2.08364 -7.3991,-2.19382 -10.8017,-4.46812 -9.3596,-6.25416 -16.1053,-18.52002 -23.229,-27.20134 -2.857,-3.47436 -6.1354,-8.3146 -10.2562,-10.24054 m 127.4599,91.27426 34.5654,25.30566 11.8819,9.79982 c -5.7087,1.3594 -17.785,1.69478 -23.2237,-0.58652 -7.5287,-3.15788 -13.6857,-11.55134 -17.7093,-18.31642 -2.1496,-3.60778 -7.3776,-12.18756 -5.5143,-16.20254 m 220.8945,35.46356 c 16.397,9.38234 34.5168,12.5548 51.8481,19.33556 9.6081,3.75898 18.0389,9.58542 26.4642,15.41184 v 0.5401 c -15.225,-1.92432 -30.396,-6.50424 -45.3671,-9.91002 -6.0274,-1.3718 -15.198,-1.96212 -20.4314,-5.26042 -3.2405,-2.04206 -5.6601,-5.81994 -8.2417,-8.59328 -4.3531,-4.6728 -9.0518,-8.96972 -13.3131,-13.72948 -4.4125,-4.92072 -14.5445,-11.40172 -15.8028,-18.1355 7.5449,7.54282 15.522,15.00678 24.8438,20.3412 z m -1504.13499,19.08496 0.54009,0.54008 -0.54009,-0.54008 m -54.00844,31.3249 c 8.79042,11.46004 21.92257,18.11604 35.10549,22.33734 6.06029,1.94052 10.70825,4.29476 17.2827,3.43062 5.20803,-0.68482 9.77931,-3.57428 14.67409,-5.275 11.39524,-3.95774 22.58957,-7.92682 34.47359,-10.23136 -7.10967,-2.98342 -18.26566,-0.90032 -25.92405,-1.08828 -15.47504,-0.3786 -31.04729,-2.35908 -46.44726,-3.79354 -5.92581,-0.5525 -12.04982,-1.32484 -17.82278,-2.83382 -3.5374,-0.92464 -7.6941,-3.00396 -11.34178,-2.54596 m 243.03797,184.16876 v 0.5401 c -10.1093,1.03696 -20.94608,8.3821 -30.7848,11.40658 -19.8265,6.08674 -40.48364,9.74852 -61.02954,12.35712 3.18272,-5.2064 14.54178,-7.52336 19.98312,-9.96996 17.42312,-7.82582 37.55262,-14.87392 56.70886,-14.87392 4.8073,0 10.4987,-0.82632 15.12236,0.54008 m 27.00422,2.16034 v 0.5401 h -19.44304 c 4.91802,-4.29908 13.76352,-1.93892 19.44304,-0.5401 m -162.02531,8.64136 c -4.64148,5.45484 -13.39085,8.9654 -19.44304,12.7892 -15.02677,9.48928 -31.10076,20.90126 -47.52742,27.71712 l 13.38923,-11.36338 16.3975,-22.71054 7.50015,-8.2687 9.16037,0.1782 20.52321,1.65806 m 744.77637,121.51898 c 15.9811,-4.60152 29.86126,-18.5681 46.44726,-20.94988 12.38954,-1.78226 23.13722,2.41958 35.10548,3.57536 16.51578,1.59866 33.63644,-1.45822 48.60764,-8.49012 8.4469,-3.96962 15.1709,-9.78632 22.6835,-15.08456 5.8707,-4.14244 12.611,-7.55578 17.8228,-12.54076 5.6925,-5.43864 9.6027,-12.57316 15.6624,-17.62294 10.9475,-9.12744 25.6486,-17.10448 38.8861,-22.3217 -3.8886,-0.81552 -9.8565,3.2135 -13.5021,4.62852 -14.0476,5.44946 -28.3274,13.85858 -40.5063,22.71596 -8.5334,6.20556 -17.434,11.89266 -25.9241,18.17924 -7.3127,5.40624 -13.7397,11.30936 -22.1434,15.07376 -7.8799,3.53214 -17.4448,5.08218 -25.92408,6.58362 -15.48422,2.73282 -31.01166,-1.2962 -46.44726,-0.162 -5.20642,0.38346 -9.35966,4.05062 -14.0422,6.02734 -11.98448,5.06598 -28.71088,9.24624 -36.72574,20.38818 m -550.34598,-55.0886 0.54008,0.54008 -0.54008,-0.54008 m 905.72146,143.66244 0.5401,0.54008 -0.5401,-0.54008 m -1.0801,0.54008 0.5401,0.54008 z"
       id="path3968"
       sodipodi:nodetypes="ccccccsccssccccsccccccccsscscccccccccccssccccccscccccscsscsccccccccsccccccsccccccsccccccsccccccsccccccccccccccccccccccccccccccsccccccccccccccccccccccccssccccccccccscscccccccsccccccccccssccccccsccsscccssssccscccsccccccccccccccccccccccccccccccccccccccccccccscccssscsscccccccccscccccccccsccccccccccccccccccccccccccccccccsccccccccccccccccccccccccscsccccscscccccccccccccccccccccccccccsscccccccccccccccccccsssccsccccccsccccscccscsccscssccsccccccsscccccccscccscccsccccccccscccccsccccccscccccccccccccccccccccccccccccccccccccc"
       inkscape:label="lightning-foreground" />
    <path
       style="fill:#ffffff;fill-opacity:1;stroke:none;stroke-width:0.270042"
       d="m 1256.1856,245.46838 0.5401,0.54008 -0.5401,-0.54008 m -176.6076,49.68776 0.5401,0.5401 -0.5401,-0.5401 m 72.9114,34.5654 0.5401,0.5401 -0.5401,-0.5401 M 99.32482,390.211 99.8649,390.75108 99.32482,390.211 m 1.62025,0.54008 0.54008,0.54008 -0.54008,-0.54008 m 1.08017,0.54008 0.54008,0.5401 -0.54008,-0.5401 m 429.61215,57.4676 c 5.39632,0.0484 28.51894,-0.1056 28.51894,-0.1056 57.68636,-0.0608 115.60128,0.33702 173.58748,-0.2067 16.23718,-0.1522 28.4575,-0.36646 44.87678,-1.0203 5.58994,-0.22254 12.77226,-0.33212 12.7567,-1.08104 -0.014,-0.64342 -11.31532,-0.36976 -18.1431,-0.49226 -13.43392,-0.24102 -26.19924,-0.5413 -39.71978,-0.82302 -54.49924,-1.13554 -109.4715,-1.23714 -164.17664,-1.23714 h -56.70888 c -7.7529,0 -30.86996,-0.56994 -30.69126,2.07782 0.1904,2.82052 15.6658,2.55962 21.31926,2.64824 6.40814,0.1004 23.65778,0.1976 28.3805,0.23996 z M 1412.27,472.30404 c 0.068,1.51126 12.1776,1.32998 17.6217,1.32998 10.294,0 20.2349,0.1816 30.5181,0.1816 30.9738,0 61.8214,0.64882 92.8222,0.64882 99.678,0 199.4802,0.54008 299.2068,0.54008 h 101.5358 c 5.0066,-0.002 9.1815,-1.84384 14.0422,-2.5384 3.6294,-0.51848 7.1831,0.35862 10.8017,0.37752 2.9219,0.016 6.319,1.06128 7.5612,-2.15978 l -23.2236,-3.00072 -100.9958,0.84038 h -184.1688 l -120.9789,1.0591 c 0,0 -65.8654,0.78566 -98.8653,0.79658 -10.0816,0.004 -24.8991,0.1686 -30.2149,0.30466 -4.9537,0.1268 -15.7262,0.2102 -15.6624,1.62024 z m -720.47261,-0.54008 h -63.72996 c -58.8746,0 -117.70166,1.08016 -176.6076,1.08016 -45.5707,0 -91.12302,1.08018 -136.64134,1.08018 -33.19736,0 -66.54958,0.0512 -99.73926,0.5179 -7.0825,0.0996 -18.68319,0.20988 -26.24919,0.30872 -10.69611,0.1398 -26.71664,-0.1372 -48.45881,0.81466 -24.33567,1.0654 -54.87907,2.6055 -70.37704,4.12116 -4.58746,0.44862 -24.90555,1.7633 -24.76865,5.57874 0.14216,3.962 16.96685,4.45406 22.30446,4.92352 19.50569,1.71556 30.33455,2.31524 49.07752,3.15724 42.88378,1.9265 86.12671,0.56114 129.08017,0.56114 109.97036,0 198.17482,2.6923 290.31614,0.4451 11.73878,-0.28628 63.47936,-1.47272 75.04796,-1.89374 34.15494,-1.24298 68.24804,-2.0288 102.34898,-2.86378 60.7649,-1.48846 121.76202,-0.008 182.54852,-0.008 57.5946,0 107.16801,0.86752 164.71941,-0.54642 11.6874,-0.28678 35.3747,-1.4561 47.1939,-2.03138 18.051,-0.87858 29.3223,-1.17206 47.0585,-2.37754 3.9551,-0.26882 21.7573,-0.63816 21.8233,-3.31492 0.07,-2.83072 -21.0112,-4.22994 -26.4154,-4.5373 -16.202,-0.9215 -27.6628,-1.65302 -41.957,-2.5508 -13.6558,-0.85768 -27.6058,-1.583 -41.2159,-1.91624 C 992.14913,470.475 917.01259,471.2241 841.94085,471.2241 h -77.23206 c -12.85402,0 -25.3306,0.133 -39.04066,0.23048 -11.90436,0.0846 -22.90702,0.30938 -33.87074,0.30938 z m 34.5654,31.86512 v 0.54008 c 9.37046,2.30886 19.08658,1.86978 28.62448,2.7566 29.13754,2.70906 59.21484,1.024 88.57384,1.024 67.39172,0 134.56742,1.62024 201.99159,1.62024 h 340.7932 c 37.3307,0 74.5641,-1.17522 111.7975,-1.61808 18.1144,-0.2155 35.9588,-1.35076 54.0084,-2.14144 8.2741,-0.3624 17.2719,0.8112 25.384,-0.56114 v -1.08018 c -16.9965,-4.05712 -35.6078,-2.10254 -52.9283,-3.28858 -41.7971,-2.86298 -83.8859,-2.65234 -125.8397,-2.65234 -111.2519,0 -222.5633,0.54008 -333.7721,0.54008 -72.08505,0 -144.01889,1.08016 -216.03375,1.08016 -31.4059,0 -63.3033,-0.9392 -94.51476,1.57004 -9.31646,0.74854 -18.89756,0.0232 -28.0844,2.21056 M 0.05071,514.44444 c 5.82739,1.32494 11.5564,1.7905 17.34148,2.2547 9.96144,0.79932 18.73134,1.36366 28.09445,1.45072 76.14881,0.70798 152.14842,0.49916 228.28543,-1.01688 18.86936,-0.37572 62.9544,-0.54304 71.6837,-1.36512 11.58248,-1.09076 26.25308,-0.50936 36.07378,-0.74256 4.7532,-0.1128 16.83418,-0.1178 16.74934,-1.96822 -0.075,-1.63554 -13.16956,-2.1977 -16.74442,-2.42296 -14.19598,-0.89452 -28.33672,-2.93658 -42.91228,-4.004 -11.38648,-0.83388 -23.55678,-0.98356 -33.4418,-1.1731 -34.57324,-0.66296 -68.62932,-0.44862 -103.23954,-1.29642 -44.12381,-1.08084 -88.69428,-1.60622 -132.86076,-0.52388 -16.68202,0.4083 -33.5819,1.0081 -50.24848,1.96298 -6.29862,0.36088 -13.58158,1.13786 -18.76931,2.01568 z m 677.15326,23.6486 c 18.1438,0.49282 40.13402,0.101 59.9605,0.101 h 18.36288 c 1.9713,0 5.3533,0.3999 5.95712,-2.16844 0.64918,-2.76122 -3.19188,-2.68288 -4.87696,-2.69178 -6.4972,-0.0344 -12.97822,-0.46178 -19.44304,-0.53846 -19.15138,-0.22792 -38.5239,-0.87474 -57.52422,-0.0798 -7.46408,0.31226 -22.70764,-0.1294 -22.3201,2.11994 0.22186,1.2877 12.54082,3.0581 19.88382,3.25754 z m 1370.74533,-3.13942 c -71.7988,0 -150.1705,-1.81362 -221.9747,-2.1598 -188.6677,-0.91004 -377.3839,0.53954 -566.0084,0.53954 -35.2513,0 -80.3789,-0.1624 -130.7639,0.51408 -24.5342,0.32936 -108.9919,0.30698 -108.8932,6.54344 0.089,5.62912 75.4988,6.45904 109.4262,7.0468 32.4563,0.56226 96.6327,1.01876 129.1507,1.01876 189.7047,0 379.5605,2.25378 569.249,-0.002 71.0697,-0.84524 148.75,-2.15818 219.8143,-2.15822 z M 61.02742,577.26996 c 27.72233,0.59502 131.732,0.35032 131.732,0.35032 h 470.95359 c 38.01654,0 88.10674,-0.35266 102.15854,-0.50384 5.83674,-0.0628 25.34274,-0.1766 34.58942,-0.70932 4.0771,-0.23488 14.59192,-0.47056 14.57112,-1.72232 -0.0202,-1.2205 -18.76802,-1.051 -25.78896,-1.09614 -14.58318,-0.0936 -24.53424,-0.1306 -39.11662,-0.31006 -60.48908,-0.74448 -120.97574,-1.7847 -181.46836,-2.14144 -93.97304,-0.55418 -281.92404,0.002 -281.92404,0.002 0,0 -137.18144,0.001 -205.77216,0.002 -19.82718,2e-4 -61.59281,-1.02944 -61.48922,2.08022 0.0913,2.74162 29.98293,3.8006 41.55469,4.04896 z m 1534.04898,20.8916 c 14.9297,0.61494 31.6493,0.57618 46.7294,0.5213 30.7893,-0.112 60.4726,-0.71124 91.2537,-1.42646 15.4081,-0.35802 37.4329,-0.95092 42.2617,-0.9498 5.452,10e-4 22.0465,-0.23764 22.0289,-1.40432 -0.016,-1.08948 -16.3255,-1.20788 -22.7877,-1.41946 -14.6621,-0.48002 -26.2038,-0.7313 -40.6066,-1.08016 -32.0485,-0.77624 -63.9306,-2.20214 -95.9306,-1.82106 -18.3413,0.21842 -37.1173,0.9202 -55.2312,1.26786 -16.7882,0.32222 -33.3804,0.86488 -50.0852,0.89248 -3.2675,0.006 -14.877,0.0284 -14.928,2.45386 -0.038,1.83376 17.7297,1.2069 32.3514,1.37922 16.9579,0.1998 25.306,0.77768 44.9442,1.58654 z m 351.868,0.0594 c 5.906,0.0488 17.3391,-0.0678 23.241,-0.1896 24.1029,-0.49722 76.2591,-0.42236 76.3241,-2.8221 0.076,-2.83886 -69.5402,-3.48266 -78.982,-3.56804 -12.279,-0.1004 -27.1339,-0.016 -41.9804,0.0982 -14.4881,0.1108 -28.9682,0.24882 -41.0386,0.26804 -6.9397,0.012 -35.0629,0.45752 -35.0325,2.69002 0.025,1.82518 24.7701,2.23978 31.1192,2.42046 15.5549,0.4427 22.5874,0.95338 38.2821,1.02418 11.8341,0.0538 17.8609,-0.006 28.0753,0.0782 z M 797.11385,616.50558 c 0,2.27564 29.34798,2.0306 43.68058,2.0321 13.89396,10e-4 56.57528,-0.41194 84.8595,-0.41194 92.37067,0 184.80067,0.35646 277.06327,0.35646 34.0578,0 68.0826,0.35002 102.076,0.31866 18.5914,-0.018 37.778,-0.77892 54.1487,-0.91244 l 37.1255,-0.30276 c 32.9765,-0.26894 65.8687,-0.54008 98.8355,-0.54008 h 31.865 c 5.5805,0 14.6006,-0.1744 14.5929,-0.75756 -0.01,-0.65092 -12.0707,-0.8627 -17.8334,-0.8627 h -33.4853 c -34.0415,0 -68.0182,-0.54008 -102.0759,-0.54008 -69.3307,0 -138.7153,-0.54008 -207.9325,-0.54008 -43.4066,0 -87.0585,-0.52564 -130.6003,-0.5702 -56.82307,-0.0582 -113.90673,0.0296 -170.76681,0.0296 -17.69856,0 -39.94156,0.0768 -52.65436,0.38348 -5.93686,0.1432 -28.86692,-0.42754 -28.89838,2.31754 z"
       id="path3986"
       sodipodi:nodetypes="ccccccccccccccccccssssssssssssscsscsccccccssscscssssssssssssscssssssssssscsssssscccsssccccssssssssssssccssssssssssssssccccssssssssssssssssssssssssssssssssssssssssssssssssssssssssss"
       inkscape:label="lightning-highlight" />
  </g>
</svg>
