<?xml version="1.0" encoding="UTF-8" standalone="no"?>
<svg
   xmlns:dc="http://purl.org/dc/elements/1.1/"
   xmlns:cc="http://creativecommons.org/ns#"
   xmlns:rdf="http://www.w3.org/1999/02/22-rdf-syntax-ns#"
   xmlns:svg="http://www.w3.org/2000/svg"
   xmlns="http://www.w3.org/2000/svg"
   xmlns:sodipodi="http://sodipodi.sourceforge.net/DTD/sodipodi-0.dtd"
   xmlns:inkscape="http://www.inkscape.org/namespaces/inkscape"
   version="1.1"
   id="svg2698"
   width="128"
   height="128"
   viewBox="0 0 128 128"
   sodipodi:docname="kil.svg"
   inkscape:version="1.0.1 (3bc2e81, 2020-09-07)">
  <metadata
     id="metadata2704">
    <rdf:RDF>
      <cc:Work
         rdf:about="">
        <dc:format>image/svg+xml</dc:format>
        <dc:type
           rdf:resource="http://purl.org/dc/dcmitype/StillImage" />
        <dc:title></dc:title>
      </cc:Work>
    </rdf:RDF>
  </metadata>
  <defs
     id="defs2702" />
  <sodipodi:namedview
     pagecolor="#ffffff"
     bordercolor="#666666"
     borderopacity="1"
     objecttolerance="10"
     gridtolerance="10"
     guidetolerance="10"
     inkscape:pageopacity="0"
     inkscape:pageshadow="2"
     inkscape:window-width="2488"
     inkscape:window-height="1370"
     id="namedview2700"
     showgrid="false"
     inkscape:zoom="6.2523126"
     inkscape:cx="53.961765"
     inkscape:cy="81.176587"
     inkscape:window-x="2632"
     inkscape:window-y="33"
     inkscape:window-maximized="1"
     inkscape:current-layer="g2706"
     inkscape:document-rotation="0"
     showguides="true"
     inkscape:guide-bbox="true" />
  <g
     inkscape:groupmode="layer"
     inkscape:label="Image"
     id="g2706"
     style="display:inline">
    <path
       style="display:inline;fill:#d32d00;fill-opacity:1;stroke:#6b1800;stroke-width:3;stroke-linecap:round;stroke-linejoin:miter;stroke-miterlimit:5;stroke-dasharray:none;stroke-opacity:1"
       d="m 20.266006,18.110081 c 25.39344,14.659013 47.780107,31.912453 47.780107,31.912453 0,0 28.445918,-24.722822 38.974907,-34.998156 5.41072,-5.2803727 9.66496,-4.435197 5.4993,3.266909 -0.0323,3.552644 -0.60309,7.897142 -0.11188,12.623504 0.25207,2.42538 0.33019,3.677317 -0.1844,4.754574 -1.12536,2.355841 -4.3192,2.585334 -5.28654,-0.10369 -0.6921,-1.923918 1.37073,-6.474321 1.51813,-9.92552 l -0.55174,1.034779 c -0.48278,1.032652 -0.93437,2.803021 -0.95462,4.556344 -0.0269,2.335623 0.0305,4.715757 -1.79818,5.504037 -1.47178,0.634432 -3.6795,-0.450246 -3.07743,-2.873004 -10.691135,13.868703 -23.124885,25.938385 -23.124885,25.938385 0,0 28.111615,26.101447 40.555465,43.986204 6.63697,9.5389 1.26209,12.82526 -6.61065,4.52184 C 99.956109,94.663544 86.377269,82.265624 78.229975,75.33238 c -0.0019,1.830549 -1.167882,2.940238 -2.493571,2.907413 -3.529753,-0.08741 -4.616609,-4.132817 -3.929103,-7.678799 -2.047202,-1.647606 -2.430028,-2.144489 -2.430028,-2.144489 0,0 -10.252108,9.515054 -30.215605,21.22098 -1.852579,8.044787 -3.241814,11.274085 -6.824444,13.179735 -0.177647,4.63554 -2.467559,6.70328 -4.165088,4.76011 -1.215205,-1.39106 -0.273458,-6.76498 -0.75195,-8.039315 -0.988679,2.612265 -4.32423,3.922475 -7.447718,1.625565 -0.03963,5.62237 -1.383429,8.89552 -4.188715,9.25043 0.16322,3.52255 -0.557159,6.23031 -3.864885,5.92348 -1.9994436,-0.18548 -2.6733251,-2.55702 -1.475028,-3.6822 C 8.4213149,110.9363 8.8007779,108.06896 10.01445,106.46262 7.0784967,105.16529 5.9654638,101.18173 7.7951672,98.213455 4.0523279,94.138336 4.4502566,88.25938 12.208765,84.602758 30.896309,75.79523 47.548424,65.721119 54.999262,59.368354 c 0,0 -5.347798,-3.797448 -15.571632,-10.068895 -0.548447,2.486374 -2.468364,2.72517 -3.414991,2.299622 -1.228524,-0.552272 -1.602138,-1.708566 -2.451726,-3.570275 -0.05279,2.884117 -0.122549,5.186698 -0.245291,7.185761 -0.163796,2.667743 -4.710379,3.03402 -4.966823,-0.406803 C 28.075724,51.143786 28.279476,46.58832 28.060524,42.360883 23.030312,39.44736 15.931533,35.284185 10.649104,32.528924 0.86438326,27.425314 7.2393514,10.590111 20.266006,18.110081 Z"
       id="path3271"
       sodipodi:nodetypes="scscsssccssccsscsccccscccscccsccscsscss"
       inkscape:label="cross" />
  </g>
</svg>
