<?xml version="1.0" encoding="UTF-8" standalone="no"?>
<svg
   xmlns:dc="http://purl.org/dc/elements/1.1/"
   xmlns:cc="http://creativecommons.org/ns#"
   xmlns:rdf="http://www.w3.org/1999/02/22-rdf-syntax-ns#"
   xmlns:svg="http://www.w3.org/2000/svg"
   xmlns="http://www.w3.org/2000/svg"
   xmlns:sodipodi="http://sodipodi.sourceforge.net/DTD/sodipodi-0.dtd"
   xmlns:inkscape="http://www.inkscape.org/namespaces/inkscape"
   version="1.1"
   id="svg885"
   width="128"
   height="80"
   viewBox="0 0 128 80"
   sodipodi:docname="skipped.svg"
   inkscape:version="1.0.1 (3bc2e81, 2020-09-07)">
  <metadata
     id="metadata891">
    <rdf:RDF>
      <cc:Work
         rdf:about="">
        <dc:format>image/svg+xml</dc:format>
        <dc:type
           rdf:resource="http://purl.org/dc/dcmitype/StillImage" />
        <dc:title></dc:title>
      </cc:Work>
    </rdf:RDF>
  </metadata>
  <defs
     id="defs889">
    <inkscape:path-effect
       effect="offset"
       id="path-effect1029"
       is_visible="true"
       lpeversion="1"
       linejoin_type="miter"
       unit="mm"
       offset="0.1"
       miter_limit="4"
       attempt_force_join="true"
       update_on_knot_move="true" />
  </defs>
  <sodipodi:namedview
     pagecolor="#ffffff"
     bordercolor="#666666"
     borderopacity="1"
     objecttolerance="10"
     gridtolerance="10"
     guidetolerance="10"
     inkscape:pageopacity="0"
     inkscape:pageshadow="2"
     inkscape:window-width="2488"
     inkscape:window-height="1370"
     id="namedview887"
     showgrid="false"
     inkscape:zoom="8.0000001"
     inkscape:cx="34.734021"
     inkscape:cy="35.069214"
     inkscape:window-x="2632"
     inkscape:window-y="33"
     inkscape:window-maximized="1"
     inkscape:current-layer="g893"
     inkscape:document-rotation="0"
     inkscape:pagecheckerboard="false" />
  <g
     inkscape:groupmode="layer"
     inkscape:label="Image"
     id="g893">
    <path
       id="path3647"
       style="fill:none;fill-opacity:1;stroke:#ffffff;stroke-width:15.0001;stroke-linecap:round;stroke-linejoin:round;stroke-miterlimit:4;stroke-dasharray:none;stroke-opacity:1"
       d="m 76.329011,34.488801 -0.0494,-22.148576 c 4.302979,-0.189358 7.365269,0.556345 7.391769,4.567688 0.03118,4.718815 -1.72618,6.436546 -6.547506,6.522484 m 28.457436,23.019774 c -3.15897,0.06477 -4.79839,1.734513 -4.75426,5.142996 0.019,1.469653 -0.0387,5.756462 0.18963,9.456821 0.14088,2.284416 -0.31811,4.601766 1.48705,6.195065 2.45375,2.16577 6.60795,-0.449868 6.54083,-4.834485 -0.0672,-4.384619 -0.1553,-3.557038 -4.76295,-3.553875 M 83.457166,68.399284 83.129052,46.729712 c 2.125564,8.312938 5.252787,15.290415 8.922596,21.427305 -0.06856,-7.389007 0.233446,-14.5525 0.341574,-21.830402 m -25.488048,21.681853 9.932837,-0.01693 m -5.807529,-22.503001 0.0057,22.328205 m -4.076405,-22.661101 8.929378,-0.0092 m -22.389598,0.0749 0.01541,23.214713 m -5.4223,-23.435294 11.671009,0.03573 m -22.107629,1.094803 c -4.111148,0.01516 -3.794123,7.461104 -3.704827,11.535977 0.08514,3.884923 0.28608,10.476487 4.189505,10.422465 3.896314,-0.05392 4.270267,-6.498581 4.18511,-10.376423 -0.09321,-4.244622 -0.888643,-11.59596 -4.669788,-11.582019 z m -21.351345,0.04275 5.998834,22.01427 5.769887,-21.928803 m 77.144887,-33.742828 1.10408,21.622148 c 5.9818,-0.354111 8.73857,-3.066628 9.50082,-6.050645 0.68985,-2.700645 1.36038,-9.117812 -0.65171,-12.324856 -1.72346,-2.746966 -4.85591,-3.658329 -9.95319,-3.246647 z m -14.315734,8.998978 7.367653,-0.039 m -1.045511,-9.965894 -6.551721,0.05168 -9.56e-4,21.983423 7.579219,-0.01213 m -35.430689,0.87462 -0.303065,-21.941821 c 2.467671,-0.02009 6.757594,-0.692637 6.966904,4.43833 0.20931,5.130967 -2.660268,6.302996 -6.218808,6.555389 m -17.614851,10.757844 9.287712,-0.01941 m -5.406157,-22.011745 0.03836,21.863914 m -3.678382,-22.198316 7.308784,-0.02178 m -17.110399,0.586124 c -1.213686,4.010118 -2.861453,7.9836 -5.232221,10.757401 4.111675,3.352027 7.525231,6.468151 10.384117,9.995391 M 29.045012,12.099706 29.727186,34.298961 M 18.106579,12.547771 c -3.455355,-0.218758 -6.621046,1.824187 -6.617261,4.945776 0.0039,3.183283 2.537949,4.744981 4.547058,5.942937 2.842375,1.694802 4.482348,3.185895 4.531975,5.886743 0.05949,3.2376 -2.525396,5.143133 -7.508973,4.739105"
       inkscape:label="text"
       sodipodi:nodetypes="ccsccssszcccccccccccccccssssscccccssccccccccczcccccccccccccsssc" />
    <path
       id="path975-3"
       style="fill:none;fill-opacity:1;stroke:#841810;stroke-width:8.00001;stroke-linecap:round;stroke-linejoin:round;stroke-miterlimit:4;stroke-dasharray:none;stroke-opacity:1"
       d="m 76.329011,34.488801 -0.0494,-22.148576 c 4.302979,-0.189358 7.365269,0.556345 7.391769,4.567688 0.03118,4.718815 -1.72618,6.436546 -6.547506,6.522484 m 28.457436,23.019774 c -3.15897,0.06477 -4.79839,1.734513 -4.75426,5.142996 0.019,1.469653 -0.0387,5.756462 0.18963,9.456821 0.14088,2.284416 -0.31811,4.601766 1.48705,6.195065 2.45375,2.16577 6.60795,-0.449868 6.54083,-4.834485 -0.0672,-4.384619 -0.1553,-3.557038 -4.76295,-3.553875 M 83.457166,68.399284 83.129052,46.729712 c 2.125564,8.312938 5.252787,15.290415 8.922596,21.427305 -0.06856,-7.389007 0.233446,-14.5525 0.341574,-21.830402 m -25.488048,21.681853 9.932837,-0.01693 m -5.807529,-22.503001 0.0057,22.328205 m -4.076405,-22.661101 8.929378,-0.0092 m -22.389598,0.0749 0.01541,23.214713 m -5.4223,-23.435294 11.671009,0.03573 m -22.107629,1.094803 c -4.111148,0.01516 -3.794123,7.461104 -3.704827,11.535977 0.08514,3.884923 0.28608,10.476487 4.189505,10.422465 3.896314,-0.05392 4.270267,-6.498581 4.18511,-10.376423 -0.09321,-4.244622 -0.888643,-11.59596 -4.669788,-11.582019 z m -21.351345,0.04275 5.998834,22.01427 5.769887,-21.928803 m 77.144887,-33.742828 1.10408,21.622148 c 5.9818,-0.354111 8.73857,-3.066628 9.50082,-6.050645 0.68985,-2.700645 1.36038,-9.117812 -0.65171,-12.324856 -1.72346,-2.746966 -4.85591,-3.658329 -9.95319,-3.246647 z m -14.315734,8.998978 7.367653,-0.039 m -1.045511,-9.965894 -6.551721,0.05168 -9.56e-4,21.983423 7.579219,-0.01213 m -35.430689,0.87462 -0.303065,-21.941821 c 2.467671,-0.02009 6.757594,-0.692637 6.966904,4.43833 0.20931,5.130967 -2.660268,6.302996 -6.218808,6.555389 m -17.614851,10.757844 9.287712,-0.01941 m -5.406157,-22.011745 0.03836,21.863914 m -3.678382,-22.198316 7.308784,-0.02178 m -17.110399,0.586124 c -1.213686,4.010118 -2.861453,7.9836 -5.232221,10.757401 4.111675,3.352027 7.525231,6.468151 10.384117,9.995391 M 29.045012,12.099706 29.727186,34.298961 M 18.106579,12.547771 c -3.455355,-0.218758 -6.621046,1.824187 -6.617261,4.945776 0.0039,3.183283 2.537949,4.744981 4.547058,5.942937 2.842375,1.694802 4.482348,3.185895 4.531975,5.886743 0.05949,3.2376 -2.525396,5.143133 -7.508973,4.739105"
       inkscape:label="text"
       sodipodi:nodetypes="ccsccssszcccccccccccccccssssscccccssccccccccczcccccccccccccsssc" />
    <path
       id="path1027"
       style="fill:none;fill-opacity:1;stroke:#d32d01;stroke-width:3.99999;stroke-linecap:round;stroke-linejoin:round;stroke-miterlimit:4;stroke-dasharray:none;stroke-opacity:1"
       d="m 76.329011,34.488801 -0.0494,-22.148576 c 4.302979,-0.189358 7.365269,0.556345 7.391769,4.567688 0.03118,4.718815 -1.72618,6.436546 -6.547506,6.522484 m 28.457436,23.019774 c -3.15897,0.06477 -4.79839,1.734513 -4.75426,5.142996 0.019,1.469653 -0.0387,5.756462 0.18963,9.456821 0.14088,2.284416 -0.31811,4.601766 1.48705,6.195065 2.45375,2.16577 6.60795,-0.449868 6.54083,-4.834485 -0.0672,-4.384619 -0.1553,-3.557038 -4.76295,-3.553875 M 83.457166,68.399284 83.129052,46.729712 c 2.125564,8.312938 5.252787,15.290415 8.922596,21.427305 -0.06856,-7.389007 0.233446,-14.5525 0.341574,-21.830402 m -25.488048,21.681853 9.932837,-0.01693 m -5.807529,-22.503001 0.0057,22.328205 m -4.076405,-22.661101 8.929378,-0.0092 m -22.389598,0.0749 0.01541,23.214713 m -5.4223,-23.435294 11.671009,0.03573 m -22.107629,1.094803 c -4.111148,0.01516 -3.794123,7.461104 -3.704827,11.535977 0.08514,3.884923 0.28608,10.476487 4.189505,10.422465 3.896314,-0.05392 4.270267,-6.498581 4.18511,-10.376423 -0.09321,-4.244622 -0.888643,-11.59596 -4.669788,-11.582019 z m -21.351345,0.04275 5.998834,22.01427 5.769887,-21.928803 m 77.144887,-33.742828 1.10408,21.622148 c 5.9818,-0.354111 8.73857,-3.066628 9.50082,-6.050645 0.68985,-2.700645 1.36038,-9.117812 -0.65171,-12.324856 -1.72346,-2.746966 -4.85591,-3.658329 -9.95319,-3.246647 z m -14.315734,8.998978 7.367653,-0.039 m -1.045511,-9.965894 -6.551721,0.05168 -9.56e-4,21.983423 7.579219,-0.01213 m -35.430689,0.87462 -0.303065,-21.941821 c 2.467671,-0.02009 6.757594,-0.692637 6.966904,4.43833 0.20931,5.130967 -2.660268,6.302996 -6.218808,6.555389 m -17.614851,10.757844 9.287712,-0.01941 m -5.406157,-22.011745 0.03836,21.863914 m -3.678382,-22.198316 7.308784,-0.02178 m -17.110399,0.586124 c -1.213686,4.010118 -2.861453,7.9836 -5.232221,10.757401 4.111675,3.352027 7.525231,6.468151 10.384117,9.995391 M 29.045012,12.099706 29.727186,34.298961 M 18.106579,12.547771 c -3.455355,-0.218758 -6.621046,1.824187 -6.617261,4.945776 0.0039,3.183283 2.537949,4.744981 4.547058,5.942937 2.842375,1.694802 4.482348,3.185895 4.531975,5.886743 0.05949,3.2376 -2.525396,5.143133 -7.508973,4.739105"
       inkscape:label="text"
       sodipodi:nodetypes="ccsccssszcccccccccccccccssssscccccssccccccccczcccccccccccccsssc" />
  </g>
</svg>
